<?xml version="1.0" encoding="UTF-8"?>
<svg id="Layer_1" data-name="Layer 1" xmlns="http://www.w3.org/2000/svg" xmlns:xlink="http://www.w3.org/1999/xlink" viewBox="0 0 342.11 288.09">
  <defs>
    <style>
      .cls-1, .cls-2, .cls-3, .cls-4 {
        fill: none;
      }

      .cls-5 {
        clip-path: url(#clippath);
      }

      .cls-6 {
        fill: #f9bba4;
      }

      .cls-7 {
        fill: #f99f32;
      }

      .cls-8 {
        fill: #0055a0;
      }

      .cls-9 {
        fill: #036051;
      }

      .cls-10 {
        fill: #007b6a;
      }

      .cls-11 {
        fill: #fff;
      }

      .cls-12 {
        fill: #ee6a56;
      }

      .cls-13 {
        fill: #997356;
      }

      .cls-14 {
        fill: #9d9188;
      }

      .cls-15 {
        fill: #bdb1a6;
      }

      .cls-16 {
        fill: #37424b;
      }

      .cls-17 {
        fill: #35bcac;
      }

      .cls-18 {
        fill: #1797d4;
      }

      .cls-19 {
        fill: #6e55a4;
      }

      .cls-20 {
        fill: #593e98;
      }

      .cls-21 {
        fill: #3aba96;
      }

      .cls-22 {
        fill: #4b446d;
      }

      .cls-2 {
        stroke: #b3b3b3;
        stroke-width: .96px;
      }

      .cls-2, .cls-3, .cls-4 {
        stroke-linecap: round;
        stroke-linejoin: round;
      }

      .cls-23 {
        clip-path: url(#clippath-1);
      }

      .cls-24 {
        clip-path: url(#clippath-4);
      }

      .cls-25 {
        clip-path: url(#clippath-3);
      }

      .cls-26 {
        clip-path: url(#clippath-2);
      }

      .cls-27 {
        clip-path: url(#clippath-7);
      }

      .cls-28 {
        clip-path: url(#clippath-8);
      }

      .cls-29 {
        clip-path: url(#clippath-6);
      }

      .cls-30 {
        clip-path: url(#clippath-5);
      }

      .cls-31 {
        clip-path: url(#clippath-9);
      }

      .cls-32 {
        clip-path: url(#clippath-20);
      }

      .cls-33 {
        clip-path: url(#clippath-14);
      }

      .cls-34 {
        clip-path: url(#clippath-13);
      }

      .cls-35 {
        clip-path: url(#clippath-12);
      }

      .cls-36 {
        clip-path: url(#clippath-10);
      }

      .cls-37 {
        clip-path: url(#clippath-15);
      }

      .cls-38 {
        clip-path: url(#clippath-17);
      }

      .cls-39 {
        clip-path: url(#clippath-16);
      }

      .cls-40 {
        clip-path: url(#clippath-19);
      }

      .cls-41 {
        clip-path: url(#clippath-11);
      }

      .cls-42 {
        clip-path: url(#clippath-18);
      }

      .cls-43 {
        opacity: .2;
      }

      .cls-44 {
        opacity: .3;
      }

      .cls-3 {
        stroke: #fff;
        stroke-width: 7.65px;
      }

      .cls-4 {
        stroke: #37424b;
        stroke-width: 7.12px;
      }
    </style>
    <clipPath id="clippath">
      <rect class="cls-1" width="342.11" height="288.08"/>
    </clipPath>
    <clipPath id="clippath-1">
      <rect class="cls-1" width="342.11" height="288.08"/>
    </clipPath>
    <clipPath id="clippath-2">
      <rect class="cls-1" x="254.05" y="164.95" width="68.35" height="103"/>
    </clipPath>
    <clipPath id="clippath-3">
      <rect class="cls-1" x="322.73" y="260.91" width="3.33" height="7.28"/>
    </clipPath>
    <clipPath id="clippath-4">
      <rect class="cls-1" x="232.54" y="164.94" width="4.56" height="5.2"/>
    </clipPath>
    <clipPath id="clippath-5">
      <rect class="cls-1" x="235.74" y="127.51" width="62.43" height="23.57"/>
    </clipPath>
    <clipPath id="clippath-6">
      <rect class="cls-1" x="224.01" y="279.33" width="22.25" height="5.87"/>
    </clipPath>
    <clipPath id="clippath-7">
      <rect class="cls-1" x="262.71" y="169.8" width="30.23" height="7.61"/>
    </clipPath>
    <clipPath id="clippath-8">
      <rect class="cls-1" x="285.96" y="129.61" width="12.84" height="3.53"/>
    </clipPath>
    <clipPath id="clippath-9">
      <rect class="cls-1" x="250.31" y="94.38" width="36.35" height="8.49"/>
    </clipPath>
    <clipPath id="clippath-10">
      <rect class="cls-1" x="265.98" y="64.68" width="12.9" height="11.21"/>
    </clipPath>
    <clipPath id="clippath-11">
      <rect class="cls-1" x="322.11" y="260.9" width="4.48" height="21.89"/>
    </clipPath>
    <clipPath id="clippath-12">
      <rect class="cls-1" x="35.6" y="266.6" width="13.39" height="20.97"/>
    </clipPath>
    <clipPath id="clippath-13">
      <rect class="cls-1" x="25.42" y="75.5" width="11.09" height="4.31"/>
    </clipPath>
    <clipPath id="clippath-14">
      <rect class="cls-1" x="17.34" y="119.08" width="40.96" height="24.43"/>
    </clipPath>
    <clipPath id="clippath-15">
      <rect class="cls-1" x="24.73" y="108.82" width="24.62" height="14.58"/>
    </clipPath>
    <clipPath id="clippath-16">
      <rect class="cls-1" x="50.98" y="79.8" width="20.73" height="14.68"/>
    </clipPath>
    <clipPath id="clippath-17">
      <rect class="cls-1" x="48.81" y="149.13" width="16.92" height="88.8"/>
    </clipPath>
    <clipPath id="clippath-18">
      <rect class="cls-1" x="50.44" y="279.97" width="11.16" height="7.59"/>
    </clipPath>
    <clipPath id="clippath-19">
      <rect class="cls-1" x="85.88" y="96.05" width="13.4" height="5.68"/>
    </clipPath>
    <clipPath id="clippath-20">
      <rect class="cls-1" x="73.85" y="14.86" width="3.56" height="15.02"/>
    </clipPath>
  </defs>
  <g class="cls-5">
    <g id="Group_2000" data-name="Group 2000">
      <g id="Group_1999" data-name="Group 1999">
        <g class="cls-23">
          <g id="Group_1998" data-name="Group 1998">
            <path id="Path_1956" data-name="Path 1956" class="cls-9" d="M185.58,287.35h-46.04c-2.75-2.41-4.7-5.59-5.62-9.13-3.55-15.47,20.55-6.85,13.95-19.03s-7.71-26.64,1.34-24.61,8.62-5.16,8.81-16.74c.25-15.47,14.97-17.25,14.71-1.52s2.03,18.27,8.62,16.24,13.7,2.09,6.85,11.95-9.59,19,1.17,15.45c8.8-2.9,19.23,10.48-3.79,27.4"/>
            <path id="Path_1957" data-name="Path 1957" class="cls-17" d="M189.36,267.9c-.1-.26-.39-.4-.65-.31l-23.34,8.38v-27.22l19.02-10.68c.24-.14,.33-.45,.19-.69-.14-.24-.45-.33-.69-.19h0l-18.53,10.4v-33.05c0-.28-.22-.5-.49-.51,0,0-.01,0-.02,0-.28,0-.51,.23-.51,.51v46.22l-13.99-16.58c-.18-.21-.5-.24-.71-.06-.21,.18-.24,.5-.06,.71l14.76,17.5v21.08l-23-8.04c-.26-.1-.56,.04-.65,.3-.1,.26,.04,.56,.3,.65,0,0,.01,0,.02,0l23.33,8.16v2.87h1.02v-10.3l23.68-8.51c.26-.09,.4-.38,.31-.65"/>
            <path id="Path_1958" data-name="Path 1958" class="cls-10" d="M135.03,287.35h-22.85c-2.23-1.49-3.85-3.73-4.58-6.31-2-8.72,11.58-3.86,7.86-10.72s-4.35-15.01,.75-13.86,4.85-2.9,4.96-9.43c.14-8.72,8.43-9.72,8.29-.86s1.14,10.29,4.85,9.14,7.72,1.19,3.86,6.74-5.4,10.7,.66,8.7c5.16-1.7,11.3,6.53-3.82,16.6"/>
            <path id="Path_1959" data-name="Path 1959" class="cls-17" d="M125.33,245.18v42.17h-.57v-42.17c0-.16,.13-.28,.28-.29,.16,0,.28,.13,.29,.28h0"/>
            <path id="Path_1960" data-name="Path 1960" class="cls-17" d="M125.04,284.65s-.06,0-.09-.02l-13.33-4.66c-.15-.04-.24-.2-.2-.35,.04-.15,.2-.24,.35-.2,.01,0,.02,0,.03,.01l13.33,4.66c.15,.05,.23,.21,.19,.36-.04,.12-.15,.2-.28,.2"/>
            <path id="Path_1961" data-name="Path 1961" class="cls-17" d="M125.04,280.46c-.16,0-.29-.11-.3-.27,0-.13,.07-.25,.2-.29l13.53-4.86c.15-.06,.31,.01,.37,.16,.06,.15-.01,.31-.16,.37,0,0-.01,0-.02,0l-13.53,4.86s-.07,.02-.1,.02"/>
            <path id="Path_1962" data-name="Path 1962" class="cls-17" d="M125.04,272.27c-.08,0-.16-.04-.22-.1l-8.38-9.94c-.09-.13-.06-.31,.06-.4,.11-.08,.27-.07,.37,.03l8.38,9.94c.1,.12,.09,.3-.03,.4-.05,.05-.12,.07-.19,.07h0Z"/>
            <path id="Path_1963" data-name="Path 1963" class="cls-17" d="M125.04,264.56c-.16,0-.29-.12-.29-.28,0-.1,.06-.2,.15-.25l10.86-6.1c.14-.08,.31-.03,.39,.11,.08,.14,.03,.31-.11,.39h0l-10.86,6.1s-.09,.04-.14,.04"/>
            <path id="Path_1964" data-name="Path 1964" class="cls-16" d="M.29,286.62H341.82c.17,.01,.3,.16,.29,.34v.8c.01,.17-.12,.32-.29,.33H.29c-.17-.01-.3-.16-.29-.33v-.8c-.01-.17,.12-.32,.29-.34"/>
            <path id="Path_1965" data-name="Path 1965" class="cls-8" d="M254.05,169.81s11.54,43.95,18.84,57.72,49.89,40.65,49.89,40.65l3.27-7.28s-33.52-26.56-38.08-38.77-11.75-57.2-11.75-57.2l-22.18,4.86Z"/>
            <path id="Path_1966" data-name="Path 1966" class="cls-22" d="M326.06,260.9l7.33,.99-10.08,21.92c-.14,.31-.52,.45-.83,.31-.23-.11-.37-.34-.36-.59l.57-15.28,3.38-7.35Z"/>
            <path id="Path_1967" data-name="Path 1967" class="cls-16" d="M254.05,169.81s11.54,43.95,18.84,57.72,49.89,40.65,49.89,40.65l3.27-7.28s-33.52-26.56-38.08-38.77-11.75-57.2-11.75-57.2l-22.18,4.86Z"/>
            <path id="Path_1968" data-name="Path 1968" class="cls-19" d="M246.22,279.34l2.16,7.07h-24.13c-.35,0-.62-.29-.62-.63,0-.25,.15-.47,.38-.57l14.12-5.87h8.09Z"/>
            <g id="Group_1943" data-name="Group 1943" class="cls-43">
              <g id="Group_1942" data-name="Group 1942">
                <g class="cls-26">
                  <g id="Group_1941" data-name="Group 1941">
                    <path id="Path_1969" data-name="Path 1969" d="M306.06,250.81c11.2,11.44,15.31,15.97,16.34,17.13-4.25-2.72-42.62-27.41-49.51-40.42-7.29-13.77-18.84-57.72-18.84-57.72l22.18-4.86s7.19,44.99,11.74,57.2h0s0,.03,0,.04c3.92,10.72,10.08,20.48,18.07,28.63"/>
                  </g>
                </g>
              </g>
            </g>
            <g id="Group_1946" data-name="Group 1946" class="cls-43">
              <g id="Group_1945" data-name="Group 1945">
                <g class="cls-25">
                  <g id="Group_1944" data-name="Group 1944">
                    <path id="Path_1970" data-name="Path 1970" d="M326.06,260.91l-3.28,7.28-.05-.03,3.33-7.25Z"/>
                  </g>
                </g>
              </g>
            </g>
            <path id="Path_1971" data-name="Path 1971" class="cls-19" d="M326.06,260.9l7.33,.99-10.08,21.92c-.14,.31-.52,.45-.83,.31-.23-.11-.37-.34-.36-.59l.57-15.28,3.38-7.35Z"/>
            <path id="Path_1972" data-name="Path 1972" class="cls-16" d="M292.94,169.81s-19.14,30.08-27.65,45.87c-6.31,11.72-19.03,63.65-19.03,63.65h-7.9s6.24-50.74,8.85-64.11,21.72-50.28,21.72-50.28l24,4.86Z"/>
            <path id="Path_1973" data-name="Path 1973" class="cls-11" d="M207.22,169.8h-8.33c-1.91,0-3.46-1.54-3.47-3.45h0v-60.01c0-1.91,1.55-3.47,3.47-3.47h113.07c1.91,0,3.46,1.55,3.47,3.47v60c0,1.91-1.55,3.47-3.47,3.47h-104.74Z"/>
            <path id="Path_1974" data-name="Path 1974" class="cls-2" d="M207.22,169.8h-8.33c-1.91,0-3.46-1.54-3.47-3.45h0v-60.01c0-1.91,1.55-3.47,3.47-3.47h113.07c1.91,0,3.46,1.55,3.47,3.47v60c0,1.91-1.55,3.47-3.47,3.47h-104.74Z"/>
            <line id="Line_194" data-name="Line 194" class="cls-4" x1="305.43" y1="116.24" x2="207.87" y2="116.24"/>
            <line id="Line_195" data-name="Line 195" class="cls-4" x1="305.43" y1="125.49" x2="207.87" y2="125.49"/>
            <line id="Line_196" data-name="Line 196" class="cls-4" x1="305.43" y1="134.73" x2="207.87" y2="134.73"/>
            <line id="Line_197" data-name="Line 197" class="cls-4" x1="305.43" y1="143.98" x2="207.87" y2="143.98"/>
            <line id="Line_198" data-name="Line 198" class="cls-4" x1="305.43" y1="160.23" x2="255.42" y2="160.23"/>
            <g id="Group_1949" data-name="Group 1949" class="cls-43">
              <g id="Group_1948" data-name="Group 1948">
                <g class="cls-24">
                  <g id="Group_1947" data-name="Group 1947">
                    <path id="Path_1975" data-name="Path 1975" d="M237.1,169.8h-3.08c-.51,0-1.02,.12-1.47,.34l2.66-5.2,1.9,4.86Z"/>
                  </g>
                </g>
              </g>
            </g>
            <g id="Group_1952" data-name="Group 1952" class="cls-43">
              <g id="Group_1951" data-name="Group 1951">
                <g class="cls-30">
                  <g id="Group_1950" data-name="Group 1950">
                    <path id="Path_1976" data-name="Path 1976" d="M242.04,127.62l-.04-.04c-1.81,2.49,3.18,5.36,3.18,5.36,0,0-9.8-1.42-9.42,.81,.37,2.25,3.26,11.66,6.12,10.28s10.46-6.36,10.46-6.36v-5.49c-1.37-.75-2.87-1.23-4.42-1.41-2.84-.47-6.16-3.92-5.87-3.14"/>
                    <path id="Path_1977" data-name="Path 1977" d="M286.77,133.03c-.37,2.24-.89,3.8-1.66,4.17-.12,.07-.26,.09-.4,.08-4.15-.21-32.34-5.07-32.34-5.07v5.61l36.48,12.99s2.34,1.32,5.44-1.97c1.66-1.77,2.94-6.82,3.87-12.95l-11.4-2.87Z"/>
                  </g>
                </g>
              </g>
            </g>
            <path id="Path_1978" data-name="Path 1978" class="cls-13" d="M251.96,128.74v5.49s-7.6,4.99-10.46,6.36-5.36-5.11-5.73-7.36c-.37-2.23,9.03-3.73,9.03-3.73,0,0-4.98-2.86-3.18-5.36l.04,.04c1.66,1.52,3.68,2.6,5.88,3.14,1.55,.18,3.05,.66,4.42,1.41"/>
            <path id="Path_1979" data-name="Path 1979" class="cls-13" d="M298.79,132.26c-.93,6.12-2.21,11.17-3.87,12.94-3.11,3.29-5.44,1.97-5.44,1.97l-37.48-12.77v-5.6s8.25,1.43,16.48,2.77c6.98,1.13,13.94,2.21,15.85,2.3,.14,0,.28-.02,.4-.08,.77-.38,1.28-1.93,1.66-4.18l12.4,2.65Z"/>
            <path id="Path_1980" data-name="Path 1980" class="cls-20" d="M300.07,121.36c-.33,3.72-.74,7.47-1.28,10.9l-12.41-2.64c1.37-8.41,.35-26.43,.27-26.73h-36.35s2.43-11.75,6.68-14.18c3.77-1.97,7.66-3.69,11.64-5.16h10.26c4.95,.9,9.76,2.46,14.3,4.63,6.54,3.35,7.8,22.87,6.88,33.2"/>
            <path id="Path_1981" data-name="Path 1981" class="cls-13" d="M244.47,171.72h-7.07c-1.28,0-2.31-1.04-2.31-2.31v-3.78c0-1.28,1.04-2.31,2.31-2.31,.14,0,.28,.01,.41,.04l7.07,1.28c1.1,.2,1.9,1.16,1.9,2.28v2.51c0,1.28-1.04,2.31-2.31,2.31"/>
            <path id="Path_1982" data-name="Path 1982" class="cls-13" d="M281.57,58.89v3.4c0,1.32-1.08,2.4-2.4,2.4-.09,0-.19,0-.28-.02v20.08s-3.56,2.43-6.91,2.43c-1.54,.05-2.91-.95-3.34-2.43,0,0,.03-6.73,0-8.84v-.11c-.04-1.98,.19-3.34-2.45-4.58-.02,0-.03,0-.06-.02-.05-.02-.09-.04-.15-.06,0,0-.01-.01-.02-.01-1.11-.48-2.12-1.17-2.98-2.02-.17-.16-.34-.34-.49-.52h.02c-1.47-1.72-2.28-3.89-2.28-6.14v-13.28c0-.66,.07-1.31,.2-1.95,.79,2.69,4.82-2.6,5.28-2.14,.02,.03,.03,.06,.04,.09,.15,1.02,2.72,1.92,5.16,.55,2.42-1.36,3.71,.15,3.59,.86-.09,.72,2.13,3.2,1.15,5.33s1.89,1.36,.48,4.04,.8,7.34,.8,4.01,2.24-3.45,2.24-3.45c1.33,0,2.4,1.08,2.4,2.41"/>
            <path id="Path_1983" data-name="Path 1983" d="M286.1,58.38c-1.74,3.27-.22,6.61-2.65,7.6s-1.84,3.57-4.56,2.96v-4.28c.09,.02,.19,.02,.28,.02,1.33,0,2.4-1.08,2.41-2.41v-3.39c0-1.33-1.08-2.4-2.41-2.41,0,0-2.24,.1-2.24,3.44s-2.22-1.31-.8-4-1.46-1.92-.47-4.05-1.25-4.61-1.16-5.32-1.18-2.22-3.6-.86-5.01,.47-5.15-.55-4.51,4.85-5.32,2.04c0,0-2.89,.13-3.65-2.16s2.5-2.37,2.36-4.19,1.36-4.86,4.56-3.94c2.56,.8,5.32,.61,7.74-.54,1.68-.91,4.41-.91,5.02,1.52s6.45-.38,6.76,3.49,4.48,5.54,2.2,8.67c-2.27,3.11,2.42,5.09,.68,8.35"/>
            <g id="Group_1955" data-name="Group 1955" class="cls-44">
              <g id="Group_1954" data-name="Group 1954">
                <g class="cls-29">
                  <g id="Group_1953" data-name="Group 1953">
                    <path id="Path_1984" data-name="Path 1984" d="M246.26,279.33l-12.85,4.76-9.41,1.11,14.35-5.87h7.9Z"/>
                  </g>
                </g>
              </g>
            </g>
            <g id="Group_1958" data-name="Group 1958" class="cls-43">
              <g id="Group_1957" data-name="Group 1957">
                <g class="cls-27">
                  <g id="Group_1956" data-name="Group 1956">
                    <path id="Path_1985" data-name="Path 1985" d="M290.06,174.37l-27.35,3.05,3.76-7.61h26.47l-2.88,4.56Z"/>
                  </g>
                </g>
              </g>
            </g>
            <g id="Group_1961" data-name="Group 1961" class="cls-43">
              <g id="Group_1960" data-name="Group 1960">
                <g class="cls-28">
                  <g id="Group_1959" data-name="Group 1959">
                    <path id="Path_1986" data-name="Path 1986" d="M298.66,133.13l-12.7-1.53,.43-2,12.41,2.65-.14,.88Z"/>
                  </g>
                </g>
              </g>
            </g>
            <g id="Group_1964" data-name="Group 1964" class="cls-43">
              <g id="Group_1963" data-name="Group 1963">
                <g class="cls-31">
                  <g id="Group_1962" data-name="Group 1962">
                    <path id="Path_1987" data-name="Path 1987" d="M286.66,102.87c0-2.88-.42-5.74-1.25-8.49l-35.1,8.49h36.35Z"/>
                  </g>
                </g>
              </g>
            </g>
            <g id="Group_1967" data-name="Group 1967" class="cls-43">
              <g id="Group_1966" data-name="Group 1966">
                <g class="cls-36">
                  <g id="Group_1965" data-name="Group 1965">
                    <path id="Path_1988" data-name="Path 1988" d="M278.89,64.68c-2.99,8.46-7.74,10.65-10.25,11.21v-.12c-.04-1.98,.19-3.34-2.45-4.58-.02,0-.03,0-.06-.02-.05-.02-.09-.04-.15-.06,6.75,2.38,12.58-5.98,12.9-6.44"/>
                  </g>
                </g>
              </g>
            </g>
            <path id="Path_1989" data-name="Path 1989" class="cls-11" d="M261.97,61.28l8.74-.08s.66,6.23-5.32,5.84c-3.68-.24-3.42-5.76-3.42-5.76"/>
            <path id="Path_1990" data-name="Path 1990" d="M322.73,268.16l-.05,.1s-.08-.1-.28-.32c.16,.1,.28,.18,.33,.22"/>
            <g id="Group_1970" data-name="Group 1970" class="cls-43">
              <g id="Group_1969" data-name="Group 1969">
                <g class="cls-41">
                  <g id="Group_1968" data-name="Group 1968">
                    <path id="Path_1991" data-name="Path 1991" d="M326.06,260.9l.53,9.18-4.48,12.71,.62-14.64,3.33-7.25Z"/>
                  </g>
                </g>
              </g>
            </g>
            <path id="Path_1992" data-name="Path 1992" class="cls-16" d="M80.71,0h118.24c1.83,0,3.31,1.78,3.31,3.97V92.43c0,2.19-1.48,3.97-3.31,3.97H80.71c-1.83,0-3.31-1.78-3.31-3.97V3.97c0-2.19,1.48-3.97,3.31-3.97"/>
            <line id="Line_199" data-name="Line 199" class="cls-3" x1="185.94" y1="25.77" x2="93.73" y2="25.77"/>
            <line id="Line_200" data-name="Line 200" class="cls-3" x1="185.94" y1="37.08" x2="93.73" y2="37.08"/>
            <line id="Line_201" data-name="Line 201" class="cls-3" x1="185.94" y1="48.39" x2="93.73" y2="48.39"/>
            <line id="Line_202" data-name="Line 202" class="cls-3" x1="185.94" y1="59.7" x2="93.73" y2="59.7"/>
            <line id="Line_203" data-name="Line 203" class="cls-3" x1="185.94" y1="79.57" x2="138.67" y2="79.57"/>
            <path id="Path_1993" data-name="Path 1993" class="cls-12" d="M60.08,239.87l-13.15,33.78-5.62-7.05,9.38-39.8,9.38,13.07Z"/>
            <path id="Path_1994" data-name="Path 1994" class="cls-21" d="M41.31,266.6l-5.71,1.18,8.88,19.79h9.07v-2.43l-4.56-1.37-2.07-10.12-5.62-7.05Z"/>
            <path id="Path_1995" data-name="Path 1995" class="cls-8" d="M60.08,239.87l-13.15,33.78-5.62-7.05,9.38-39.8,9.38,13.07Z"/>
            <path id="Path_1996" data-name="Path 1996" class="cls-14" d="M60.08,239.87l-13.15,33.78-5.62-7.05,9.38-39.8,9.38,13.07Z"/>
            <g id="Group_1973" data-name="Group 1973" class="cls-43">
              <g id="Group_1972" data-name="Group 1972">
                <g class="cls-35">
                  <g id="Group_1971" data-name="Group 1971">
                    <path id="Path_1997" data-name="Path 1997" d="M41.31,266.6l-5.71,1.18,8.88,19.79,4.51-3.8-2.07-10.12-5.62-7.05Z"/>
                  </g>
                </g>
              </g>
            </g>
            <path id="Path_1998" data-name="Path 1998" class="cls-6" d="M35.37,79.34c.4,3.75,1.99,11.04,1.99,11.04l-9.53,2.34-2.98-13.63-.59-2.76c-.26,.3-.6,.53-.98,.66-1.2,.41-2.51-.23-2.92-1.43l-1.02-2.98c-.36-1.22,.33-2.5,1.55-2.86,1.15-.34,2.37,.26,2.8,1.37l.51,1.5-1.22-7.41,2.22-4.25s-1.6-4.62-.81-5.88c1.52-2.41,10.85-3.45,10.85-3.45,0,0,.22,.65,.56,1.72,1.13,3.52,3.53,11.55,3.53,15.9,.1,1.99-.62,3.93-1.98,5.38,0,0-.11,.13-.32,.34-.92,.96-1.75,1.71-1.75,3,0,.46,.04,.93,.1,1.39"/>
            <path id="Path_1999" data-name="Path 1999" class="cls-7" d="M35.8,53.33c-.34-1.07-.56-1.73-.56-1.73,0,0-9.46,.97-10.85,3.45-.73,1.29,1.07,4.41,.81,5.87-.21,1.18-2.22,4.25-2.22,4.25l1.23,7.41-.51-1.5c-.36-1.22-1.64-1.92-2.86-1.56-1.22,.36-1.92,1.64-1.56,2.86,.02,.06,.04,.12,.06,.19,0,0-8.63-5.45-7.6-13.36,.1-.75,1.57-1.36,1.49-2.09-.63-5.52,1.97-8.83,9.34-11.59,8.51-3.18-3.35-6.99,6.7-6.08,10.05,.91,6.53,13.86,6.53,13.86"/>
            <path id="Path_2000" data-name="Path 2000" class="cls-15" d="M67.69,207.77c-.3,3.97-.95,7.91-1.95,11.76-2.08,8.88-5.06,18.4-5.06,18.4,1.05,18.66,.92,42.04,.92,42.04h-8.81s-1-44.43-9.2-67.53c-5.6-15.74-11.25-27.5-16.75-46.1-1.42-4.8-2.96-13.21-2.96-13.21l37.43-8.2s6.68,49.47,6.36,62.85"/>
            <path id="Path_2001" data-name="Path 2001" class="cls-21" d="M52.79,279.97l-2.35,7.59h26.6c.34,0,.61-.27,.61-.61,0-.25-.15-.48-.38-.57l-15.67-6.42h-8.81Z"/>
            <path id="Path_2002" data-name="Path 2002" class="cls-6" d="M79.87,27.26c.11,2.41-.14,4.83-.73,7.17l-4.79-1.06c-.33-1.13-.5-2.31-.51-3.49,.05-2.64,.35-5.26,.87-7.85,.05-.35,.12-.71,.21-1.05,.17-.79,.4-1.56,.68-2.32h0s.15-.41,.15-.41c.15-.4,.3-.79,.46-1.13,.01-.02,.02-.03,.02-.05,.13-.3,.26-.58,.38-.83,.1-.21,.2-.39,.29-.56,.11-.23,.22-.4,.29-.54,.1-.19,.17-.28,.17-.28v11.16s0-.16,.03-.43c.12-1.32,.37-2.63,.76-3.9,.35-1.02,.84-1.78,1.51-1.69,1.86,.26,.12,2.74,.2,7.26"/>
            <path id="Path_2003" data-name="Path 2003" class="cls-6" d="M99.29,96.05c-1.01,.9-2.1,1.7-3.25,2.41-.38,.22-.77,.42-1.17,.59-.06,.02-.14,.05-.21,.08-2.11,.8-8,2.39-8.77,2.6h-.01s-.05,.01-.07,.02l-3.2-4.19c.62-3.37,6.49-3.77,7.92-4.29s3.46-2.8,4.51-2.05-.26,1.85-1.72,2.96-2.34,1.88-2.34,1.88h8.32Z"/>
            <path id="Path_2004" data-name="Path 2004" class="cls-18" d="M58.3,129.49l3.25,15.46-37.43,8.2-2.85-14.37-3.92-19.7s-4.26-3.64-5.31-8.2,1.06-9.57,5.31-13.21,8.35-6.99,8.35-6.99l-.79-4.25c-.12-.65,.29-1.29,.94-1.43l10.08-2.28c.96-.22,1.91,.37,2.16,1.32l.68,2.65s21.7-11.13,25.8-13.86h.01c4.1-2.79,9.8-39.46,9.8-39.46l1.8,.39,2.99,.66s-1.13,35.74-6.42,44.09c-.3,.46-.65,.89-1.03,1.29-.29,.32-.62,.65-.99,1.01l-.05,.05c-5.61,5.36-18.75,13.62-18.75,13.62l4.33,22.43,26.35-19.39,3.24,4.25-27.94,25.1,.15,1.46,.24,1.16Z"/>
            <path id="Path_2005" data-name="Path 2005" class="cls-11" d="M38.04,66.55l-8.55,1.82s.7,6.23,6.46,4.55c3.54-1.03,2.09-6.37,2.09-6.37"/>
            <g id="Group_1976" data-name="Group 1976" class="cls-43">
              <g id="Group_1975" data-name="Group 1975">
                <g class="cls-34">
                  <g id="Group_1974" data-name="Group 1974">
                    <path id="Path_2006" data-name="Path 2006" d="M35.28,77.95c0,.47,.03,.93,.09,1.39-.99,.28-2.01,.43-3.03,.46-4.06,.13-6.91-3.24-6.91-3.24,2.24,.59,4.56,.8,6.87,.64,1.56-.08,3.04-.68,4.22-1.71-.75,.6-1.2,1.5-1.24,2.46"/>
                  </g>
                </g>
              </g>
            </g>
            <g id="Group_1979" data-name="Group 1979" class="cls-43">
              <g id="Group_1978" data-name="Group 1978">
                <g class="cls-33">
                  <g id="Group_1977" data-name="Group 1977">
                    <path id="Path_2007" data-name="Path 2007" d="M58.3,129.49s-9.82,10.73-16.05,13.46c-4.63,2.02-15.64-1.98-20.99-4.17l-3.92-19.7s22.98,19.54,26.72,17.78c4.73-2.21,13.85-10,13.85-10l.4,2.63Z"/>
                  </g>
                </g>
              </g>
            </g>
            <g id="Group_1982" data-name="Group 1982" class="cls-43">
              <g id="Group_1981" data-name="Group 1981">
                <g class="cls-37">
                  <g id="Group_1980" data-name="Group 1980">
                    <path id="Path_2008" data-name="Path 2008" d="M49.35,121.51s-2.86,1.39-3.56,1.84c-1.6,1.04-21.06-14.53-21.06-14.53l24.62,12.69Z"/>
                  </g>
                </g>
              </g>
            </g>
            <g id="Group_1985" data-name="Group 1985" class="cls-43">
              <g id="Group_1984" data-name="Group 1984">
                <g class="cls-39">
                  <g id="Group_1983" data-name="Group 1983">
                    <path id="Path_2009" data-name="Path 2009" d="M71.7,79.8l-.99,1.01-.05,.05c-5.61,5.36-18.75,13.62-18.75,13.62l-.94-4.95,20.73-9.72Z"/>
                  </g>
                </g>
              </g>
            </g>
            <g id="Group_1988" data-name="Group 1988" class="cls-43">
              <g id="Group_1987" data-name="Group 1987">
                <g class="cls-38">
                  <g id="Group_1986" data-name="Group 1986">
                    <path id="Path_2010" data-name="Path 2010" d="M65.74,219.54c-2.08,8.88-5.05,18.4-5.05,18.4,0,0-.02-14.92-.6-24-.56-8.88-10.81-62.4-11.26-64.8,.52,1.77,8.77,30.4,13.55,50.26,1.57,6.63,2.7,13.36,3.37,20.14"/>
                  </g>
                </g>
              </g>
            </g>
            <g id="Group_1991" data-name="Group 1991" class="cls-43">
              <g id="Group_1990" data-name="Group 1990">
                <g class="cls-42">
                  <g id="Group_1989" data-name="Group 1989">
                    <path id="Path_2011" data-name="Path 2011" d="M61.6,279.97l-11.16,7.59,2.35-7.59h8.81Z"/>
                  </g>
                </g>
              </g>
            </g>
            <g id="Group_1994" data-name="Group 1994" class="cls-43">
              <g id="Group_1993" data-name="Group 1993">
                <g class="cls-40">
                  <g id="Group_1992" data-name="Group 1992">
                    <path id="Path_2012" data-name="Path 2012" d="M96.04,98.45h0c1.15-.71,2.24-1.51,3.25-2.41h-8.32l-5.09,5.68c.77-.21,6.67-1.8,8.77-2.6,.48-.19,.94-.41,1.38-.67"/>
                  </g>
                </g>
              </g>
            </g>
            <g id="Group_1997" data-name="Group 1997" class="cls-43">
              <g id="Group_1996" data-name="Group 1996">
                <g class="cls-32">
                  <g id="Group_1995" data-name="Group 1995">
                    <path id="Path_2013" data-name="Path 2013" d="M77.4,25.59l-.03,.04-3.52,4.25c.05-2.64,.35-5.26,.87-7.85,.05-.35,.12-.71,.21-1.05,.17-.79,.4-1.56,.68-2.31h0s.15-.41,.15-.41c.16-.4,.31-.79,.46-1.13,.01-.02,.02-.03,.02-.05,.13-.3,.27-.58,.38-.83,.1-.21,.2-.39,.29-.56,.11-.22,.22-.4,.29-.54,.1-.19,.17-.28,.17-.28v10.57l.03,.15Z"/>
                  </g>
                </g>
              </g>
            </g>
          </g>
        </g>
      </g>
    </g>
  </g>
</svg>