<svg id="Lingo" xmlns="http://www.w3.org/2000/svg" xmlns:xlink="http://www.w3.org/1999/xlink" viewBox="0 0 1920 994">
  <defs>
    <style>
      .cls-1, .cls-2 {
        fill: none;
      }

      .cls-3 {
        clip-path: url(#clippath);
      }

      .cls-4 {
        fill: #f9bba4;
      }

      .cls-5 {
        fill: #ef6a56;
      }

      .cls-6 {
        fill: #fff;
      }

      .cls-7 {
        fill: #e9a38e;
      }

      .cls-8 {
        fill: #ffc91d;
      }

      .cls-9 {
        fill: #bfc0c1;
      }

      .cls-10 {
        fill: #37424a;
      }

      .cls-11 {
        fill: #5359a6;
      }

      .cls-12 {
        fill: #4a436c;
      }

      .cls-13 {
        fill: #3bba96;
      }

      .cls-14 {
        fill: #567dbe;
      }

      .cls-15 {
        clip-path: url(#clippath-1);
      }

      .cls-16 {
        clip-path: url(#clippath-4);
      }

      .cls-17 {
        clip-path: url(#clippath-3);
      }

      .cls-18 {
        clip-path: url(#clippath-2);
      }

      .cls-19 {
        clip-path: url(#clippath-7);
      }

      .cls-20 {
        clip-path: url(#clippath-8);
      }

      .cls-21 {
        clip-path: url(#clippath-6);
      }

      .cls-22 {
        clip-path: url(#clippath-5);
      }

      .cls-23 {
        clip-path: url(#clippath-9);
      }

      .cls-24 {
        clip-path: url(#clippath-20);
      }

      .cls-25 {
        clip-path: url(#clippath-21);
      }

      .cls-26 {
        clip-path: url(#clippath-24);
      }

      .cls-27 {
        clip-path: url(#clippath-23);
      }

      .cls-28 {
        clip-path: url(#clippath-22);
      }

      .cls-29 {
        clip-path: url(#clippath-25);
      }

      .cls-30 {
        clip-path: url(#clippath-14);
      }

      .cls-31 {
        clip-path: url(#clippath-13);
      }

      .cls-32 {
        clip-path: url(#clippath-12);
      }

      .cls-33 {
        clip-path: url(#clippath-10);
      }

      .cls-34 {
        clip-path: url(#clippath-15);
      }

      .cls-35 {
        clip-path: url(#clippath-17);
      }

      .cls-36 {
        clip-path: url(#clippath-16);
      }

      .cls-37 {
        clip-path: url(#clippath-19);
      }

      .cls-38 {
        clip-path: url(#clippath-11);
      }

      .cls-39 {
        clip-path: url(#clippath-18);
      }

      .cls-40 {
        fill: #00c7b2;
        fill-rule: evenodd;
        opacity: .2;
      }

      .cls-41 {
        opacity: .2;
      }

      .cls-2 {
        stroke: #dbdbdb;
        stroke-linecap: round;
        stroke-linejoin: round;
        stroke-width: 2.33px;
      }
    </style>
    <clipPath id="clippath">
      <rect class="cls-1" x="1190.14" y="693.62" width="84.23" height="179.19"/>
    </clipPath>
    <clipPath id="clippath-1">
      <rect class="cls-1" x="936.73" y="693.62" width="160.79" height="179.04"/>
    </clipPath>
    <clipPath id="clippath-2">
      <rect class="cls-1" x="1143.37" y="432.26" width="33.26" height="20.84"/>
    </clipPath>
    <clipPath id="clippath-3">
      <rect class="cls-1" x="1211.95" y="601.39" width="35.68" height="24.61"/>
    </clipPath>
    <clipPath id="clippath-4">
      <rect class="cls-1" x="1101.11" y="596.05" width="89.03" height="35.6"/>
    </clipPath>
    <clipPath id="clippath-5">
      <rect class="cls-1" x="1107.06" y="498.31" width="31.26" height="85.07"/>
    </clipPath>
    <clipPath id="clippath-6">
      <rect class="cls-1" x="1266.07" y="859.78" width="18.49" height="12.67"/>
    </clipPath>
    <clipPath id="clippath-7">
      <rect class="cls-1" x="1233.16" y="631.65" width="51.87" height="139.84"/>
    </clipPath>
    <clipPath id="clippath-8">
      <rect class="cls-1" x="1190.14" y="626" width="54.28" height="5.65"/>
    </clipPath>
    <clipPath id="clippath-9">
      <rect class="cls-1" x="1190.13" y="631.65" width="59.52" height="41.56"/>
    </clipPath>
    <clipPath id="clippath-10">
      <rect class="cls-1" x="1230.44" y="859.78" width="18.49" height="12.67"/>
    </clipPath>
    <clipPath id="clippath-11">
      <rect class="cls-1" x="1002.8" y="303.28" width="37.18" height="29.07"/>
    </clipPath>
    <clipPath id="clippath-12">
      <rect class="cls-1" x="955.81" y="378.87" width="106.35" height="114.42"/>
    </clipPath>
    <clipPath id="clippath-13">
      <rect class="cls-1" x="966.09" y="361.83" width="55.31" height="31.72"/>
    </clipPath>
    <clipPath id="clippath-14">
      <rect class="cls-1" x="1019.7" y="546.26" width="10.6" height="162.46"/>
    </clipPath>
    <clipPath id="clippath-15">
      <rect class="cls-1" x="1002.8" y="348.76" width="8.34" height="6.87"/>
    </clipPath>
    <clipPath id="clippath-16">
      <rect class="cls-1" x="1061.68" y="490.5" width="38.88" height="40.83"/>
    </clipPath>
    <clipPath id="clippath-17">
      <rect class="cls-1" x="1038.29" y="859.41" width="19.34" height="12.99"/>
    </clipPath>
    <clipPath id="clippath-18">
      <rect class="cls-1" x="955.27" y="859.41" width="19.26" height="13.4"/>
    </clipPath>
    <clipPath id="clippath-19">
      <rect class="cls-1" x="1615.06" y="304.55" width="33.39" height="21.15"/>
    </clipPath>
    <clipPath id="clippath-20">
      <rect class="cls-1" x="1571.08" y="398.56" width="121.56" height="103.06"/>
    </clipPath>
    <clipPath id="clippath-21">
      <rect class="cls-1" x="1593.69" y="301.88" width="15.64" height="14.2"/>
    </clipPath>
    <clipPath id="clippath-22">
      <rect class="cls-1" x="1646.88" y="466.4" width="23.76" height="7.85"/>
    </clipPath>
    <clipPath id="clippath-23">
      <rect class="cls-1" x="1620.35" y="522.79" width="9.6" height="153.12"/>
    </clipPath>
    <clipPath id="clippath-24">
      <rect class="cls-1" x="1653.21" y="859.32" width="19.36" height="13.25"/>
    </clipPath>
    <clipPath id="clippath-25">
      <rect class="cls-1" x="1598.91" y="859.32" width="19.36" height="13.25"/>
    </clipPath>
  </defs>
  <g id="Group_797" data-name="Group 797">
    <path id="Path_1126" data-name="Path 1126" class="cls-40" d="M950.87,261.5c108.08,268.24,1.4,296.72-346.01,371.83-94.3,20.39-164.46,46.4-212.57,76.81-45.03,28.48-72.33,78.04-72.32,131.33h0c-.04,32.17,9.94,63.55,28.56,89.78,14.6,20.51,33.29,41.48,55.85,62.76H1920V0H945.92c-27.59,68.29-37.4,156.4,4.96,261.5"/>
  </g>
  <g id="Group_1557" data-name="Group 1557">
    <path id="Path_1699" data-name="Path 1699" class="cls-13" d="M945.98,693.62h380.68c4.85,0,8.78,3.93,8.78,8.78v170.26h-398.72v-169.79c0-5.11,4.14-9.25,9.25-9.25h0"/>
    <g id="Group_1481" data-name="Group 1481" class="cls-41">
      <g id="Group_1480" data-name="Group 1480">
        <g class="cls-3">
          <g id="Group_1479" data-name="Group 1479">
            <path id="Path_1700" data-name="Path 1700" d="M1214.39,693.62l-24.25,179.19,84.23-.36v-178.83h-59.98Z"/>
          </g>
        </g>
      </g>
    </g>
    <g id="Group_1484" data-name="Group 1484" class="cls-41">
      <g id="Group_1483" data-name="Group 1483">
        <g class="cls-15">
          <g id="Group_1482" data-name="Group 1482">
            <path id="Path_1701" data-name="Path 1701" d="M946.2,693.62h141.85c5.23,0,9.47,4.24,9.47,9.47h0v169.58h-160.79v-169.57c0-5.23,4.24-9.47,9.47-9.47"/>
          </g>
        </g>
      </g>
    </g>
    <path id="Path_1702" data-name="Path 1702" class="cls-6" d="M1084.68,131.51h718.43c4.23,0,7.65,3.43,7.65,7.65v422.79c0,4.23-3.42,7.65-7.65,7.65h-718.43c-4.23,0-7.65-3.43-7.65-7.65h0V139.17c0-4.23,3.43-7.65,7.65-7.65h0"/>
    <path id="Rectangle_913" data-name="Rectangle 913" class="cls-2" d="M1082.03,131.51h723.74c2.76,0,5,2.24,5,5v428.1c0,2.76-2.24,5-5,5h-723.74c-2.76,0-5-2.24-5-5V136.51c0-2.76,2.24-5,5-5Z"/>
    <path id="Path_1703" data-name="Path 1703" class="cls-8" d="M1189.25,483.27s9.21,11.05,14.03,23.28-10.63,13.41-10.63,13.41l-3.4-36.68Z"/>
    <path id="Path_1704" data-name="Path 1704" class="cls-4" d="M1211.95,601.39l35.68,15.62-2.8,8.99h-29.5l-3.38-24.61Z"/>
    <path id="Path_1705" data-name="Path 1705" class="cls-14" d="M1140.43,383.16c-2.26,7.45-10.12,11.67-17.58,9.43-.88-.26-1.73-.61-2.54-1.04h0c-6.88-3.66-9.5-12.19-5.86-19.07,3.16-5.96,10.09-8.85,16.55-6.89,1.81,.54,3.49,1.44,4.94,2.65,4.36,3.63,6.13,9.51,4.49,14.94"/>
    <path id="Path_1706" data-name="Path 1706" class="cls-4" d="M1195.55,388.77v34.39c.02,5.14-1.77,10.11-5.07,14.05,0,0-.27,.32-.73,.81-3.27,3.58-7.64,5.97-12.41,6.82-.09,.01-.17,.04-.24,.05-1.81,.22-3.54,.87-5.05,1.9h.07c-1.23,1.02-1.98,2.51-2.05,4.11v26.8l-26.69,.21v-45.2c-.18-.37-.34-.75-.48-1.14-.07-.17-.15-.38-.22-.57-.02,0-.06,.01-.1,.01h-2.39c-2.93,0-5.3-2.37-5.3-5.3v-10.01c0-2.93,2.38-5.31,5.31-5.32h.75v-21.64c0-12.18,9.87-22.05,22.04-22.05h10.5c12.18,0,22.06,9.88,22.06,22.06"/>
    <path id="Path_1707" data-name="Path 1707" class="cls-14" d="M1195.26,391.28c-3.54-2.49-6.26-5.96-7.84-9.99,0,0-3.71,20.66-35.99,23.04,0,0-.59,9.65-3.74,12.35-.48,.44-1.11,.69-1.76,.7-4.7,0-1.62-7.3-4.56-6.99h-1.18c-2.93,0-5.3,2.37-5.3,5.3v9.91c-.04,2.95,2.33,5.37,5.28,5.41h2.42s.07-.01,.1-.01c.07,.18,.15,.4,.22,.57,.14,.39,.3,.77,.48,1.14v4.62c-22.15-16.85-22.22-46.9-13.08-62.92,10.32-18.05,36.95-19.93,48.39-14.24,10.57,5.26,10.85,9.02,10.85,9.02,15.79,1.43,5.74,22.1,5.74,22.1"/>
    <g id="Group_1487" data-name="Group 1487" class="cls-41">
      <g id="Group_1486" data-name="Group 1486">
        <g class="cls-18">
          <g id="Group_1485" data-name="Group 1485">
            <path id="Path_1708" data-name="Path 1708" d="M1176.63,445.01c-1.68,.2-3.28,.81-4.66,1.78h-.01c-.63,.5-1.14,1.14-1.48,1.87-13.63,5.45-22.4,4.84-27.11,3.59v-19.99c5.07,5.36,13.33,10,20.91,12.33,4.03,1.12,8.26,1.26,12.36,.42"/>
          </g>
        </g>
      </g>
    </g>
    <g id="Group_1490" data-name="Group 1490" class="cls-41">
      <g id="Group_1489" data-name="Group 1489">
        <g class="cls-17">
          <g id="Group_1488" data-name="Group 1488">
            <path id="Path_1709" data-name="Path 1709" d="M1211.95,601.39l35.68,15.62-2.8,8.99h-29.5l-3.38-24.61Z"/>
          </g>
        </g>
      </g>
    </g>
    <path id="Path_1710" data-name="Path 1710" class="cls-8" d="M1175.8,476.49s12.25,1.31,17.81,12.93c9.13,19.12,25.89,142.23,25.89,142.23h-118.39l12.94-145.42,34.07-9.52,27.68-.22Z"/>
    <g id="Group_1493" data-name="Group 1493" class="cls-41">
      <g id="Group_1492" data-name="Group 1492">
        <g class="cls-16">
          <g id="Group_1491" data-name="Group 1491">
            <path id="Path_1711" data-name="Path 1711" d="M1141.41,609.08s13.54,9.38,48.73,18.4v4.17h-89.03l3.17-35.6,37.13,13.04Z"/>
          </g>
        </g>
      </g>
    </g>
    <g id="Group_1496" data-name="Group 1496" class="cls-41">
      <g id="Group_1495" data-name="Group 1495">
        <g class="cls-22">
          <g id="Group_1494" data-name="Group 1494">
            <path id="Path_1712" data-name="Path 1712" d="M1138.31,498.31s-11.35,39.83-11.35,59.08,8.48,25.99,8.48,25.99l-18.11-4.04s-11.13-16.55-10.23-16.85c.9-.3,17.77-54.75,17.77-54.75l13.43-9.44Z"/>
          </g>
        </g>
      </g>
    </g>
    <path id="Path_1713" data-name="Path 1713" class="cls-5" d="M1284.56,859.8l25.71,11.42c.33,.14,.48,.52,.34,.84-.1,.24-.34,.39-.6,.39h-43.94l2.77-12.65h15.72Z"/>
    <path id="Path_1714" data-name="Path 1714" class="cls-12" d="M1288.35,647.51v46.12h-.14l-3.65,166.17h-15.78s-18.75-166.17-18.75-166.17h-77.79c-21.6,0-39.1-17.53-39.09-39.13,0-2.38,.22-4.76,.65-7.11l2.94-15.74h135.76c4.9,0,9.53,2.27,12.52,6.16h.02c2.15,2.78,3.31,6.19,3.3,9.7"/>
    <g id="Group_1499" data-name="Group 1499" class="cls-41">
      <g id="Group_1498" data-name="Group 1498">
        <g class="cls-21">
          <g id="Group_1497" data-name="Group 1497">
            <path id="Path_1715" data-name="Path 1715" d="M1284.56,859.8l-18.49,12.65,2.72-12.67h15.77Z"/>
          </g>
        </g>
      </g>
    </g>
    <path id="Path_1716" data-name="Path 1716" class="cls-14" d="M1206.56,626h98.73c.46,0,.84,.37,.84,.84v4.82h-99.56v-5.65h0Z"/>
    <g id="Group_1502" data-name="Group 1502" class="cls-41">
      <g id="Group_1501" data-name="Group 1501">
        <g class="cls-19">
          <g id="Group_1500" data-name="Group 1500">
            <path id="Path_1717" data-name="Path 1717" d="M1285.03,637.81c-2.98-3.89-7.61-6.17-12.52-6.16h-39.35l16.24,32.54,3.3-2.45-.61,50.17,6.72,59.58,.28-114.48,25.94-19.2Z"/>
          </g>
        </g>
      </g>
    </g>
    <path id="Path_1718" data-name="Path 1718" class="cls-14" d="M1191.02,626h52.51c.49,0,.88,.39,.88,.88v4.77h-54.28v-4.77c0-.49,.39-.88,.88-.88"/>
    <path id="Path_1719" data-name="Path 1719" class="cls-4" d="M1195.21,622.02c3.76,2.4,8.1,3.73,12.55,3.87h28.24s-2.4-7.32-7.95-10.77-27.2-4.08-27.2-4.08l-5.65,10.98Z"/>
    <path id="Path_1720" data-name="Path 1720" class="cls-14" d="M1312.86,583.38h-55.23c-1.16,0-2.16,.8-2.45,1.92l-10.76,40.71h60.49l10.4-39.36c.38-1.37-.42-2.79-1.79-3.17-.22-.06-.44-.09-.66-.09"/>
    <path id="Path_1721" data-name="Path 1721" class="cls-8" d="M1148.11,476.7s-6.16,12.49-15.38,34.85c-1.18,2.87-2.31,5.61-3.37,8.23-17.47,1.49-27.7-7.34-27.7-7.34,2.3-6.96,5-13.78,8.06-20.43,8.36-16.97,38.39-15.31,38.39-15.31"/>
    <path id="Path_1722" data-name="Path 1722" class="cls-4" d="M1200.86,611.02l-5.8,11.43s-45.68-9.19-77.28-21.25c-31.63-12.08-39.38-13.81-34.49-29.89,2.48-8.16,7.1-24.07,12.13-39.98,1.85-5.87,3.78-11.75,5.66-17.23l.58-1.66s10.23,8.83,27.7,7.34c-13.17,32.35-17.28,46.11-12.44,51.53,12.06,13.51,83.95,39.71,83.95,39.71"/>
    <path id="Path_1723" data-name="Path 1723" class="cls-4" d="M1143.37,476.66s8.04,10.43,21.84,10.23,4.85-10.23,4.85-10.23h-26.69Z"/>
    <g id="Group_1505" data-name="Group 1505" class="cls-41">
      <g id="Group_1504" data-name="Group 1504">
        <g class="cls-20">
          <g id="Group_1503" data-name="Group 1503">
            <path id="Path_1724" data-name="Path 1724" d="M1191.02,626h52.51c.49,0,.88,.39,.88,.88v4.77h-54.28v-4.77c0-.49,.39-.88,.88-.88"/>
          </g>
        </g>
      </g>
    </g>
    <path id="Path_1725" data-name="Path 1725" class="cls-5" d="M1248.93,859.8l25.71,11.42c.33,.14,.48,.52,.34,.84-.1,.24-.34,.39-.6,.39h-43.94l2.77-12.65h15.72Z"/>
    <path id="Path_1726" data-name="Path 1726" class="cls-12" d="M1252.73,647.51v46.12h-.14l-3.66,166.17h-15.79s-18.75-166.17-18.75-166.17h-77.76c-21.59,0-39.1-17.51-39.09-39.11,0-2.39,.22-4.78,.66-7.13l2.91-15.74h135.76c5.06,0,9.81,2.41,12.78,6.5,2.01,2.71,3.09,5.99,3.08,9.36"/>
    <g id="Group_1508" data-name="Group 1508" class="cls-41">
      <g id="Group_1507" data-name="Group 1507">
        <g class="cls-23">
          <g id="Group_1506" data-name="Group 1506">
            <path id="Path_1727" data-name="Path 1727" d="M1249.65,638.15l-59.52,35.07v-41.57h46.74c5.06,0,9.81,2.41,12.78,6.5"/>
          </g>
        </g>
      </g>
    </g>
    <g id="Group_1511" data-name="Group 1511" class="cls-41">
      <g id="Group_1510" data-name="Group 1510">
        <g class="cls-33">
          <g id="Group_1509" data-name="Group 1509">
            <path id="Path_1728" data-name="Path 1728" d="M1248.92,859.8l-18.49,12.65,2.72-12.67h15.77Z"/>
          </g>
        </g>
      </g>
    </g>
    <path id="Path_1729" data-name="Path 1729" class="cls-5" d="M1101.08,514.1c-1.88,5.49-3.81,11.36-5.65,17.23l-34.42-30.35v-33.77l40.07,46.88Z"/>
    <path id="Path_1730" data-name="Path 1730" class="cls-4" d="M994.41,288.36v8.75c-.03,1.43,.5,2.82,1.48,3.86,1.38,1.46,3.1,2.66,6.91,2.3,.3-.03,0,52.35,0,52.35,0,0,9.28,6.19,19.34,6.19,8.22,0,10.03-6.41,10.03-6.41,0,0-.09-17.76,0-23.35v.3c.12-5.22-.56-8.81,7.33-12.06,.06,0,.13-.03,.19-.05,.15-.05,.28-.11,.43-.16,.02-.02,.04-.03,.06-.03,3.27-1.23,6.29-3.04,8.92-5.33,.51-.43,1-.88,1.46-1.37l-.06-.03c4.31-4.28,6.77-10.09,6.83-16.16v-34.09c0-1.7-.2-3.4-.58-5.06-2.32,6.98-14.2-6.73-15.58-5.55-.05,.07-.09,.16-.12,.24-.43,2.64-8.02,4.99-15.21,1.43-7.13-3.53-10.93,.4-10.59,2.24,.28,1.86-6.27,8.3-3.4,13.82,2.91,5.49-5.57,3.53-1.41,10.48,4.19,6.98-2.35,19.04-2.35,10.4s-6.61-8.94-6.61-8.94c-3.88,0-7.07,2.8-7.07,6.24"/>
    <g id="Group_1514" data-name="Group 1514" class="cls-41">
      <g id="Group_1513" data-name="Group 1513">
        <g class="cls-38">
          <g id="Group_1512" data-name="Group 1512">
            <path id="Path_1731" data-name="Path 1731" d="M1002.8,303.28c8.79,21.9,22,27.62,29.36,29.07v-.3c.12-5.13-.55-8.65,7.2-11.85,.06,0,.13-.03,.18-.05,.15-.05,.27-.11,.43-.16-19.85,6.15-36.23-15.53-37.18-16.71"/>
          </g>
        </g>
      </g>
    </g>
    <path id="Path_1732" data-name="Path 1732" class="cls-6" d="M1052.01,295l-25.71-.2s-1.95,16.14,15.65,15.12c10.82-.63,10.06-14.92,10.06-14.92"/>
    <path id="Path_1733" data-name="Path 1733" class="cls-12" d="M983.05,265.4c-6.72-8.08,5.57-12.39,6.47-22.43,.9-10,18.09-2.74,19.87-9.03s9.83-6.29,14.76-3.93c4.9,2.36,13.4,3.71,22.77,1.38,9.4-2.39,13.87,5.47,13.4,10.19-.43,4.72,9.15,4.94,6.94,10.85-2.22,5.94-10.72,5.6-10.72,5.6-2.39,7.27-15.19-7.93-15.65-5.29-.43,2.64-8.01,4.97-15.15,1.42-7.11-3.52-10.9,.41-10.58,2.24,.29,1.86-6.26,8.27-3.4,13.77,2.9,5.5-5.54,3.52-1.4,10.47,4.18,6.95-2.36,19-2.36,10.35s-6.58-8.9-6.58-8.9c-3.9,0-7.08,2.8-7.01,6.23v8.78c-.07,3.43,3.11,6.23,7.01,6.23,.29,0,.57-.03,1.38-.06,0,0,1.94,3.65,.97,5.88s.76,4.57-.97,5.19c-.14,.04-.28,.06-.42,.06-8.06,1.26-6.52-5.23-13.54-7.73-7.15-2.55-2.68-11.2-7.79-19.66-5.11-8.43,8.68-13.56,2-21.62"/>
    <path id="Path_1734" data-name="Path 1734" class="cls-5" d="M1062.16,456.2c-.02,13.02-.12,26.04-.22,37.09-.12,17.16-.27,29.51-.27,29.51h-109.7s-1.2-46.93,0-66.02c.7-11,1.49-34.37,3.83-53.91v-.02c1.15-9.51,2.67-18.12,4.69-23.97,.69-2.39,1.89-4.61,3.51-6.5,.65-.64,1.34-1.24,2.07-1.8,4.35-3.49,10.49-6.43,16.49-8.74,6.6-2.53,13.36-4.61,20.24-6.21l29.36-.22c33.36,7.7,28.3,16.37,29.51,39.23,.53,9.98,.6,35.74,.48,61.56"/>
    <g id="Group_1517" data-name="Group 1517" class="cls-41">
      <g id="Group_1516" data-name="Group 1516">
        <g class="cls-32">
          <g id="Group_1515" data-name="Group 1515">
            <path id="Path_1735" data-name="Path 1735" d="M1062.16,456.2c-.02,13.02-.12,26.04-.22,37.09-10.16-.92-50.47-19.37-73.79-40.19-17.57-15.69-28.85-34.09-32.35-50.23v-.02c1.15-9.51,2.67-18.12,4.69-23.97,.53,2.48,5.29,10.83,33.91,38.05,37.83,35.96,66.3,39.13,67.75,39.28"/>
          </g>
        </g>
      </g>
    </g>
    <g id="Group_1520" data-name="Group 1520" class="cls-41">
      <g id="Group_1519" data-name="Group 1519">
        <g class="cls-31">
          <g id="Group_1518" data-name="Group 1518">
            <path id="Path_1736" data-name="Path 1736" d="M1021.39,393.55l-54.59-20.77-.72-2.21c4.35-3.49,10.49-6.43,16.49-8.74l38.82,31.72Z"/>
          </g>
        </g>
      </g>
    </g>
    <path id="Path_1737" data-name="Path 1737" class="cls-5" d="M982.69,369.06s38.63,26.35,65.75,39.04c27.11,12.69,30.19,5.73,43.96-3.51s55.18-41.99,55.18-41.99l4.55,12.32s-57.69,72.61-84.79,71.64c-37.65-1.35-99.82-47.65-99.82-47.65,0,0-14.35-9.96-5.12-24.49s20.29-5.36,20.29-5.36"/>
    <path id="Path_1738" data-name="Path 1738" class="cls-4" d="M1147.58,362.6s16.35-15.37,22.03-17.32,32.31-5.2,34.38-5.47-1.07,6.6-10.54,7.64c-5.61,.61-11.16,1.75-16.55,3.42,0,0,3.5,14.49-1.08,21.01s-23.69,3.05-23.69,3.05l-4.56-12.32Z"/>
    <path id="Path_1739" data-name="Path 1739" class="cls-11" d="M1061.68,522.79l-3.78,336.57c0,.06-.02,.11-.06,.15-.04,.04-.1,.06-.15,.06l-16.37-.16c-.11,0-.2-.08-.21-.19l-40.2-337.23,60.77,.8Z"/>
    <path id="Path_1740" data-name="Path 1740" class="cls-5" d="M1057.63,859.43l25.95,11.54c.45,.19,.66,.71,.46,1.16-.14,.33-.47,.54-.82,.54h-44.73c-.12,0-.21-.09-.22-.21,0-.02,0-.03,0-.05l2.81-12.82c.02-.1,.11-.17,.21-.17h16.24s.06,0,.09,.02"/>
    <g id="Group_1523" data-name="Group 1523" class="cls-41">
      <g id="Group_1522" data-name="Group 1522">
        <g class="cls-30">
          <g id="Group_1521" data-name="Group 1521">
            <path id="Path_1741" data-name="Path 1741" d="M1028.6,546.26s6.3,125.15-5.43,162.46l-3.47-29.13v-76.56l8.91-56.76Z"/>
          </g>
        </g>
      </g>
    </g>
    <path id="Path_1742" data-name="Path 1742" class="cls-5" d="M1032.05,359.28h-29.18v-17.45h30.98l-1.8,17.45Z"/>
    <g id="Group_1526" data-name="Group 1526" class="cls-41">
      <g id="Group_1525" data-name="Group 1525">
        <g class="cls-34">
          <g id="Group_1524" data-name="Group 1524">
            <path id="Path_1743" data-name="Path 1743" d="M1002.8,355.63l8.34-.23-8.34-6.65v6.87Z"/>
          </g>
        </g>
      </g>
    </g>
    <g id="Group_1529" data-name="Group 1529" class="cls-41">
      <g id="Group_1528" data-name="Group 1528">
        <g class="cls-36">
          <g id="Group_1527" data-name="Group 1527">
            <path id="Path_1744" data-name="Path 1744" d="M1100.56,515.69l-38.88-25.19v11.08l33.74,29.75,5.14-15.64Z"/>
          </g>
        </g>
      </g>
    </g>
    <path id="Path_1745" data-name="Path 1745" class="cls-11" d="M951.97,522.79c-.73,53.55,17.44,98.01,18.89,139.33,1.76,50.39-11.91,191.47-12.56,197.29-.01,.13,.36,.16,.49,.16l15.64-.16c.09,0,.17-.05,.2-.13,1.52-4.49,42.01-145.04,47.35-195.56,4.41-41.73,6.63-141.37,6.63-141.37,0,0-57.2,.44-76.63,.44"/>
    <path id="Path_1746" data-name="Path 1746" class="cls-5" d="M974.62,859.43l25.96,11.54c.45,.19,.66,.71,.46,1.16-.14,.33-.47,.54-.82,.54h-44.73c-.12,0-.21-.1-.21-.22,0-.02,0-.03,0-.04l2.81-12.82c.02-.1,.11-.17,.21-.17h16.24s.06,0,.09,.02"/>
    <g id="Group_1532" data-name="Group 1532" class="cls-41">
      <g id="Group_1531" data-name="Group 1531">
        <g class="cls-35">
          <g id="Group_1530" data-name="Group 1530">
            <path id="Path_1747" data-name="Path 1747" d="M1057.63,859.43l-19.34,12.97,3.02-12.99,16.32,.02Z"/>
          </g>
        </g>
      </g>
    </g>
    <g id="Group_1535" data-name="Group 1535" class="cls-41">
      <g id="Group_1534" data-name="Group 1534">
        <g class="cls-39">
          <g id="Group_1533" data-name="Group 1533">
            <path id="Path_1748" data-name="Path 1748" d="M974.54,859.41l-19.26,13.4,2.81-13.23,16.45-.17Z"/>
          </g>
        </g>
      </g>
    </g>
    <path id="Path_1749" data-name="Path 1749" class="cls-13" d="M1622.97,262.26h-26.41v79.24h17.39c4.98,0,9.02-4.04,9.02-9.02v-70.22Z"/>
    <path id="Path_1750" data-name="Path 1750" class="cls-4" d="M1592.39,256.94v37c0,2.78,.49,5.53,1.45,8.13,.94,2.51,2.29,4.84,3.99,6.91,0,0,.28,.35,.79,.88,3.5,3.83,8.17,6.4,13.28,7.3,.08,.03,.18,.04,.26,.07,.01,0,.03,0,.04,.01,.97,.19,1.93,.45,2.86,.79,1.64,.58,3,1.22,3,1.22,1.15,.93,1.89,2.28,2.06,3.75,.03,.18,.05,.36,.07,.54v34.72s2.78,.17,11.57,.09c9.95-.09,16.24,.12,16.24,.12v-54.09c.21-.39,.39-.8,.54-1.22,.1-.2,.17-.43,.27-.61,.03,0,.07,.01,.11,.01h2.78c3.27,.05,5.97-2.55,6.03-5.82v-10.59c-.06-3.27-2.75-5.88-6.03-5.82h0s-.92,0-.92,0v-23.4c.03-13.16-10.62-23.84-23.77-23.87h-.01s-10.81,0-10.81,0c-13.16,.02-23.81,10.71-23.79,23.86h0"/>
    <g id="Group_1538" data-name="Group 1538" class="cls-41">
      <g id="Group_1537" data-name="Group 1537">
        <g class="cls-37">
          <g id="Group_1536" data-name="Group 1536">
            <path id="Path_1751" data-name="Path 1751" d="M1615.06,318.03c1.64,.58,3,1.22,3,1.22,1.15,.93,1.89,2.28,2.06,3.75,12.15,5.48,27.06,.88,27.06,.88l.81-12.33,.46-7.01c-.15,.15-.31,.31-.46,.46-14.36,14.51-27.34,14.12-32.93,13.03"/>
          </g>
        </g>
      </g>
    </g>
    <path id="Path_1752" data-name="Path 1752" class="cls-13" d="M1591.67,262.4s16.59,14.31,46.58,17.74v62.75h3.43c12.45,0,22.55-10.09,22.55-22.55,0,0,3.7-39.16,1.96-54.92-1.62-14.95-11.05-31.55-29.19-33.75h-20.09c-25.24,1.12-34.41,21.61-25.24,30.72"/>
    <path id="Path_1753" data-name="Path 1753" class="cls-8" d="M1570.14,522.79h123.61l-1.11-21.18v-.12l-4.86-93.6-.39-7.2-1.13-21.71-3.44-1.57c1.35-2.35,3.18-4.38,5.37-5.97-.78-1.89-1.79-3.67-3.01-5.3-1.15-1-2.42-1.86-3.78-2.55-1.25-.46-2.53-.89-3.81-1.27-9.65-2.9-19.57-4.82-29.6-5.75,0,0-9.97-.51-21.59-.24-2.05,.05-4.14,.14-6.23,.24-3.52,.17-7.06,.43-10.4,.77-8.64,.84-16,2.07-18.46,2.89-.1,.02-.2,.06-.29,.1-3.63,1.17-7.17,2.61-10.59,4.31,0,0-4.86,31.92-7.92,83.54-.07,1.61-.17,3.27-.26,4.93,20.6,4.52,40.89,7.7,57.62,9.84,6.19,.79,11.91,1.44,16.97,1.97,6.35,.67,11.67,1.16,15.67,1.47,5.18,.43,8.11,.6,8.11,.6l-.24,11.19c-20.82,.14-72.39,5.15-99.23,.53-.02-.01-.05-.02-.07-.02-.5,13.74-.83,28.5-.93,44.09"/>
    <g id="Group_1541" data-name="Group 1541" class="cls-41">
      <g id="Group_1540" data-name="Group 1540">
        <g class="cls-24">
          <g id="Group_1539" data-name="Group 1539">
            <path id="Path_1754" data-name="Path 1754" d="M1571.08,478.7s.05,.01,.07,.02c1.64,.46,32.77,10.53,75.72,11.43,35.44,.75,45.77,11.46,45.77,11.46v-.12l-4.86-93.6-.39-7.2-10.08-2.14-30.47,66.38-3.49,7.63-72.28,6.14Z"/>
          </g>
        </g>
      </g>
    </g>
    <path id="Path_1755" data-name="Path 1755" class="cls-4" d="M1670.38,478.2c3.11,2.74,7.06,4.36,11.2,4.59,6.67,.24,5.76,5.24,11.2,8.41,4.69,2.74,9.29,2,6.19-5.23s-11.2-17.75-28.58-19.25v11.47Z"/>
    <path id="Path_1756" data-name="Path 1756" class="cls-7" d="M1594.26,310.31c.91,4.62,3.18,10.08,8.59,13.55h13.26s8.54-6.14,11.29-8.23c2.74-2.12-2.65-2.99-8.54-.7-3.02,1.22-6.31,1.61-9.53,1.13-1.29-.16-2.55-.54-3.71-1.13-2.07-1.16-7.99-3.92-11.82-13.04-.25,2.82-.09,5.65,.46,8.42"/>
    <path id="Path_1757" data-name="Path 1757" class="cls-4" d="M1648,356.58s-20.62,15.65-27.82,0,27.82,0,27.82,0"/>
    <path id="Path_1758" data-name="Path 1758" class="cls-5" d="M1570.15,522.79l28.75,336.53h16.46l20.6-336.53h-65.81Z"/>
    <path id="Path_1759" data-name="Path 1759" class="cls-13" d="M1598.91,859.32l-26.92,11.96c-.34,.15-.5,.54-.35,.88,.11,.25,.35,.41,.62,.41h46.01l-2.9-13.25h-16.45Z"/>
    <path id="Path_1760" data-name="Path 1760" class="cls-5" d="M1620.35,522.79l32.86,336.53h16.46l24.34-336.53h-73.65Z"/>
    <path id="Path_1761" data-name="Path 1761" class="cls-13" d="M1653.21,859.32l-26.92,11.96c-.34,.15-.49,.55-.33,.89,.11,.24,.34,.39,.61,.39h46l-2.9-13.25h-16.45Z"/>
    <g id="Group_1544" data-name="Group 1544" class="cls-41">
      <g id="Group_1543" data-name="Group 1543">
        <g class="cls-25">
          <g id="Group_1542" data-name="Group 1542">
            <path id="Path_1762" data-name="Path 1762" d="M1594.26,310.31c5.27,6.47,15.07,5.75,15.07,5.75-1.29-.16-2.55-.54-3.71-1.13-2.07-1.16-7.99-3.92-11.82-13.04-.25,2.82-.09,5.65,.46,8.42"/>
          </g>
        </g>
      </g>
    </g>
    <path id="Path_1763" data-name="Path 1763" class="cls-14" d="M1670.63,467.01l-.25,11.2c-20.84,.14-72.48,5.14-99.29,.5-10.33-1.81-16.92-4.52-16.58-8.67,1.2-14.87,11.43-94.66,21.66-102.48,3.9-2.96,9.48-5.39,14.87-7.22-3.67,1.36-7.24,2.97-10.68,4.82,0,0-4.76,31.41-7.82,83.03,0,0-.56,4.88,.35,5.07,32.22,6.88,64.88,11.48,97.75,13.75"/>
    <g id="Group_1547" data-name="Group 1547" class="cls-41">
      <g id="Group_1546" data-name="Group 1546">
        <g class="cls-28">
          <g id="Group_1545" data-name="Group 1545">
            <path id="Path_1764" data-name="Path 1764" d="M1646.88,473.22s10.46,4.79,23.76-6.21l-8.12-.6-15.64,6.81Z"/>
          </g>
        </g>
      </g>
    </g>
    <path id="Path_1765" data-name="Path 1765" class="cls-14" d="M1602.86,323.84s1.7,15.28,2.81,33.6c1.9,30.76,9.41,74.24,14.05,86.97,2.3,6.72,5.74,12.99,10.16,18.56,10.13,12.23,22.84,13.86,32.64,3.44,2.84-3.13,5.17-6.69,6.91-10.54,8.62-18.27,14.89-34.32,18.37-47.96,3.88-15.28,4.26-27.53,.41-36.44-.78-1.89-1.79-3.67-3.01-5.3-1.15-1-2.42-1.86-3.78-2.55-1.19-.63-2.48-1.06-3.81-1.27-6.62-1.13-13.84,3.71-17.74,22.07-5.63,26.48-9.19,51.22-14.17,47.12-6.11-5.03-18.26-45.57-23.39-75.1-3.06-17.5-6.18-32.59-6.18-32.59h-13.26Z"/>
    <g id="Group_1550" data-name="Group 1550" class="cls-41">
      <g id="Group_1549" data-name="Group 1549">
        <g class="cls-27">
          <g id="Group_1548" data-name="Group 1548">
            <path id="Path_1766" data-name="Path 1766" d="M1620.35,522.79l6.24,153.12,3.36-54.86-9.6-98.27Z"/>
          </g>
        </g>
      </g>
    </g>
    <g id="Group_1553" data-name="Group 1553" class="cls-41">
      <g id="Group_1552" data-name="Group 1552">
        <g class="cls-26">
          <g id="Group_1551" data-name="Group 1551">
            <path id="Path_1767" data-name="Path 1767" d="M1653.21,859.32l19.36,13.25-2.9-13.25h-16.46Z"/>
          </g>
        </g>
      </g>
    </g>
    <g id="Group_1556" data-name="Group 1556" class="cls-41">
      <g id="Group_1555" data-name="Group 1555">
        <g class="cls-29">
          <g id="Group_1554" data-name="Group 1554">
            <path id="Path_1768" data-name="Path 1768" d="M1615.36,859.32l2.9,13.25-19.36-13.25h16.46Z"/>
          </g>
        </g>
      </g>
    </g>
    <path id="Path_1769" data-name="Path 1769" class="cls-12" d="M715.91,872.57H1862.65c.5,0,.91,.41,.91,.91v2.44c0,.5-.41,.91-.91,.91H715.91c-.5,0-.91-.41-.91-.91v-2.44c0-.5,.41-.91,.91-.91"/>
    <path id="Path_1770" data-name="Path 1770" class="cls-9" d="M1117.96,152.11c4.93,0,8.92,3.99,8.92,8.92s-3.99,8.92-8.92,8.92c-4.93,0-8.92-3.99-8.92-8.92,0-4.93,4-8.92,8.92-8.92"/>
    <path id="Path_1771" data-name="Path 1771" class="cls-9" d="M1157.47,152.11c4.93,0,8.92,3.99,8.92,8.92s-3.99,8.92-8.92,8.92c-4.93,0-8.92-3.99-8.92-8.92,0-4.93,4-8.92,8.92-8.92"/>
    <path id="Path_1772" data-name="Path 1772" class="cls-9" d="M1196.98,152.11c4.93,0,8.92,3.99,8.92,8.92s-3.99,8.92-8.92,8.92c-4.93,0-8.92-3.99-8.92-8.92,0-4.93,4-8.92,8.92-8.92"/>
    <path id="Path_1773" data-name="Path 1773" class="cls-10" d="M1689.61,152.11h88.57c2.29,0,4.15,1.86,4.15,4.15h0v9.54c0,2.29-1.86,4.15-4.15,4.15h-88.57c-2.29,0-4.15-1.86-4.15-4.15v-9.54c0-2.29,1.86-4.15,4.15-4.15h0"/>
  </g>
</svg>