<svg id="Navigate" xmlns="http://www.w3.org/2000/svg" xmlns:xlink="http://www.w3.org/1999/xlink" viewBox="0 0 1920 994">
  <defs>
    <style>
      .cls-1, .cls-2 {
        fill: none;
      }

      .cls-3 {
        clip-path: url(#clippath);
      }

      .cls-4 {
        fill: #f9bba4;
      }

      .cls-5 {
        fill: #ef6a56;
      }

      .cls-6 {
        fill: #fff;
      }

      .cls-7 {
        fill: #ffc91d;
      }

      .cls-8 {
        fill: #d9e4f4;
      }

      .cls-9 {
        fill: #5359a6;
      }

      .cls-10 {
        fill: #4a436c;
      }

      .cls-11 {
        fill: #3bba96;
      }

      .cls-12 {
        fill: #567dbe;
      }

      .cls-13 {
        fill: #524fa0;
      }

      .cls-14 {
        clip-path: url(#clippath-1);
      }

      .cls-15 {
        clip-path: url(#clippath-4);
      }

      .cls-16 {
        clip-path: url(#clippath-3);
      }

      .cls-17 {
        clip-path: url(#clippath-2);
      }

      .cls-18 {
        clip-path: url(#clippath-7);
      }

      .cls-19 {
        clip-path: url(#clippath-8);
      }

      .cls-20 {
        clip-path: url(#clippath-6);
      }

      .cls-21 {
        clip-path: url(#clippath-5);
      }

      .cls-22 {
        clip-path: url(#clippath-9);
      }

      .cls-23 {
        clip-path: url(#clippath-20);
      }

      .cls-24 {
        clip-path: url(#clippath-21);
      }

      .cls-25 {
        clip-path: url(#clippath-24);
      }

      .cls-26 {
        clip-path: url(#clippath-23);
      }

      .cls-27 {
        clip-path: url(#clippath-22);
      }

      .cls-28 {
        clip-path: url(#clippath-25);
      }

      .cls-29 {
        clip-path: url(#clippath-27);
      }

      .cls-30 {
        clip-path: url(#clippath-28);
      }

      .cls-31 {
        clip-path: url(#clippath-26);
      }

      .cls-32 {
        clip-path: url(#clippath-29);
      }

      .cls-33 {
        clip-path: url(#clippath-34);
      }

      .cls-34 {
        clip-path: url(#clippath-35);
      }

      .cls-35 {
        clip-path: url(#clippath-36);
      }

      .cls-36 {
        clip-path: url(#clippath-37);
      }

      .cls-37 {
        clip-path: url(#clippath-33);
      }

      .cls-38 {
        clip-path: url(#clippath-32);
      }

      .cls-39 {
        clip-path: url(#clippath-30);
      }

      .cls-40 {
        clip-path: url(#clippath-38);
      }

      .cls-41 {
        clip-path: url(#clippath-31);
      }

      .cls-42 {
        clip-path: url(#clippath-14);
      }

      .cls-43 {
        clip-path: url(#clippath-13);
      }

      .cls-44 {
        clip-path: url(#clippath-12);
      }

      .cls-45 {
        clip-path: url(#clippath-10);
      }

      .cls-46 {
        clip-path: url(#clippath-15);
      }

      .cls-47 {
        clip-path: url(#clippath-17);
      }

      .cls-48 {
        clip-path: url(#clippath-16);
      }

      .cls-49 {
        clip-path: url(#clippath-19);
      }

      .cls-50 {
        clip-path: url(#clippath-11);
      }

      .cls-51 {
        clip-path: url(#clippath-18);
      }

      .cls-52 {
        fill: #0098db;
        fill-rule: evenodd;
        opacity: .2;
      }

      .cls-53 {
        opacity: .2;
      }

      .cls-54 {
        opacity: .5;
      }

      .cls-2 {
        stroke: #020202;
      }
    </style>
    <clipPath id="clippath">
      <rect class="cls-1" x="1109.45" y="568.83" width="12.65" height="81.29"/>
    </clipPath>
    <clipPath id="clippath-1">
      <rect class="cls-1" x="893.86" y="568.83" width="12.56" height="81.29"/>
    </clipPath>
    <clipPath id="clippath-2">
      <rect class="cls-1" x="1587.49" y="568.83" width="12.81" height="81.4"/>
    </clipPath>
    <clipPath id="clippath-3">
      <rect class="cls-1" x="1377.9" y="568.83" width="12.65" height="81.29"/>
    </clipPath>
    <clipPath id="clippath-4">
      <rect class="cls-1" x="980.54" y="470.52" width="33.82" height="34.16"/>
    </clipPath>
    <clipPath id="clippath-5">
      <rect class="cls-1" x="963.27" y="504.68" width="90.94" height="51.24"/>
    </clipPath>
    <clipPath id="clippath-6">
      <rect class="cls-1" x="977.98" y="364.31" width="31.13" height="115.41"/>
    </clipPath>
    <clipPath id="clippath-7">
      <rect class="cls-1" x="884.37" y="387.45" width="76.27" height="118.2"/>
    </clipPath>
    <clipPath id="clippath-8">
      <rect class="cls-1" x="943.36" y="260.59" width="43.42" height="15.78"/>
    </clipPath>
    <clipPath id="clippath-9">
      <rect class="cls-1" x="929.8" y="300.61" width="34.29" height="34.66"/>
    </clipPath>
    <clipPath id="clippath-10">
      <rect class="cls-1" x="999.72" y="516.54" width="27.45" height="29.06"/>
    </clipPath>
    <clipPath id="clippath-11">
      <rect class="cls-1" x="931.36" y="350.01" width="32.72" height="48.18"/>
    </clipPath>
    <clipPath id="clippath-12">
      <rect class="cls-1" x="996.06" y="457.62" width="11.97" height="16.89"/>
    </clipPath>
    <clipPath id="clippath-13">
      <rect class="cls-1" x="1049.86" y="736.98" width="28.08" height="11.7"/>
    </clipPath>
    <clipPath id="clippath-14">
      <rect class="cls-1" x="923.19" y="856.12" width="23.43" height="15.56"/>
    </clipPath>
    <clipPath id="clippath-15">
      <rect class="cls-1" x="1701.59" y="705.94" width="57.4" height="15.11"/>
    </clipPath>
    <clipPath id="clippath-16">
      <rect class="cls-1" x="1647.36" y="424.34" width="13.14" height="17.73"/>
    </clipPath>
    <clipPath id="clippath-17">
      <rect class="cls-1" x="1774.98" y="314.96" width="52.62" height="55.79"/>
    </clipPath>
    <clipPath id="clippath-18">
      <rect class="cls-1" x="1703.71" y="248.02" width="20.4" height="28.38"/>
    </clipPath>
    <clipPath id="clippath-19">
      <rect class="cls-1" x="1709.54" y="550.74" width="45.89" height="165.38"/>
    </clipPath>
    <clipPath id="clippath-20">
      <rect class="cls-1" x="1689.4" y="481.46" width="127.59" height="101.86"/>
    </clipPath>
    <clipPath id="clippath-21">
      <rect class="cls-1" x="1774.98" y="238.73" width="31.47" height="29.09"/>
    </clipPath>
    <clipPath id="clippath-22">
      <rect class="cls-1" x="1759.39" y="347.66" width="91.48" height="75.3"/>
    </clipPath>
    <clipPath id="clippath-23">
      <rect class="cls-1" x="1666.76" y="420.28" width="74.02" height="19.72"/>
    </clipPath>
    <clipPath id="clippath-24">
      <rect class="cls-1" x="1718.95" y="534.06" width="16.89" height="28.12"/>
    </clipPath>
    <clipPath id="clippath-25">
      <rect class="cls-1" x="1773.76" y="534.06" width="12.6" height="38.32"/>
    </clipPath>
    <clipPath id="clippath-26">
      <rect class="cls-1" x="1826.84" y="534.06" width="22.31" height="49.83"/>
    </clipPath>
    <clipPath id="clippath-27">
      <rect class="cls-1" x="1378.26" y="637.11" width="40.24" height="219.01"/>
    </clipPath>
    <clipPath id="clippath-28">
      <rect class="cls-1" x="1394.03" y="856.13" width="23.47" height="15.55"/>
    </clipPath>
    <clipPath id="clippath-29">
      <rect class="cls-1" x="1233.73" y="527.42" width="72.21" height="12.25"/>
    </clipPath>
    <clipPath id="clippath-30">
      <rect class="cls-1" x="1453.5" y="555.53" width="65.39" height="32.07"/>
    </clipPath>
    <clipPath id="clippath-31">
      <rect class="cls-1" x="1466.47" y="453.72" width="50.85" height="79.96"/>
    </clipPath>
    <clipPath id="clippath-32">
      <rect class="cls-1" x="1352.87" y="587.58" width="140.08" height="56.12"/>
    </clipPath>
    <clipPath id="clippath-33">
      <rect class="cls-1" x="1529.59" y="383.54" width="33.51" height="19.88"/>
    </clipPath>
    <clipPath id="clippath-34">
      <rect class="cls-1" x="1169.85" y="548.28" width="79.12" height="7.69"/>
    </clipPath>
    <clipPath id="clippath-35">
      <rect class="cls-1" x="1314.08" y="856.12" width="23.47" height="15.56"/>
    </clipPath>
    <clipPath id="clippath-36">
      <rect class="cls-1" x="1466.79" y="668.72" width="13.03" height="33.11"/>
    </clipPath>
    <clipPath id="clippath-37">
      <rect class="cls-1" x="1322.35" y="645.99" width="43.74" height="210.45"/>
    </clipPath>
    <clipPath id="clippath-38">
      <rect class="cls-1" x="1539.9" y="456" width="72.34" height="13.47"/>
    </clipPath>
  </defs>
  <g id="Group_797" data-name="Group 797">
    <path id="Path_1126" data-name="Path 1126" class="cls-52" d="M950.88,261.5c108.08,268.24,1.4,296.72-346.01,371.83-94.3,20.39-164.46,46.4-212.57,76.81-45.03,28.48-72.33,78.04-72.32,131.33h0c-.04,32.17,9.94,63.55,28.56,89.78,14.6,20.51,33.29,41.48,55.85,62.76H1920V0H945.92c-27.59,68.29-37.4,156.4,4.96,261.5"/>
  </g>
  <g id="Group_1477" data-name="Group 1477">
    <g id="Group_1476" data-name="Group 1476">
      <path id="Path_1583" data-name="Path 1583" class="cls-10" d="M907.46,871.68h-12.51l-1.17-306.33h12.51l1.17,306.33Z"/>
      <path id="Path_1584" data-name="Path 1584" class="cls-10" d="M1123.12,871.68h-12.51l-1.17-306.33h12.51l1.17,306.33Z"/>
      <path id="Path_1585" data-name="Path 1585" class="cls-10" d="M1391.74,871.68h-12.51l-1.17-306.33h12.51l1.17,306.33Z"/>
      <path id="Path_1586" data-name="Path 1586" class="cls-10" d="M1601.15,871.68h-12.51l-1.17-306.33h12.51l1.17,306.33Z"/>
    </g>
    <g id="Group_1474" data-name="Group 1474">
      <path id="Path_1587" data-name="Path 1587" class="cls-9" d="M1129.19,555.53h500.29v9.64c0,2.02-1.64,3.65-3.66,3.65h-496.63v-13.3Z"/>
      <path id="Path_1588" data-name="Path 1588" class="cls-10" d="M866.92,555.53h277.65v10.16c0,1.73-1.4,3.14-3.14,3.14h-271.37c-1.73,0-3.14-1.4-3.14-3.14v-10.16Z"/>
      <g id="Group_1359" data-name="Group 1359" class="cls-54">
        <g id="Group_1358" data-name="Group 1358">
          <g class="cls-3">
            <g id="Group_1357" data-name="Group 1357">
              <path id="Path_1589" data-name="Path 1589" d="M1122.11,650.12l-12.66-15.64v-65.65h12.66v81.29Z"/>
            </g>
          </g>
        </g>
      </g>
      <g id="Group_1362" data-name="Group 1362" class="cls-54">
        <g id="Group_1361" data-name="Group 1361">
          <g class="cls-14">
            <g id="Group_1360" data-name="Group 1360">
              <path id="Path_1590" data-name="Path 1590" d="M906.42,650.12l-12.56-15.64v-65.65h12.56v81.29Z"/>
            </g>
          </g>
        </g>
      </g>
      <g id="Group_1365" data-name="Group 1365" class="cls-54">
        <g id="Group_1364" data-name="Group 1364">
          <g class="cls-17">
            <g id="Group_1363" data-name="Group 1363">
              <path id="Path_1591" data-name="Path 1591" d="M1600.3,650.23l-12.57-15.39-.24-65.99,12.49-.03,.32,81.4Z"/>
            </g>
          </g>
        </g>
      </g>
      <g id="Group_1368" data-name="Group 1368" class="cls-54">
        <g id="Group_1367" data-name="Group 1367">
          <g class="cls-16">
            <g id="Group_1366" data-name="Group 1366">
              <path id="Path_1592" data-name="Path 1592" d="M1390.55,650.12l-12.66-15.64v-65.65h12.66v81.29Z"/>
            </g>
          </g>
        </g>
      </g>
      <path id="Path_1593" data-name="Path 1593" class="cls-4" d="M1014.36,504.68h-33.26l-.56-24.96,28.56-9.2c3.13,20.15,5.26,34.16,5.26,34.16"/>
      <g id="Group_1371" data-name="Group 1371" class="cls-53">
        <g id="Group_1370" data-name="Group 1370">
          <g class="cls-15">
            <g id="Group_1369" data-name="Group 1369">
              <path id="Path_1594" data-name="Path 1594" d="M1014.36,504.68h-33.26l-.56-24.96,28.56-9.2c3.13,20.15,5.26,34.16,5.26,34.16"/>
            </g>
          </g>
        </g>
      </g>
      <path id="Path_1595" data-name="Path 1595" class="cls-4" d="M964.46,729.18c-6.76,55.84-17.83,126.95-17.83,126.95h-19.68s3.72-77.87,2.82-133.02l34.69,6.07Z"/>
      <path id="Path_1596" data-name="Path 1596" class="cls-5" d="M969.37,677.81c-.53,12.1-2.44,30.69-4.91,51.37l-34.69-6.07c-.25-16.14-.91-30.38-2.19-40.11-5.44-41.7-43.2-107.93-43.2-178.32h78.9s7.79,133.77,6.1,173.13"/>
      <path id="Path_1597" data-name="Path 1597" class="cls-4" d="M1092.88,575.54l-14.58,171.56-17.42-10.14-5.95-161.43h37.95Z"/>
      <path id="Path_1598" data-name="Path 1598" class="cls-5" d="M1096.08,538.03l-3.19,37.51h-37.95l-.72-19.62-121.07-.41-48.78-50.84h178.89c18.13,0,32.83,14.71,32.82,32.84,0,.17,0,.34,0,.51"/>
      <path id="Path_1599" data-name="Path 1599" class="cls-9" d="M1009.11,470.52l-28.56,9.2-.31-14.61-2.25-100.8s17.21,19.55,23.87,60.6c1.69,10.39,3.32,20.62,4.82,30.13,.85,5.44,1.66,10.64,2.44,15.49"/>
      <g id="Group_1374" data-name="Group 1374" class="cls-53">
        <g id="Group_1373" data-name="Group 1373">
          <g class="cls-21">
            <g id="Group_1372" data-name="Group 1372">
              <path id="Path_1600" data-name="Path 1600" d="M1054.22,555.92l-55.95-9.94-34.99-41.3,2.7,50.95,38.42,.08,.18,.22h49.65Z"/>
            </g>
          </g>
        </g>
      </g>
      <g id="Group_1377" data-name="Group 1377" class="cls-53">
        <g id="Group_1376" data-name="Group 1376">
          <g class="cls-20">
            <g id="Group_1375" data-name="Group 1375">
              <path id="Path_1601" data-name="Path 1601" d="M1009.11,470.52l-28.56,9.2-.31-14.61-2.25-100.8s17.21,19.55,23.87,60.6c1.69,10.39,3.32,20.62,4.82,30.13,.85,5.44,1.66,10.64,2.44,15.49"/>
            </g>
          </g>
        </g>
      </g>
      <path id="Path_1602" data-name="Path 1602" class="cls-12" d="M1012.92,469.3l-3.82,1.22-28.56,9.2-4.13,1.31-3.13-13.3,6.95-2.63,26.43-10.07,3.63-1.38,2.63,15.64Z"/>
      <path id="Path_1603" data-name="Path 1603" class="cls-11" d="M952.54,269.06h23.11v69.72h-15.43c-4.25,0-7.69-3.44-7.69-7.69v-62.03Z"/>
      <path id="Path_1604" data-name="Path 1604" class="cls-9" d="M999.88,504.68h-115.51l.47-8.95,5.63-105.74,1.25-23.4,38.07-16.17,.97-.38,.03-.03h23.88s.5,.06,1.35,.25c.72,.16,1.66,.41,2.82,.78,.18,.04,.36,.09,.53,.16,.91,.31,1.91,.69,2.97,1.16,10.35,4.34,18.33,12.92,21.9,23.56,8.07,22.93,15.65,128.77,15.65,128.77"/>
      <path id="Path_1605" data-name="Path 1605" class="cls-4" d="M964.09,314.88c-.44,.25-7.54,1.66-8.13,12.73-.03,.47-.03,.97-.03,1.5v21.18s-1.41,5.94-8.45,5.94-10.74-2.5-12.7-4.25c-.59-.5-1.11-1.07-1.56-1.69v-50.43c.28,.53,.56,1.03,.85,1.53,5.11,8.69,14.44,14.02,24.53,14.01,1.85,0,3.69-.18,5.5-.53"/>
      <path id="Path_1606" data-name="Path 1606" class="cls-4" d="M930.12,264.28v22.67c0,15.71,12.74,28.44,28.45,28.44,0,0,.01,0,.02,0,1.85,0,3.7-.18,5.52-.53,13.32-2.65,22.92-14.33,22.92-27.91v-22.66c.23-15.71-12.32-28.64-28.04-28.86s-28.64,12.32-28.86,28.04c0,.28,0,.55,0,.83h0Z"/>
      <g id="Group_1380" data-name="Group 1380" class="cls-53">
        <g id="Group_1379" data-name="Group 1379">
          <g class="cls-18">
            <g id="Group_1378" data-name="Group 1378">
              <path id="Path_1607" data-name="Path 1607" d="M960.65,505.65l-76.27-.97,.47-8.95,5.63-105.74c13.04-1.81,26.62-2.54,26.62-2.54,0,0,.66,48.87,4.57,68.39,3.5,17.52,31.91,43.55,37.89,48.83,.72,.63,1.1,.98,1.1,.98"/>
            </g>
          </g>
        </g>
      </g>
      <g id="Group_1383" data-name="Group 1383" class="cls-53">
        <g id="Group_1382" data-name="Group 1382">
          <g class="cls-19">
            <g id="Group_1381" data-name="Group 1381">
              <path id="Path_1608" data-name="Path 1608" d="M986.77,260.59s-6.5,16.01-43.4,15.77l-.02-5.33,43.42-10.45Z"/>
            </g>
          </g>
        </g>
      </g>
      <g id="Group_1386" data-name="Group 1386" class="cls-53">
        <g id="Group_1385" data-name="Group 1385">
          <g class="cls-22">
            <g id="Group_1384" data-name="Group 1384">
              <path id="Path_1609" data-name="Path 1609" d="M964.09,314.88c-.44,.25-7.54,1.66-8.13,12.73-.03,.47-.03,.97-.03,1.5v6.16c-12.54-1.81-18.61-15.77-18.61-15.77l-4.1-10.32-3.41-8.57,3.41,.63,.85,.16c5.11,8.69,14.44,14.02,24.53,14.01,1.85,0,3.69-.18,5.51-.53"/>
            </g>
          </g>
        </g>
      </g>
      <path id="Path_1610" data-name="Path 1610" class="cls-9" d="M960.65,505.65l-6.98,14.2c-15.77-4.16-33.69-9.42-48.87-15.17-6.85-2.53-13.51-5.52-19.96-8.95-8.04-4.44-13.33-9.01-14.01-13.45-3.44-22.15,3.13-83.97,14.08-106.37,1.72-3.47,4.03-6.63,6.82-9.32,12.64-12.45,33.32-15.83,38.07-16.46,.66-.1,1-.12,1-.12,0,0-.31,.75-.85,2.1-5.76,14.27-38.13,97.36-24.18,122.85,4.1,7.51,29.69,19.87,52.62,29.72,.75,.34,1.5,.66,2.25,.97"/>
      <path id="Path_1611" data-name="Path 1611" class="cls-8" d="M1087.44,496.26l-46.93,53.56h-49.65l8.85-10.1,20.3-23.18,17.77-20.27h49.65Z"/>
      <path id="Path_1612" data-name="Path 1612" class="cls-11" d="M946.66,856.13l35.13,13.36c.58,.26,.84,.93,.58,1.51-.18,.41-.59,.68-1.05,.68h-58.13l3.76-15.56h19.67l.03,.02Z"/>
      <path id="Path_1613" data-name="Path 1613" class="cls-11" d="M1077.94,746.67l24.03,28.9c.38,.51,.27,1.23-.24,1.6-.36,.27-.85,.3-1.24,.08l-50.63-28.56,10.92-11.7,17.13,9.66,.02,.02Z"/>
      <path id="Path_1614" data-name="Path 1614" class="cls-2" d="M940.25,282.66v9.92c0,3.89-3.14,7.05-7.03,7.06h-.06c-3.63,0-6.66-2.74-7.03-6.34-.03-.24-.04-.48-.03-.71v-9.91c0-3.89,3.15-7.05,7.05-7.06h.07c3.89,0,7.03,3.17,7.03,7.06Z"/>
      <path id="Path_1615" data-name="Path 1615" class="cls-11" d="M943.36,271.04s24.43,2.27,38.96-6.95c12.9-8.19,8.69-16.87-2.04-26.55-13.39-12.08-44.85-11.66-56.76,12.16-6.52,13.03-4.83,49.48-3.83,71.67,.46,10.3,8.95,18.4,19.26,18.39h4.67l-.25-68.73Z"/>
      <g id="Group_1389" data-name="Group 1389" class="cls-53">
        <g id="Group_1388" data-name="Group 1388">
          <g class="cls-45">
            <g id="Group_1387" data-name="Group 1387">
              <path id="Path_1616" data-name="Path 1616" d="M1027,530.9c-1.97,5.86-11.73,17.02-17.8,14.27-3.27-1.61-6.44-3.43-9.48-5.44l20.3-23.18h.06l-6.35,7.23s15.21,1.25,13.27,7.13"/>
            </g>
          </g>
        </g>
      </g>
      <g id="Group_1392" data-name="Group 1392" class="cls-53">
        <g id="Group_1391" data-name="Group 1391">
          <g class="cls-50">
            <g id="Group_1390" data-name="Group 1390">
              <path id="Path_1617" data-name="Path 1617" d="M959.33,394.65c-1.75,2.27-4.48,3.58-7.35,3.54-14.95,0-19.36-32.1-20.58-47.77,0-.12-.03-.28-.03-.41h1.85v.28c.45,.62,.98,1.19,1.56,1.69,1.63,17.24,6.35,42.95,17.21,42.95,1.9,.03,3.71-.84,4.88-2.34,6.01-7.32,3.91-29.6,1.97-41.54,.18,.04,.36,.09,.53,.16,.91,.31,1.91,.69,2.97,1.16,1.66,11.04,4.01,33.78-3,42.29"/>
            </g>
          </g>
        </g>
      </g>
      <path id="Path_1618" data-name="Path 1618" class="cls-4" d="M1017.12,519.86l6.34-7.24s-16.6,2.64-27.11,7.32h-.02s-16.62-6.2-35.69-14.3l-6.98,14.2c22.02,5.79,39.83,9.48,39.83,9.48,0,0,13.03,9.19,19.09,11.93s15.84-8.41,17.79-14.27-13.25-7.12-13.25-7.12"/>
      <path id="Path_1619" data-name="Path 1619" class="cls-7" d="M956.92,394.78c-1.7,2.19-4.33,3.45-7.1,3.41-14.42,0-18.68-30.97-19.87-46.08-.06-.59-.1-1.16-.16-1.69v-.28c.66-.1,1-.12,1-.12h2.13c1.19,16.36,5.66,45.05,16.89,45.05,1.84,.03,3.58-.82,4.69-2.29,6.23-7.6,3.44-31.88,1.5-42.51,1.13,.25,2.25,.57,3.35,.94,1.53,9.04,4.97,34.57-2.44,43.58"/>
      <g id="Group_1395" data-name="Group 1395" class="cls-53">
        <g id="Group_1394" data-name="Group 1394">
          <g class="cls-44">
            <g id="Group_1393" data-name="Group 1393">
              <path id="Path_1620" data-name="Path 1620" d="M999.88,457.62l8.15,13.33-10.58,3.56-1.39-15.43,3.82-1.45Z"/>
            </g>
          </g>
        </g>
      </g>
      <g id="Group_1398" data-name="Group 1398" class="cls-53">
        <g id="Group_1397" data-name="Group 1397">
          <g class="cls-43">
            <g id="Group_1396" data-name="Group 1396">
              <path id="Path_1621" data-name="Path 1621" d="M1077.94,746.67l-28.08,2.02,10.92-11.7,17.16,9.68Z"/>
            </g>
          </g>
        </g>
      </g>
      <g id="Group_1401" data-name="Group 1401" class="cls-53">
        <g id="Group_1400" data-name="Group 1400">
          <g class="cls-42">
            <g id="Group_1399" data-name="Group 1399">
              <path id="Path_1622" data-name="Path 1622" d="M946.63,856.12l-23.43,15.56,3.76-15.56h19.67Z"/>
            </g>
          </g>
        </g>
      </g>
      <path id="Path_1623" data-name="Path 1623" class="cls-10" d="M1758.98,720.72s-.09,.09-.12,.15c-.06,.06-.11,.12-.15,.18h-56.03c-.3,.01-.59-.11-.79-.33-.2-.21-.31-.5-.3-.79,0-.44,.27-.83,.67-1l10.49-3.82s24.78,5.52,42.65-9.16l3.57,14.77Z"/>
      <path id="Path_1624" data-name="Path 1624" class="cls-8" d="M1599.3,383.56h40.6l20.6,58.94h-40.6l-20.6-58.94Z"/>
      <g id="Group_1404" data-name="Group 1404" class="cls-53">
        <g id="Group_1403" data-name="Group 1403">
          <g class="cls-46">
            <g id="Group_1402" data-name="Group 1402">
              <path id="Path_1625" data-name="Path 1625" d="M1758.98,720.71s-.09,.09-.12,.15c-.06,.06-.11,.12-.15,.18h-56.03c-.3,.01-.59-.11-.79-.33-.2-.21-.31-.5-.3-.79,0-.44,.27-.83,.67-1l10.49-3.82s24.78,5.52,42.65-9.16l3.57,14.77Z"/>
            </g>
          </g>
        </g>
      </g>
      <path id="Path_1626" data-name="Path 1626" class="cls-11" d="M1745.7,433.44l-6.07,6.55h-20.47l-6.37-16.86,28-2.85,4.91,13.16Z"/>
      <g id="Group_1407" data-name="Group 1407" class="cls-53">
        <g id="Group_1406" data-name="Group 1406">
          <g class="cls-48">
            <g id="Group_1405" data-name="Group 1405">
              <path id="Path_1627" data-name="Path 1627" d="M1647.36,424.34l13.14,17.73-4.16-11.47-8.97-6.26Z"/>
            </g>
          </g>
        </g>
      </g>
      <path id="Path_1628" data-name="Path 1628" class="cls-4" d="M1719.15,439.99l-6.37-16.86-46.47,4.74-18.95-9.6s-1.9,3.16,0,6.07,8.97,6.26,8.97,6.26l4.16,11.47,6.23-.54-.05-1.53h52.47Z"/>
      <path id="Path_1629" data-name="Path 1629" class="cls-4" d="M1758.98,720.72l-3.58-14.77h.03l3.55,14.77Z"/>
      <path id="Path_1630" data-name="Path 1630" class="cls-4" d="M1755.43,705.94l-13.16-122.62h-8.71c1.33-3.25,1.52-9.34,.27-16.14-1.76-9.65-5.73-16.98-8.89-16.41s-4.28,8.86-2.52,18.5c1.12,6.04,3.09,11.19,5.19,14.04h-18.08l28.36,122.62s-.06,.03-.12,.03l-25.03,9.13s24.78,5.52,42.64-9.16h.04Z"/>
      <path id="Path_1631" data-name="Path 1631" class="cls-4" d="M1833.09,314.96l-2,17.86-77.8-4.02,3.05-13.84c5.87-10.97,15.42-19.5,26.98-24.1l22.64-.84,19.66,4.28,7.48,20.66Z"/>
      <path id="Path_1632" data-name="Path 1632" class="cls-11" d="M1855.97,439.98h-116.35s4.04-82.9,11.52-111.72c1.18-4.63,2.92-9.1,5.19-13.3h76.77l11.79,32.7,2.1,17.43,3.88,32.38,5.09,42.51Z"/>
      <path id="Path_1633" data-name="Path 1633" class="cls-10" d="M1816.98,512.8h-80.99l6.28,70.53h-8.71c1.33-3.25,1.52-9.34,.27-16.14-1.76-9.65-5.73-16.98-8.89-16.41s-4.28,8.86-2.52,18.5c1.12,6.04,3.09,11.19,5.19,14.04h-18.08l-18.9-81.2-1.24-5.4c1.73-.89,3.69-1.2,5.61-.91,6.01,.88,4.43-11.32,4.43-11.32l117.55-3.03v31.34Z"/>
      <g id="Group_1410" data-name="Group 1410" class="cls-53">
        <g id="Group_1409" data-name="Group 1409">
          <g class="cls-47">
            <g id="Group_1408" data-name="Group 1408">
              <path id="Path_1634" data-name="Path 1634" d="M1822.9,314.96l-47.92,55.79,52.62-36.89-4.7-18.89Z"/>
            </g>
          </g>
        </g>
      </g>
      <path id="Path_1635" data-name="Path 1635" class="cls-4" d="M1758.71,721.05c.04-.07,.09-.13,.15-.18-.03,.06-.09,.09-.12,.18h-.03Z"/>
      <path id="Path_1636" data-name="Path 1636" class="cls-5" d="M1724.11,251.21l-7.16,18.68c-1.62,4.22-5.85,6.86-10.35,6.48h-.03c-.93-.1-1.85-.32-2.72-.66l-4.2-1.6c-5.23-2.01-7.85-7.87-5.85-13.11l7.16-18.68,14.83,5.69,8.33,3.19Z"/>
      <g id="Group_1413" data-name="Group 1413" class="cls-53">
        <g id="Group_1412" data-name="Group 1412">
          <g class="cls-51">
            <g id="Group_1411" data-name="Group 1411">
              <path id="Path_1637" data-name="Path 1637" d="M1724.11,251.21l-7.16,18.68c-1.62,4.22-5.85,6.86-10.35,6.48h-.03l-2.85-12.67,12.08-15.67,8.32,3.19Z"/>
            </g>
          </g>
        </g>
      </g>
      <rect id="Rectangle_882" data-name="Rectangle 882" class="cls-5" x="1699.26" y="251.6" width="22.06" height="5.66" transform="translate(859.96 1760) rotate(-69)"/>
      <path id="Path_1638" data-name="Path 1638" class="cls-4" d="M1822.9,314.96c2.58-10.1-1.37-19.05-16.93-24.93,0,0,18.41,.73,29.52,9.95,7.95,6.61,12.65,15.11,13.74,24.48l-26.33-9.49Z"/>
      <path id="Path_1639" data-name="Path 1639" class="cls-11" d="M1825.63,371.74c-29.36,25.3-64.76,59.67-76.9,21.75-5.67-17.71-12.38-43.32-17.93-65.59l15.83-6.43c8.1,20.59,16.96,42.23,20.29,47.23,6.49,9.71,20.96-7.58,39.04-27.3,8.19-8.92,14.77-18.11,16.93-26.45l26.33,9.49c1.73,14.81-5.61,31.83-23.6,47.29"/>
      <g id="Group_1416" data-name="Group 1416" class="cls-53">
        <g id="Group_1415" data-name="Group 1415">
          <g class="cls-49">
            <g id="Group_1414" data-name="Group 1414">
              <path id="Path_1640" data-name="Path 1640" d="M1755.43,705.94l-13.16-122.62h-8.71c1.33-3.25,1.52-9.34,.27-16.14-1.76-9.65-5.73-16.98-8.89-16.41s-4.28,8.86-2.52,18.5c1.12,6.04,3.09,11.19,5.19,14.04h-18.08l28.36,122.62s-.06,.03-.12,.03l-25.03,9.13s24.78,5.52,42.64-9.16h.04Z"/>
            </g>
          </g>
        </g>
      </g>
      <g id="Group_1419" data-name="Group 1419" class="cls-53">
        <g id="Group_1418" data-name="Group 1418">
          <g class="cls-23">
            <g id="Group_1417" data-name="Group 1417">
              <path id="Path_1641" data-name="Path 1641" d="M1816.98,512.8h-80.99l6.28,70.53h-8.71c1.33-3.25,1.52-9.34,.27-16.14-1.76-9.65-5.73-16.98-8.89-16.41s-4.28,8.86-2.52,18.5c1.12,6.04,3.09,11.19,5.19,14.04h-18.08l-18.9-81.2-1.24-5.4c1.73-.89,3.69-1.2,5.61-.91,6.01,.88,4.43-11.32,4.43-11.32l117.55-3.03v31.34Z"/>
            </g>
          </g>
        </g>
      </g>
      <path id="Path_1642" data-name="Path 1642" class="cls-10" d="M1855.96,439.99v32.88c0,15.71-9.21,29.96-23.54,36.4-4.85,2.2-10.11,3.38-15.44,3.46-2.19,.05-4.38-.08-6.55-.39-18.53-2.64-42.13-6.01-73.23-10.46-11.61-1.67-25.54-4.55-36.13-6.07-1.92-.29-3.88,.02-5.61,.91-2.24,1.11-3.97,3.05-4.82,5.4v.03c-.53,1.44-.7,3-.49,4.52l8.34,76.65h-9.37c1.33-3.25,1.52-9.34,.27-16.14-1.76-9.65-5.73-16.98-8.89-16.41s-4.28,8.86-2.49,18.5c1.09,6.04,3.06,11.19,5.16,14.04h-16.41l-26.24-110.77c-3.15-14.49,6.05-28.79,20.54-31.94,1.87-.41,3.78-.61,5.7-.61h189.19Z"/>
      <path id="Path_1643" data-name="Path 1643" class="cls-4" d="M1746.64,321.48c-8.31-21.2-15.83-41.38-15.83-41.38h-.04s.06-.01,.06-.01c0,0-2.26-11.99-4.38-18.51s-15.28-11.28-18.1-12.01-6.79,6.76,2.55,11.29c0,0-2.97,7.64-2.97,13.29,0,5.11,10.26,8.6,12.23,9.22,1.27,5.49,5.45,23.48,10.67,44.54l15.83-6.43Z"/>
      <path id="Path_1644" data-name="Path 1644" class="cls-5" d="M1715.34,512.81h133.51c1.66,0,3.01,1.35,3.01,3.01v15.21c0,1.66-1.35,3.01-3.01,3.01h-133.51c-1.66,0-3.01-1.35-3.01-3.01v-15.21c0-1.66,1.35-3.01,3.01-3.01"/>
      <path id="Path_1645" data-name="Path 1645" class="cls-5" d="M1790.06,870.17h-12.14l-3.72-300.02-.44-36.1h12.14l.47,38.32,3.69,297.79Z"/>
      <path id="Path_1646" data-name="Path 1646" class="cls-5" d="M1907.9,871.68h-12.14l-59.22-290.1-9.7-47.52h12.14l10.17,49.83,58.76,287.79Z"/>
      <path id="Path_1647" data-name="Path 1647" class="cls-5" d="M1735.84,534.06l-5.16,28.12-56.81,309.5h-12.14l57.22-311.65,4.76-25.97h12.14Z"/>
      <path id="Path_1648" data-name="Path 1648" class="cls-10" d="M1717.09,720.72c-.1,.11-.19,.22-.27,.33h-56.03c-.61-.01-1.1-.52-1.09-1.13,0-.43,.27-.82,.66-.99l10.5-3.82s24.78,5.52,42.65-9.16l3.57,14.77Z"/>
      <path id="Path_1649" data-name="Path 1649" class="cls-9" d="M1701.89,720.72c-.2-.21-.31-.5-.3-.79,0,.29,.1,.57,.3,.79"/>
      <rect id="Rectangle_885" data-name="Rectangle 885" class="cls-5" x="1690.14" y="721.05" width="180.68" height="7.61"/>
      <path id="Path_1650" data-name="Path 1650" class="cls-4" d="M1806.45,238.73v51.43s-9.48,7.13-18.27,6.7c-5.22-.25-4.88-6.7-4.88-6.7v-21.62c0-.5,0-1.03-.03-1.5-.08-2.31-.58-4.59-1.47-6.72h-.03c-1.17-3.01-3.66-5.31-6.76-6.23l-.03-.03c1.86,.35,3.74,.53,5.63,.53,10.89,.02,20.87-6.09,25.81-15.8,0-.03,.03-.03,.03-.06"/>
      <path id="Path_1651" data-name="Path 1651" class="cls-4" d="M1809.6,202.53v23.1c0,16-12.97,28.98-28.97,28.98,0,0-.02,0-.03,0-1.89,0-3.77-.18-5.62-.54-13.57-2.7-23.35-14.6-23.35-28.44v-23.1c-.09-16.01,12.81-29.06,28.82-29.15,16.01-.09,29.06,12.81,29.15,28.82,0,.11,0,.22,0,.34"/>
      <path id="Path_1652" data-name="Path 1652" class="cls-6" d="M1758.5,230.51h30.21s1.54,16.86-16.41,16.07c-14.09-.62-13.8-16.07-13.8-16.07"/>
      <path id="Path_1653" data-name="Path 1653" class="cls-4" d="M1799.27,221.25v10.1c0,3.96,3.2,7.18,7.16,7.19h.06c3.69,0,6.79-2.79,7.16-6.46,.03-.24,.04-.48,.03-.73v-10.1c0-3.97-3.21-7.19-7.18-7.19,0,0,0,0-.01,0h-.06c-3.96,0-7.17,3.23-7.16,7.19"/>
      <path id="Path_1654" data-name="Path 1654" class="cls-12" d="M1746.67,196.77c-.18,6.83,4.94,11.56,4.94,11.56,3.03-2.76,5.39-6.19,6.89-10.01,0,0,5.24,11.95,35.21,11.56,0,0-.49,16.43,5.55,16.44v-5.07c0-3.96,3.2-7.18,7.16-7.19h.06c3.97,0,7.19,3.21,7.19,7.18h0v10.11c0,.24,0,.49-.03,.73,8.56-14.96,11.77-37.31-1.09-52.9-16.02-19.38-48.62-15.02-57.15-3.82-4.91,6.43-1.7,11.95-1.7,11.95,0,0-6.82,2.63-7.04,9.46"/>
      <path id="Path_1655" data-name="Path 1655" class="cls-12" d="M1816.42,170.59c7.4,0,13.4,6,13.4,13.4,0,7.4-6,13.4-13.4,13.4-7.4,0-13.4-6-13.4-13.4s6-13.4,13.4-13.4h0"/>
      <path id="Path_1656" data-name="Path 1656" class="cls-12" d="M1819.66,195.67s5.69,11.55,22.77,7.71c0,0-24.19,18.84-22.77-7.71"/>
      <path id="Path_1657" data-name="Path 1657" class="cls-4" d="M1698.5,583.32h-9.37c1.33-3.25,1.52-9.34,.27-16.14-1.76-9.65-5.73-16.98-8.89-16.41s-4.28,8.86-2.49,18.5c1.09,6.04,3.06,11.19,5.16,14.04h-16.42l29.25,122.62s-.09,.03-.12,.03l-25.03,9.13s24.78,5.52,42.65-9.16l-15.02-122.62Z"/>
      <path id="Path_1658" data-name="Path 1658" class="cls-11" d="M1810.82,232.96c2.43,0,4.4,1.97,4.4,4.4,0,2.43-1.97,4.4-4.4,4.4-2.43,0-4.4-1.97-4.4-4.4s1.97-4.4,4.4-4.4h0"/>
      <g id="Group_1422" data-name="Group 1422" class="cls-53">
        <g id="Group_1421" data-name="Group 1421">
          <g class="cls-24">
            <g id="Group_1420" data-name="Group 1420">
              <path id="Path_1659" data-name="Path 1659" d="M1806.45,238.73v29.1c-11.52-.28-19.58-4-24.65-7.51h-.03c-1.17-3.01-3.66-5.31-6.76-6.23l-.03-.03c1.86,.35,3.74,.53,5.63,.53,10.89,.02,20.87-6.09,25.81-15.8,0-.03,.03-.03,.03-.06"/>
            </g>
          </g>
        </g>
      </g>
      <g id="Group_1425" data-name="Group 1425" class="cls-53">
        <g id="Group_1424" data-name="Group 1424">
          <g class="cls-27">
            <g id="Group_1423" data-name="Group 1423">
              <path id="Path_1660" data-name="Path 1660" d="M1846.99,365.09l-2.1-17.43c-3.85,8.1-10.23,16.3-19.27,24.09-23.12,19.9-49.93,45.39-66.23,36.91,1.64,3.26,4.17,5.98,7.3,7.85,1.32,.85,13.24,8.08,34.59,6.11,15.77-1.47,37.7-16.24,49.58-25.15l-3.88-32.38Z"/>
            </g>
          </g>
        </g>
      </g>
      <g id="Group_1428" data-name="Group 1428" class="cls-53">
        <g id="Group_1427" data-name="Group 1427">
          <g class="cls-26">
            <g id="Group_1426" data-name="Group 1426">
              <path id="Path_1661" data-name="Path 1661" d="M1740.78,420.28l-74.02,19.72h72.86l1.15-19.72Z"/>
            </g>
          </g>
        </g>
      </g>
      <g id="Group_1431" data-name="Group 1431" class="cls-53">
        <g id="Group_1430" data-name="Group 1430">
          <g class="cls-25">
            <g id="Group_1429" data-name="Group 1429">
              <path id="Path_1662" data-name="Path 1662" d="M1735.84,534.06l-5.16,28.12-11.73-2.16,4.76-25.97h12.14Z"/>
            </g>
          </g>
        </g>
      </g>
      <g id="Group_1434" data-name="Group 1434" class="cls-53">
        <g id="Group_1433" data-name="Group 1433">
          <g class="cls-28">
            <g id="Group_1432" data-name="Group 1432">
              <path id="Path_1663" data-name="Path 1663" d="M1786.36,572.38l-12.17-2.22-.44-36.1h12.14l.47,38.32Z"/>
            </g>
          </g>
        </g>
      </g>
      <g id="Group_1437" data-name="Group 1437" class="cls-53">
        <g id="Group_1436" data-name="Group 1436">
          <g class="cls-31">
            <g id="Group_1435" data-name="Group 1435">
              <path id="Path_1664" data-name="Path 1664" d="M1849.15,583.89l-12.61-2.32-9.7-47.52h12.14l10.17,49.83Z"/>
            </g>
          </g>
        </g>
      </g>
      <path id="Path_1665" data-name="Path 1665" class="cls-5" d="M1394.04,856.13l-35.13,13.36c-.58,.26-.84,.93-.58,1.51,.18,.41,.59,.68,1.04,.68h58.13l-3.77-15.56h-19.67l-.03,.02Z"/>
      <path id="Path_1666" data-name="Path 1666" class="cls-11" d="M1426.88,643.71c-4.51,0-8.26,3.48-8.6,7.98l-4.54,204.44h-19.71l-15.77-212.42h48.61Z"/>
      <g id="Group_1440" data-name="Group 1440" class="cls-53">
        <g id="Group_1439" data-name="Group 1439">
          <g class="cls-29">
            <g id="Group_1438" data-name="Group 1438">
              <path id="Path_1667" data-name="Path 1667" d="M1379.33,662.63l23.24,17.31,11.17,176.19,4.76-219.01-40.24,6.59,1.07,18.92Z"/>
            </g>
          </g>
        </g>
      </g>
      <g id="Group_1443" data-name="Group 1443" class="cls-53">
        <g id="Group_1442" data-name="Group 1442">
          <g class="cls-30">
            <g id="Group_1441" data-name="Group 1441">
              <path id="Path_1668" data-name="Path 1668" d="M1394.03,856.13l23.47,15.55-3.76-15.55h-19.71Z"/>
            </g>
          </g>
        </g>
      </g>
      <rect id="Rectangle_894" data-name="Rectangle 894" class="cls-12" x="1240.77" y="523.51" width="65.29" height="32.07"/>
      <rect id="Rectangle_895" data-name="Rectangle 895" class="cls-13" x="1233.73" y="523.51" width="7.04" height="32.07"/>
      <g id="Group_1446" data-name="Group 1446" class="cls-53">
        <g id="Group_1445" data-name="Group 1445">
          <g class="cls-32">
            <g id="Group_1444" data-name="Group 1444">
              <path id="Path_1669" data-name="Path 1669" d="M1305.94,539.68h-65.18l-7.04-5.34v-6.91h72.21v12.25Z"/>
            </g>
          </g>
        </g>
      </g>
      <path id="Path_1670" data-name="Path 1670" class="cls-10" d="M1139.53,527.42h-9.17l-15.64-159.58h9.17l15.64,159.58Z"/>
      <path id="Path_1671" data-name="Path 1671" class="cls-11" d="M1172.84,548.28h164.71v7.69h-167.7v-4.7c0-1.65,1.34-2.99,2.99-2.99"/>
      <path id="Path_1672" data-name="Path 1672" class="cls-11" d="M1171.13,548.28h76.57c.7,0,1.27,.57,1.28,1.27v6.42h-79.12v-6.42c0-.7,.57-1.27,1.28-1.27"/>
      <path id="Path_1673" data-name="Path 1673" class="cls-7" d="M1583.83,467.45c-3.25,41.51-26.31,120.13-26.31,120.13h-104.02s12.51-57.03,27.37-105.58,49.15-50.62,49.15-50.62l24.09,1.06s21.8,1.09,28.06,13.08c2.12,4.07,2.47,11.92,1.66,21.93"/>
      <g id="Group_1449" data-name="Group 1449" class="cls-53">
        <g id="Group_1448" data-name="Group 1448">
          <g class="cls-39">
            <g id="Group_1447" data-name="Group 1447">
              <path id="Path_1674" data-name="Path 1674" d="M1460.99,555.53l-7.5,32.07,39.45-.02h25.93l-57.89-32.05Z"/>
            </g>
          </g>
        </g>
      </g>
      <g id="Group_1452" data-name="Group 1452" class="cls-53">
        <g id="Group_1451" data-name="Group 1451">
          <g class="cls-41">
            <g id="Group_1450" data-name="Group 1450">
              <path id="Path_1675" data-name="Path 1675" d="M1466.47,533.68s32-30.5,50.85-79.96l-44.41,55.76-6.44,24.2Z"/>
            </g>
          </g>
        </g>
      </g>
      <path id="Path_1676" data-name="Path 1676" class="cls-7" d="M1530.03,431.39s-27.65,1.39-51.5,32.68-35.03,45.42-51.62,58.66c-19.49,15.55-95.42,22.29-95.42,22.29v10.95s82.76,2,107.15-9.78c24.62-11.89,69.22-75.86,69.22-75.86l22.17-38.93Z"/>
      <path id="Path_1677" data-name="Path 1677" class="cls-11" d="M1518.88,587.58v56.12h-146.91c-2.15,0-4.23,.8-5.82,2.25-.02,0-.05,.01-.06,.03-1.61,1.47-2.6,3.51-2.75,5.69l-29.57,204.44h-19.71l10.64-236.13c-.15-17.75,14.13-32.26,31.88-32.41,.09,0,.19,0,.28,0h162.02Z"/>
      <path id="Path_1678" data-name="Path 1678" class="cls-5" d="M1314.07,856.13l-35.13,13.36c-.58,.26-.84,.93-.58,1.51,.18,.41,.59,.68,1.04,.68h58.13l-3.77-15.56h-19.67l-.03,.02Z"/>
      <g id="Group_1455" data-name="Group 1455" class="cls-53">
        <g id="Group_1454" data-name="Group 1454">
          <g class="cls-38">
            <g id="Group_1453" data-name="Group 1453">
              <path id="Path_1679" data-name="Path 1679" d="M1352.87,587.58l57.36,56.12h82.72v-56.12h-140.08Z"/>
            </g>
          </g>
        </g>
      </g>
      <path id="Path_1680" data-name="Path 1680" class="cls-4" d="M1563.09,383.54l-.13,.63-3.5,19.15-2.6,14.11-2.75,15.02-24.09-1.06,4.04-21.9c.1-.5,.16-1.03,.25-1.53,.22-1.6,.27-3.21,.16-4.82-.15-3.14-1.51-6.1-3.79-8.26-.03-.03-.06-.03-.1-.06-.16-.15-.32-.28-.5-.41-.18-.12-.34-.26-.5-.41-.69-.47-1.19-.69-1.28-.78,.38,.16,.78,.31,1.16,.44,.24,.09,.48,.16,.72,.22,1.22,.4,2.46,.71,3.72,.94,10.74,2,21.71-2.03,28.6-10.51,.19-.22,.38-.44,.56-.68,0-.04,.03-.04,.03-.07"/>
      <path id="Path_1681" data-name="Path 1681" class="cls-9" d="M1611.98,468.42l-.22,.94-28.9,128.67c-7.29,32.36-34.92,56.12-68.01,58.47v.03h-53.34l2.91-12.83,39.89-177.51c1.23-5.42,5.74-9.47,11.26-10.1,.5-.07,1-.1,1.5-.1h85c5.62,0,10.17,4.56,10.17,10.17,0,.76-.08,1.51-.25,2.25"/>
      <path id="Path_1682" data-name="Path 1682" class="cls-4" d="M1573.02,347.41l-4.31,23.42c-2.98,16.23-18.56,26.97-34.79,23.99,0,0-.02,0-.03,0-1.91-.35-3.79-.89-5.6-1.6-13.26-5.26-20.96-19.16-18.39-33.2l4.31-23.42c2.62-16.3,17.97-27.39,34.27-24.77s27.39,17.97,24.77,34.27c-.07,.44-.15,.87-.24,1.31"/>
      <path id="Path_1683" data-name="Path 1683" class="cls-4" d="M1332.2,555.97s-10.35,.91-19.74-7.69h-21.64s11.77-4.69,15.64-5.74,25.03,2.48,25.03,2.48l.71,10.95Z"/>
      <g id="Group_1458" data-name="Group 1458" class="cls-53">
        <g id="Group_1457" data-name="Group 1457">
          <g class="cls-37">
            <g id="Group_1456" data-name="Group 1456">
              <path id="Path_1684" data-name="Path 1684" d="M1563.06,383.61c-.19,.25-.38,.47-.56,.68-1.18,1.42-2.48,2.72-3.9,3.9l.37-.38-17.48-2.96s-.22,9.19-10.83,9.14c-.15-.05-.31-.08-.46-.13l-.59,.12c.16,.15,.32,.28,.5,.41,.13,.13,.31,.25,.5,.41,.03,.03,.06,.03,.1,.06,8.27,6.18,18.48,9.18,28.78,8.45l3.5-19.15,.13-.63s-.04,.04-.04,.07"/>
            </g>
          </g>
        </g>
      </g>
      <path id="Path_1685" data-name="Path 1685" class="cls-10" d="M1445.16,656.53h56.31v10.89c0,.72-.58,1.3-1.3,1.3h-53.71c-.72,0-1.3-.58-1.3-1.3v-10.89h0Z"/>
      <path id="Path_1686" data-name="Path 1686" class="cls-10" d="M1426.13,863.99h94.36c1.73,0,3.13,1.4,3.13,3.13v4.56h-100.63v-4.56c0-1.73,1.4-3.13,3.13-3.13"/>
      <rect id="Rectangle_901" data-name="Rectangle 901" class="cls-10" x="1466.79" y="662.63" width="13.03" height="209.05"/>
      <path id="Path_1687" data-name="Path 1687" class="cls-4" d="M1548.17,368.97l-1.88,10.26c-.73,4-4.55,6.65-8.55,5.92-.02,0-.03,0-.05,0h-.1c-4.01-.75-6.65-4.59-5.91-8.6l.34-1.81,1.53-8.45c.75-4,4.59-6.66,8.6-5.95l.06,.03c4,.7,6.67,4.52,5.96,8.51,0,.03-.01,.06-.02,.09"/>
      <path id="Path_1688" data-name="Path 1688" class="cls-5" d="M1561.34,393.15h-17.11l-2.75-8.29c2.5-.88,4.34-3.03,4.82-5.63l1.88-10.26c.75-3.99-1.87-7.83-5.86-8.58-.03,0-.05-.01-.08-.02l-.06-.03c-4.01-.71-7.85,1.94-8.6,5.95l-1.53,8.45-.03-.03-.44-21.87-5.51-5.29,1.16-9.98-11.99-4.91s-10.51-10.92-1.31-24.03c9.2-13.08,30.13-14.64,30.13-14.64,0,0-11.23,12.51,4.25,13.48s39.14,16.24,29.19,32.07c3.02,3.4,5.28,7.4,6.64,11.73,1.75,6.44-22.78,41.89-22.78,41.89"/>
      <path id="Path_1689" data-name="Path 1689" class="cls-12" d="M1524.17,468.42l-39.89,177.29c-1.45,6.44-7.16,11.01-13.76,11.01h-9.04l42.83-190.52c1.23-5.42,5.74-9.47,11.26-10.1,5.56,.72,9.49,5.8,8.77,11.36-.04,.32-.1,.65-.17,.96"/>
      <path id="Path_1690" data-name="Path 1690" class="cls-12" d="M1464.42,643.71l-2.91,12.83h-71.05c-6.35,0-11.51-5.13-11.52-11.48v-1.35h85.47Z"/>
      <path id="Path_1691" data-name="Path 1691" class="cls-9" d="M1383.77,527.42h-244.24l-15.64-159.58,244.24-15.64,15.64,175.22Z"/>
      <path id="Path_1692" data-name="Path 1692" class="cls-9" d="M1392.93,527.42h-9.17l-15.64-175.22h9.17l15.64,175.22Z"/>
      <path id="Path_1693" data-name="Path 1693" class="cls-6" d="M1382.75,521.39h-234.24l-14.46-147.51,234.24-15.64,14.46,163.16Z"/>
      <g id="Group_1461" data-name="Group 1461" class="cls-53">
        <g id="Group_1460" data-name="Group 1460">
          <g class="cls-33">
            <g id="Group_1459" data-name="Group 1459">
              <path id="Path_1694" data-name="Path 1694" d="M1171.13,548.28h76.57c.7,0,1.27,.57,1.28,1.27v6.42h-79.12v-6.42c0-.7,.57-1.27,1.28-1.27"/>
            </g>
          </g>
        </g>
      </g>
      <g id="Group_1464" data-name="Group 1464" class="cls-53">
        <g id="Group_1463" data-name="Group 1463">
          <g class="cls-34">
            <g id="Group_1462" data-name="Group 1462">
              <path id="Path_1695" data-name="Path 1695" d="M1314.08,856.13l23.47,15.55-3.76-15.56h-19.7Z"/>
            </g>
          </g>
        </g>
      </g>
      <g id="Group_1467" data-name="Group 1467" class="cls-53">
        <g id="Group_1466" data-name="Group 1466">
          <g class="cls-35">
            <g id="Group_1465" data-name="Group 1465">
              <rect id="Rectangle_904" data-name="Rectangle 904" x="1466.79" y="668.72" width="13.03" height="33.11"/>
            </g>
          </g>
        </g>
      </g>
      <g id="Group_1470" data-name="Group 1470" class="cls-53">
        <g id="Group_1469" data-name="Group 1469">
          <g class="cls-36">
            <g id="Group_1468" data-name="Group 1468">
              <path id="Path_1696" data-name="Path 1696" d="M1366.09,645.99c-1.61,1.47-2.6,3.51-2.75,5.69l-29.56,204.45-11.42,.31c.03-.1,.05-.21,.06-.31,1.41-7.95,29.53-165.02,33.85-186.61,4.13-20.81,9.2-23.31,9.83-23.53"/>
            </g>
          </g>
        </g>
      </g>
      <g id="Group_1473" data-name="Group 1473" class="cls-53">
        <g id="Group_1472" data-name="Group 1472">
          <g class="cls-40">
            <g id="Group_1471" data-name="Group 1471">
              <path id="Path_1697" data-name="Path 1697" d="M1611.98,468.42l-.22,.94c-8.15,.26-16.31,.06-24.43-.6-17.9-1.56-47.43-12.67-47.43-12.67l.59-.1h61.57c5.62,0,10.17,4.55,10.17,10.17,0,.76-.08,1.51-.25,2.25"/>
            </g>
          </g>
        </g>
      </g>
      <path id="Path_1698" data-name="Path 1698" class="cls-10" d="M666.44,871.29H1961.02c.54,0,.98,.44,.98,.98h0v3.58c0,.54-.44,.98-.98,.98H666.44c-.54,0-.98-.44-.98-.98t0,0v-3.58c0-.54,.44-.98,.98-.98h0"/>
    </g>
  </g>
</svg>