<svg id="Intro" xmlns="http://www.w3.org/2000/svg" xmlns:xlink="http://www.w3.org/1999/xlink" viewBox="0 0 1920 994">
  <defs>
    <style>
      .cls-1 {
        fill: none;
      }

      .cls-2 {
        clip-path: url(#clippath);
      }

      .cls-3 {
        fill: #f9bba4;
      }

      .cls-4 {
        fill: #00549f;
      }

      .cls-5 {
        fill: #00c7b2;
      }

      .cls-6 {
        fill: #ef6a56;
      }

      .cls-7 {
        fill: #fff;
      }

      .cls-8 {
        fill: #ffa02f;
      }

      .cls-9 {
        fill: #fcd900;
      }

      .cls-10 {
        fill: #e5e5e4;
      }

      .cls-11 {
        fill: #8131f4;
      }

      .cls-12 {
        fill: #b2835b;
      }

      .cls-13 {
        fill: #37424a;
      }

      .cls-14 {
        fill: #37325e;
      }

      .cls-15 {
        fill: #1b242a;
      }

      .cls-16 {
        fill: #6cc4a7;
      }

      .cls-17 {
        fill: #5359a6;
      }

      .cls-18 {
        fill: #4a436c;
      }

      .cls-19 {
        fill: #3bba96;
      }

      .cls-20 {
        fill: #567dbe;
      }

      .cls-21 {
        fill: #505d67;
      }

      .cls-22 {
        fill: #517087;
      }

      .cls-23 {
        clip-path: url(#clippath-1);
      }

      .cls-24 {
        clip-path: url(#clippath-4);
      }

      .cls-25 {
        clip-path: url(#clippath-3);
      }

      .cls-26 {
        clip-path: url(#clippath-2);
      }

      .cls-27 {
        clip-path: url(#clippath-7);
      }

      .cls-28 {
        clip-path: url(#clippath-8);
      }

      .cls-29 {
        clip-path: url(#clippath-6);
      }

      .cls-30 {
        clip-path: url(#clippath-5);
      }

      .cls-31 {
        clip-path: url(#clippath-9);
      }

      .cls-32 {
        clip-path: url(#clippath-20);
      }

      .cls-33 {
        clip-path: url(#clippath-21);
      }

      .cls-34 {
        clip-path: url(#clippath-24);
      }

      .cls-35 {
        clip-path: url(#clippath-23);
      }

      .cls-36 {
        clip-path: url(#clippath-22);
      }

      .cls-37 {
        clip-path: url(#clippath-25);
      }

      .cls-38 {
        clip-path: url(#clippath-14);
      }

      .cls-39 {
        clip-path: url(#clippath-13);
      }

      .cls-40 {
        clip-path: url(#clippath-12);
      }

      .cls-41 {
        clip-path: url(#clippath-10);
      }

      .cls-42 {
        clip-path: url(#clippath-15);
      }

      .cls-43 {
        clip-path: url(#clippath-17);
      }

      .cls-44 {
        clip-path: url(#clippath-16);
      }

      .cls-45 {
        clip-path: url(#clippath-19);
      }

      .cls-46 {
        clip-path: url(#clippath-11);
      }

      .cls-47 {
        clip-path: url(#clippath-18);
      }

      .cls-48 {
        opacity: .2;
      }

      .cls-49 {
        opacity: .2;
      }

      .cls-50 {
        fill: #0098db;
        fill-rule: evenodd;
      }
    </style>
    <clipPath id="clippath">
      <rect class="cls-1" x="1224.5" y="422.23" width="24.77" height="108.14"/>
    </clipPath>
    <clipPath id="clippath-1">
      <rect class="cls-1" x="1229.68" y="721.52" width="42.02" height="137.19"/>
    </clipPath>
    <clipPath id="clippath-2">
      <rect class="cls-1" x="1110.87" y="475.83" width="59.64" height="236.58"/>
    </clipPath>
    <clipPath id="clippath-3">
      <rect class="cls-1" x="1205.7" y="337.98" width="54.65" height="25.61"/>
    </clipPath>
    <clipPath id="clippath-4">
      <rect class="cls-1" x="1323.36" y="456.19" width="140.6" height="88.65"/>
    </clipPath>
    <clipPath id="clippath-5">
      <rect class="cls-1" x="1132.87" y="612.8" width="58.42" height="226.3"/>
    </clipPath>
    <clipPath id="clippath-6">
      <rect class="cls-1" x="888.89" y="605.63" width="80.02" height="251.18"/>
    </clipPath>
    <clipPath id="clippath-7">
      <rect class="cls-1" x="1568.25" y="777.51" width="27.52" height="80.61"/>
    </clipPath>
    <clipPath id="clippath-8">
      <rect class="cls-1" x="1011.29" y="553.95" width="37.49" height="49.52"/>
    </clipPath>
    <clipPath id="clippath-9">
      <rect class="cls-1" x="1122.61" y="847.71" width="36.57" height="10.76"/>
    </clipPath>
    <clipPath id="clippath-10">
      <rect class="cls-1" x="959.62" y="594.93" width="56.1" height="38.96"/>
    </clipPath>
    <clipPath id="clippath-11">
      <rect class="cls-1" x="1027.96" y="511.57" width="64.99" height="40.73"/>
    </clipPath>
    <clipPath id="clippath-12">
      <rect class="cls-1" x="1165.64" y="402.67" width="46" height="48.72"/>
    </clipPath>
    <clipPath id="clippath-13">
      <rect class="cls-1" x="976.81" y="650.89" width="77.84" height="176.66"/>
    </clipPath>
    <clipPath id="clippath-14">
      <rect class="cls-1" x="1067.01" y="587.56" width="31.44" height="25.23"/>
    </clipPath>
    <clipPath id="clippath-15">
      <rect class="cls-1" x="1088.76" y="562" width="17" height="20.61"/>
    </clipPath>
    <clipPath id="clippath-16">
      <rect class="cls-1" x="1079.84" y="552.45" width="7.72" height="31.86"/>
    </clipPath>
    <clipPath id="clippath-17">
      <rect class="cls-1" x="1656.87" y="556" width="46.73" height="302.11"/>
    </clipPath>
    <clipPath id="clippath-18">
      <rect class="cls-1" x="1480.42" y="502.44" width="33.55" height="75.96"/>
    </clipPath>
    <clipPath id="clippath-19">
      <rect class="cls-1" x="1405.59" y="556.08" width="10.61" height="21.03"/>
    </clipPath>
    <clipPath id="clippath-20">
      <rect class="cls-1" x="1398.69" y="513.9" width="10.2" height="37.91"/>
    </clipPath>
    <clipPath id="clippath-21">
      <rect class="cls-1" x="1677.73" y="526.24" width="39.96" height="41.96"/>
    </clipPath>
    <clipPath id="clippath-22">
      <rect class="cls-1" x="1552.45" y="397.14" width="64.35" height="54.05"/>
    </clipPath>
    <clipPath id="clippath-23">
      <rect class="cls-1" x="1436.34" y="793.53" width="39.2" height="20.25"/>
    </clipPath>
    <clipPath id="clippath-24">
      <rect class="cls-1" x="1379.83" y="837.29" width="142.28" height="20.82"/>
    </clipPath>
    <clipPath id="clippath-25">
      <rect class="cls-1" x="763" y="858.12" width="304.01" height="30.82"/>
    </clipPath>
  </defs>
  <g id="Group_797" data-name="Group 797" class="cls-49">
    <path id="Path_1126" data-name="Path 1126" class="cls-50" d="M950.87,261.5c108.08,268.24,1.4,296.72-346.01,371.83-94.3,20.39-164.46,46.4-212.57,76.81-45.03,28.48-72.33,78.04-72.32,131.33h0c-.04,32.17,9.94,63.55,28.56,89.78,14.6,20.51,33.29,41.48,55.85,62.76H1920V0H945.92c-27.59,68.29-37.4,156.4,4.96,261.5"/>
  </g>
  <g id="Group_1162" data-name="Group 1162">
    <path id="Path_1420" data-name="Path 1420" class="cls-4" d="M1522.78,508.2l-10.93,38.29c-12.79,1.43-25.68,1.6-38.5,.5-1.96-.22-3.91-.6-5.81-1.14-.4-.12-.85-.24-1.3-.36-.73-.21-1.49-.43-2.28-.66-36.16-10.93-138.98-58.77-138.98-58.77l10.34,226.35h-224.44l6.33-197.85-33.45,73-13.21,124.85h-3.53l3.53-273.46,95.07-28.76h.02l24.92-7.52,5.69-1.73,51.88-.4s27.41,5.69,62.05,12.07,101.64,53.96,129.07,71.13c38.58,24.16,47.99,25.39,83.53,24.46"/>
    <g id="Group_1086" data-name="Group 1086" class="cls-48">
      <g id="Group_1085" data-name="Group 1085">
        <g class="cls-2">
          <g id="Group_1084" data-name="Group 1084">
            <path id="Path_1421" data-name="Path 1421" d="M1249.28,446.69l-19.1-24.46-5.67,8.93,5.67,3.56v77.87l6.71,17.78-5.74-95.04,18.13,11.37Z"/>
          </g>
        </g>
      </g>
    </g>
    <path id="Path_1422" data-name="Path 1422" class="cls-11" d="M992.51,427.69s-1.96,34.55-36.05,34.55c0,0,53.42,15.37,36.05-34.55"/>
    <rect id="Rectangle_786" data-name="Rectangle 786" class="cls-22" x="1122.61" y="712.4" width="212.69" height="146.07"/>
    <g id="Group_1089" data-name="Group 1089" class="cls-48">
      <g id="Group_1088" data-name="Group 1088">
        <g class="cls-23">
          <g id="Group_1087" data-name="Group 1087">
            <path id="Path_1423" data-name="Path 1423" d="M1256.01,721.51l-26.33,136.96,42.02,.23-15.69-137.19Z"/>
          </g>
        </g>
      </g>
    </g>
    <path id="Path_1424" data-name="Path 1424" class="cls-11" d="M1021.35,416.14c-4.41,14.56-19.78,22.81-34.35,18.42-1.72-.51-3.38-1.2-4.96-2.04v-.02c-13.45-7.12-18.58-23.79-11.47-37.24,6.17-11.66,19.73-17.31,32.35-13.48,3.54,1.05,6.82,2.81,9.65,5.17,8.52,7.09,11.97,18.58,8.77,29.19"/>
    <g id="Group_1092" data-name="Group 1092" class="cls-48">
      <g id="Group_1091" data-name="Group 1091">
        <g class="cls-26">
          <g id="Group_1090" data-name="Group 1090">
            <path id="Path_1425" data-name="Path 1425" d="M1117.2,514.56l18.78-38.73,34.53,236.58h-59.64l6.33-197.86Z"/>
          </g>
        </g>
      </g>
    </g>
    <path id="Path_1426" data-name="Path 1426" class="cls-3" d="M1246.34,416.68l-17.45,7.22-34.66-8.99,6.41-79.53c-1.66,1.04-3.56,1.65-5.51,1.78-6.19,.39-11.6-4.16-12.27-10.33l-1.22-14.96c-.51-6.05,4.18-11.15,10.49-11.5,6.19-.37,11.58,4.18,12.27,10.34l.6,7.5,3.24-35.51,15.92-16.56s-2.01-23.23,3.35-27.94c10.27-9.05,56.43-1.72,56.43-1.72,0,0,.24,3.28,.57,8.61,1.11,17.57,2.74,57.45-2.62,77.36-3.47,12.88-10.05,18.24-16.17,22.04,0,0-.71,.47-1.97,1.15-5.58,3.24-11.13,5.44-12.14,11.46-3.27,19.62-5.27,59.58-5.27,59.58"/>
    <path id="Path_1427" data-name="Path 1427" class="cls-6" d="M1284.26,245.08c-.32-5.33-.56-8.62-.56-8.62,0,0-46.68-7.81-56.46,1.74-5.09,4.97-.3,21.57-3.32,27.92-2.44,5.14-15.94,16.59-15.94,16.59l-3.23,35.52-.61-7.5c-.65-6.18-6.06-10.74-12.26-10.34-5.94,.13-10.65,5.06-10.51,11,0,.16,.01,.33,.02,.49,0,0-34.82-36.13-20.09-71.01,1.39-3.29,9.24-4.17,9.74-7.62,3.8-26.09,20.38-37.87,59.22-40.95,44.85-3.56-7.52-36.33,39.7-19.14s14.31,71.91,14.31,71.91"/>
    <path id="Path_1428" data-name="Path 1428" class="cls-7" d="M1278.71,308.47l-43.37-2.74s-4.29,29.43,25.46,29.18c18.3-.15,17.9-26.44,17.9-26.44"/>
    <g id="Group_1095" data-name="Group 1095" class="cls-48">
      <g id="Group_1094" data-name="Group 1094">
        <g class="cls-25">
          <g id="Group_1093" data-name="Group 1093">
            <path id="Path_1429" data-name="Path 1429" d="M1251.38,357.1c-.56,2.13-.98,4.3-1.26,6.49-5.1,0-10.19-.62-15.14-1.84-19.69-4.64-29.27-23.78-29.27-23.78,0,0,17.4,9.78,32.27,11.85,12.3,1.68,18.46-.31,22.38-2.36-5.58,3.24-7.71,5.3-8.97,9.64"/>
          </g>
        </g>
      </g>
    </g>
    <g id="Group_1098" data-name="Group 1098" class="cls-48">
      <g id="Group_1097" data-name="Group 1097">
        <g class="cls-24">
          <g id="Group_1096" data-name="Group 1096">
            <path id="Path_1430" data-name="Path 1430" d="M1463.95,544.84c-36.16-10.93-138.98-58.77-138.98-58.77l-1.61-29.87s106.19,77.48,140.6,88.65"/>
          </g>
        </g>
      </g>
    </g>
    <path id="Path_1431" data-name="Path 1431" class="cls-14" d="M898.29,605.44h115.09v268.08h-142.89v-240.29c0-15.35,12.45-27.8,27.8-27.8"/>
    <path id="Path_1432" data-name="Path 1432" class="cls-17" d="M913.1,605.44h91.37v251.36h-115.58v-227.16c0-13.37,10.84-24.21,24.21-24.21h0"/>
    <path id="Path_1433" data-name="Path 1433" class="cls-3" d="M1304.47,847.71l-71.03-10.13,9.28,10.53,61.75-.4Z"/>
    <path id="Path_1434" data-name="Path 1434" class="cls-19" d="M1132.87,612.8s29.21,17.87,58.42,211.42v14.88l-34.03-1.81-24.39-224.49Z"/>
    <g id="Group_1101" data-name="Group 1101" class="cls-48">
      <g id="Group_1100" data-name="Group 1100">
        <g class="cls-30">
          <g id="Group_1099" data-name="Group 1099">
            <path id="Path_1435" data-name="Path 1435" d="M1132.87,612.8s29.21,17.87,58.42,211.42v14.88l-34.03-1.81-24.39-224.49Z"/>
          </g>
        </g>
      </g>
    </g>
    <path id="Path_1436" data-name="Path 1436" class="cls-3" d="M1129.8,426.58v67.27c.02,10.03-3.49,19.75-9.92,27.46,0,0-.51,.62-1.42,1.6-6.4,6.98-14.92,11.66-24.25,13.31-.18,.04-.33,.07-.47,.11-4.63,.84-7.8,2.08-9.88,3.72h-.04c-2.39,1.93-3.84,4.8-3.97,7.88v38.58s.11,.04,.36,.11c.55,.22,1.71,.62,3.39,1.17l-13.42,20.27c-.36,.07-3.17,4.74-3.17,4.74l-4.12,33.07-8.24-33.07s-1.2-5.03-1.79-5.18c-1.99-.31-3.96-.74-5.91-1.28l-21.91-18.34c1.9-.73,2.92-1.09,2.92-1.09v-75.26c-.36-.71-.68-1.44-.95-2.19-.15-.33-.29-.73-.44-1.09-.06,.02-.12,.03-.18,.04h-4.74c-5.73-.01-10.36-4.66-10.35-10.39v-18.82c-.02-5.72,4.6-10.37,10.32-10.39,.01,0,.02,0,.03,0h2.37v-42.22c0-23.8,19.28-43.09,43.08-43.1h19.6c23.8,0,43.09,19.28,43.1,43.08v.02"/>
    <path id="Path_1437" data-name="Path 1437" class="cls-7" d="M1076.61,497.81l43.59-.37s3.3,30.05-26.53,28.15c-18.34-1.17-17.06-27.79-17.06-27.79"/>
    <path id="Path_1438" data-name="Path 1438" class="cls-19" d="M1513.97,712.4v145.71h180.18l17.93-44.34v-116.87l-198.11,15.5Z"/>
    <g id="Group_1104" data-name="Group 1104" class="cls-48">
      <g id="Group_1103" data-name="Group 1103">
        <g class="cls-29">
          <g id="Group_1102" data-name="Group 1102">
            <path id="Path_1439" data-name="Path 1439" d="M950.83,605.63s-21.94,32.82-35.32,93.87c-19.79,90.29-26.63,157.32-26.63,157.32h53.05l26.97-251.18h-18.07Z"/>
          </g>
        </g>
      </g>
    </g>
    <g id="Group_1107" data-name="Group 1107" class="cls-48">
      <g id="Group_1106" data-name="Group 1106">
        <g class="cls-27">
          <g id="Group_1105" data-name="Group 1105">
            <path id="Path_1440" data-name="Path 1440" d="M1595.77,858.11l-5.97-80.59-21.55,80.6h27.52Z"/>
          </g>
        </g>
      </g>
    </g>
    <path id="Path_1441" data-name="Path 1441" class="cls-3" d="M1304.47,847.71s36.07-17.86,50.65-20.1,31.96,20.1,31.96,20.1h-82.6Z"/>
    <path id="Path_1442" data-name="Path 1442" class="cls-5" d="M1177.26,859.66l-213.03-1.56s-52.18,6.52-48.53-23.57c3.41-28.19,19.87-191.95,40-221.83v-.02c1-1.67,2.39-3.08,4.05-4.1,9.99-5.32,20.37-9.88,31.04-13.66,8.3-2.97,16.84-5.26,25.51-6.83,3.22-.52,5.81-.83,7.7-1l-12.7-26.03,13.94-7.14,23.54,2.54,4.07,51.14c.59,.14,1.8,5.17,1.8,5.17l8.23,33.08,4.12-33.08,2.09-4.6,10.74-23.88v-31.86l20.91,9.55-17,25.56c3.37,.97,8.65,2.58,14.7,4.79,10.22,3.72,22.57,9.22,31.34,16.24,18.96,15.22,47.46,251.07,47.46,251.07"/>
    <path id="Path_1443" data-name="Path 1443" class="cls-19" d="M1100.74,562l5.01,20.61-17-2.57,11.99-18.05Z"/>
    <g id="Group_1110" data-name="Group 1110" class="cls-48">
      <g id="Group_1109" data-name="Group 1109">
        <g class="cls-28">
          <g id="Group_1108" data-name="Group 1108">
            <path id="Path_1444" data-name="Path 1444" d="M1048.78,556.47l-23.55-2.52-6.45,3.3-7.49,3.83,12.71,26.03c-1.9,.17-4.48,.47-7.71,1l27.91,15.36-14.43-17.68,19.01-29.31Z"/>
          </g>
        </g>
      </g>
    </g>
    <path id="Path_1445" data-name="Path 1445" class="cls-11" d="M1129.79,432.12c-6.92-4.73-12.27-11.41-15.39-19.18,0,0-7.28,39.67-70.63,44.22,0,0-1.16,18.52-7.35,23.71-.95,.85-2.18,1.33-3.46,1.35-9.22,0-3.18-14.01-8.94-13.42h-2.37c-5.71,0-10.35,4.62-10.36,10.33,0,.02,0,.04,0,.06v18.83c0,5.73,4.63,10.38,10.36,10.39h4.75c.07,0,.14-.02,.19-.02,.14,.36,.28,.76,.43,1.09,.27,.75,.59,1.47,.95,2.18v8.87c-43.46-32.34-43.6-90.02-25.68-120.78,20.25-34.64,72.5-38.27,94.96-27.34,20.74,10.1,21.29,17.31,21.29,17.31,30.98,2.75,11.26,42.42,11.26,42.42"/>
    <path id="Path_1446" data-name="Path 1446" class="cls-3" d="M1242.72,847.71h-83.53c-1.06,0-1.93,.87-1.93,1.93v6.53c.01,.9,.63,1.68,1.5,1.9l-104.1,.05v-30.57l111.72,7.91s8.97-3.03,24.9-11.23c15.97-8.2,26.69-4.56,35.55,5.47,8.9,10.03,15.9,18.01,15.9,18.01"/>
    <path id="Path_1447" data-name="Path 1447" class="cls-12" d="M1450.77,611.5l-22.6-59.81s.43-10.87-4.01-30.38,0-33.62,0-33.62c0,0-6.18-4.25-10.63,3.09s-4.64,23.18-4.64,23.18c0,0-20.29-.19-28.02,0s-6.57,8.5-5.02,21.83,1.16,20.48,10.63,20.29c9.37-.19,18.9,0,19.11,0l9.86,61.07,35.31-5.65Z"/>
    <path id="Path_1448" data-name="Path 1448" class="cls-9" d="M1248.14,389.41l-17.96,32.82,19.1,24.46,3.39-46.15-4.53-11.13Z"/>
    <path id="Path_1449" data-name="Path 1449" class="cls-16" d="M1025.23,553.95l5.32,24.46,18.23-21.93-23.55-2.53Z"/>
    <path id="Path_1450" data-name="Path 1450" class="cls-8" d="M1731.65,637.96c-8.22-62.52-20.32-125.12-48.13-134.91-32.82-11.55-76.33-16.59-76.33-16.59l-44.76,2.15s-45.73,8.66-48.46,13.83c-9.28,17.54-54.09,124.58-54.09,124.58l62.59,127.01,181.09,1.22s-1.82-74.14-18.84-117.29h46.91Z"/>
    <path id="Path_1451" data-name="Path 1451" class="cls-12" d="M1720.13,858.11h-25.99s10.03-63.35,9.44-102.85c0,0-1.21-48.94-10.79-90.45-1.71-7.58-3.84-15.05-6.4-22.38-.43-1.47-.88-2.96-1.33-4.46h46.59c1.47,11.24,2.82,22.48,4.12,33.41,10.79,90.26-15.65,186.73-15.65,186.73"/>
    <path id="Path_1452" data-name="Path 1452" class="cls-3" d="M1686.39,642.42c-.52-1.52-1.09-3.01-1.66-4.46h.33c.45,1.49,.9,2.98,1.33,4.46"/>
    <g id="Group_1113" data-name="Group 1113" class="cls-48">
      <g id="Group_1112" data-name="Group 1112">
        <g class="cls-31">
          <g id="Group_1111" data-name="Group 1111">
            <path id="Path_1453" data-name="Path 1453" d="M1159.19,847.71l-36.57,10.76,36.13-.41,.44-10.35Z"/>
          </g>
        </g>
      </g>
    </g>
    <g id="Group_1116" data-name="Group 1116" class="cls-48">
      <g id="Group_1115" data-name="Group 1115">
        <g class="cls-41">
          <g id="Group_1114" data-name="Group 1114">
            <path id="Path_1454" data-name="Path 1454" d="M1015.73,605.58l-46.82,28.32s-10.53-24.6-9.16-25.31c9.99-5.32,20.37-9.88,31.04-13.66l24.94,10.65Z"/>
          </g>
        </g>
      </g>
    </g>
    <path id="Path_1455" data-name="Path 1455" class="cls-3" d="M1014.2,606.32l-28.5,10.52c-4.16,1.53-8.8-.34-10.73-4.32l-5.19-10.71c-2.07-4.28-.29-9.43,3.99-11.51l27.21-13.19c4.28-2.07,9.43-.29,11.51,3.99l6.49,13.38c2.07,4.28,.29,9.43-3.99,11.5-.25,.12-.51,.23-.78,.33"/>
    <g id="Group_1119" data-name="Group 1119" class="cls-48">
      <g id="Group_1118" data-name="Group 1118">
        <g class="cls-46">
          <g id="Group_1117" data-name="Group 1117">
            <path id="Path_1456" data-name="Path 1456" d="M1092.96,536.49c-4.43,.83-7.12,1.89-9.11,3.48h-.02c-1.24,.97-2.23,2.22-2.89,3.65-26.63,10.64-43.77,9.46-52.97,7.02v-39.07c9.91,10.48,26.03,19.54,40.85,24.09,8.92,2.73,17.98,1.99,24.14,.83"/>
          </g>
        </g>
      </g>
    </g>
    <g id="Group_1122" data-name="Group 1122" class="cls-48">
      <g id="Group_1121" data-name="Group 1121">
        <g class="cls-40">
          <g id="Group_1120" data-name="Group 1120">
            <path id="Path_1457" data-name="Path 1457" d="M1211.64,451.4l-46-41.21,24.92-7.52,21.08,48.72Z"/>
          </g>
        </g>
      </g>
    </g>
    <path id="Path_1458" data-name="Path 1458" class="cls-9" d="M1196.25,389.41l33.93,32.82-18.54,29.17-22.96-48.17,7.56-13.82Z"/>
    <g id="Group_1125" data-name="Group 1125" class="cls-48">
      <g id="Group_1124" data-name="Group 1124">
        <g class="cls-39">
          <g id="Group_1123" data-name="Group 1123">
            <path id="Path_1459" data-name="Path 1459" d="M1054.65,827.55s-56.99-5.57-72.99-7.84,12.71-168.83,12.71-168.83l60.28,176.66Z"/>
          </g>
        </g>
      </g>
    </g>
    <g id="Group_1128" data-name="Group 1128" class="cls-48">
      <g id="Group_1127" data-name="Group 1127">
        <g class="cls-38">
          <g id="Group_1126" data-name="Group 1126">
            <path id="Path_1460" data-name="Path 1460" d="M1098.45,592.35l-31.44,20.44,16.74-25.23c3.37,.97,8.65,2.58,14.7,4.79"/>
          </g>
        </g>
      </g>
    </g>
    <g id="Group_1131" data-name="Group 1131" class="cls-48">
      <g id="Group_1130" data-name="Group 1130">
        <g class="cls-42">
          <g id="Group_1129" data-name="Group 1129">
            <path id="Path_1461" data-name="Path 1461" d="M1100.74,562l5.01,20.61-17-2.57,11.99-18.05Z"/>
          </g>
        </g>
      </g>
    </g>
    <g id="Group_1134" data-name="Group 1134" class="cls-48">
      <g id="Group_1133" data-name="Group 1133">
        <g class="cls-44">
          <g id="Group_1132" data-name="Group 1132">
            <path id="Path_1462" data-name="Path 1462" d="M1079.84,584.31l7.72-27.83-7.72-4.03v31.87Z"/>
          </g>
        </g>
      </g>
    </g>
    <g id="Group_1137" data-name="Group 1137" class="cls-48">
      <g id="Group_1136" data-name="Group 1136">
        <g class="cls-43">
          <g id="Group_1135" data-name="Group 1135">
            <path id="Path_1463" data-name="Path 1463" d="M1694.15,858.11h-28.47s12.61-55.31,15.01-103.02c2.04-40.88-11.74-149.46-23.8-199.09,6.52,20.75,20.03,54.44,28.19,81.96,.45,1.49,.9,2.99,1.33,4.46,2.47,8.37,4.65,16,6.4,22.38,9.58,41.52,10.79,90.45,10.79,90.45,.59,39.5-9.43,102.85-9.43,102.85"/>
          </g>
        </g>
      </g>
    </g>
    <g id="Group_1140" data-name="Group 1140" class="cls-48">
      <g id="Group_1139" data-name="Group 1139">
        <g class="cls-47">
          <g id="Group_1138" data-name="Group 1138">
            <path id="Path_1464" data-name="Path 1464" d="M1513.97,502.44v75.96h-33.55l33.55-75.96Z"/>
          </g>
        </g>
      </g>
    </g>
    <g id="Group_1143" data-name="Group 1143" class="cls-48">
      <g id="Group_1142" data-name="Group 1142">
        <g class="cls-45">
          <g id="Group_1141" data-name="Group 1141">
            <path id="Path_1465" data-name="Path 1465" d="M1405.59,556.08h10.61l-7.21,21.03-3.4-21.03Z"/>
          </g>
        </g>
      </g>
    </g>
    <g id="Group_1146" data-name="Group 1146" class="cls-48">
      <g id="Group_1145" data-name="Group 1145">
        <g class="cls-32">
          <g id="Group_1144" data-name="Group 1144">
            <path id="Path_1466" data-name="Path 1466" d="M1408.89,513.96s-4.12,11.07-4.33,21.27,4.33,16.57,4.33,16.57c0,0-13.52-12.7-9.43-37.91l9.43,.06Z"/>
          </g>
        </g>
      </g>
    </g>
    <g id="Group_1149" data-name="Group 1149" class="cls-48">
      <g id="Group_1148" data-name="Group 1148">
        <g class="cls-33">
          <g id="Group_1147" data-name="Group 1147">
            <path id="Path_1467" data-name="Path 1467" d="M1677.73,526.24l16.39,41.96,23.56-7.74s-4.89-18.33-7.86-25.15-32.1-9.06-32.1-9.06"/>
          </g>
        </g>
      </g>
    </g>
    <path id="Path_1468" data-name="Path 1468" class="cls-3" d="M1677.73,526.24l15.54,26.11c2.27,3.81,7.05,5.27,11.06,3.39l10.78-5.06c4.3-2.02,6.16-7.15,4.13-11.46l-12.85-27.37c-2.02-4.3-7.15-6.16-11.46-4.14l-13.46,6.32c-4.31,2.02-6.16,7.15-4.14,11.46,.12,.25,.25,.5,.4,.74"/>
    <path id="Path_1469" data-name="Path 1469" class="cls-7" d="M1231.18,456.47c2.75,0,4.97,2.23,4.97,4.97,0,2.75-2.23,4.97-4.97,4.97-2.75,0-4.97-2.23-4.97-4.97h0c0-2.75,2.23-4.97,4.97-4.97"/>
    <path id="Path_1470" data-name="Path 1470" class="cls-7" d="M1231.18,493.22c2.75,0,4.97,2.23,4.97,4.97,0,2.75-2.23,4.97-4.97,4.97-2.75,0-4.97-2.23-4.97-4.97h0c0-2.75,2.23-4.97,4.97-4.97h0"/>
    <path id="Path_1471" data-name="Path 1471" class="cls-12" d="M1630.21,369.21v16.36c-.13,6.49-5.47,11.65-11.96,11.56-.47,0-.94-.04-1.4-.1v96.78s-17.76,11.71-34.48,11.71c-13.67,0-16.67-11.71-16.67-11.71,0,0,.16-32.43,0-42.64v-.55c-.21-9.56,.93-16.11-12.22-22.07-.1,0-.16-.05-.31-.1-.26-.1-.47-.2-.72-.3-.03-.03-.06-.05-.1-.05-5.51-2.3-10.55-5.61-14.86-9.76-.86-.79-1.67-1.62-2.43-2.5l.1-.05c-7.3-8.12-11.36-18.65-11.39-29.57v-64c.01-3.16,.34-6.31,.98-9.41,3.93,12.96,24.02-12.51,26.35-10.31,.09,.14,.16,.29,.21,.45,.72,4.9,13.56,9.26,25.73,2.65,12.06-6.56,18.48,.75,17.91,4.15-.47,3.45,10.61,15.41,5.75,25.67-4.92,10.21,9.42,6.56,2.38,19.47-7.09,12.96,3.99,35.38,3.99,19.32s11.18-16.61,11.18-16.61c6.5-.08,11.85,5.1,11.96,11.6"/>
    <path id="Path_1472" data-name="Path 1472" d="M1652.77,366.76c-8.67,15.76-1.09,31.87-13.21,36.61s-9.15,17.22-22.73,14.29v-20.62c.46,.07,.93,.11,1.39,.12,6.51,.09,11.87-5.09,12-11.6v-16.35c-.13-6.51-5.49-11.69-12-11.6,0,0-11.15,.47-11.15,16.58s-11.09-6.33-4-19.27c7.03-12.95-7.27-9.26-2.36-19.51,4.85-10.25-6.24-22.2-5.76-25.66,.54-3.4-5.88-10.72-17.94-4.16-12.12,6.62-24.97,2.29-25.7-2.64-.79-4.92-22.48,23.37-26.54,9.84,0,0-14.42,.64-18.18-10.43-3.76-11.01,12.48-11.42,11.76-20.21-.79-8.79,6.79-23.43,22.73-18.98,15.88,4.33,30.3,1.82,38.6-2.58,8.36-4.39,22-4.39,25.03,7.32s32.18-1.82,33.7,16.81c1.52,18.69,22.36,26.71,10.97,41.77-11.33,15,12.06,24.55,3.4,40.25"/>
    <g id="Group_1152" data-name="Group 1152" class="cls-48">
      <g id="Group_1151" data-name="Group 1151">
        <g class="cls-36">
          <g id="Group_1150" data-name="Group 1150">
            <path id="Path_1473" data-name="Path 1473" d="M1616.8,397.14c-14.91,40.78-38.62,51.34-51.1,54.05v-.55c-.21-9.56,.93-16.11-12.22-22.07-.1,0-.16-.05-.31-.1-.26-.1-.47-.2-.72-.3,33.65,11.46,62.74-28.82,64.35-31.03"/>
          </g>
        </g>
      </g>
    </g>
    <path id="Path_1474" data-name="Path 1474" class="cls-7" d="M1532.45,380.71l43.59-.37s3.3,30.05-26.53,28.15c-18.34-1.17-17.06-27.79-17.06-27.79"/>
    <rect id="Rectangle_809" data-name="Rectangle 809" class="cls-20" x="1157.25" y="847.7" width="277.57" height="10.42"/>
    <path id="Path_1475" data-name="Path 1475" class="cls-18" d="M1290.34,856.17c0,1.06-.87,1.92-1.93,1.93h-122.04l-7.58-.04h-.04c-.87-.22-1.49-1-1.5-1.9v-6.52c0-1.06,.87-1.92,1.93-1.93h122.69c4.67,0,8.46,3.78,8.46,8.45"/>
    <rect id="Rectangle_810" data-name="Rectangle 810" class="cls-21" x="1436.34" y="779.86" width="39.2" height="67.84"/>
    <path id="Path_1476" data-name="Path 1476" class="cls-13" d="M1532.05,847.23v10.88h-152.22v-10.88c0-5.48,4.45-9.93,9.93-9.93h132.35c5.48,0,9.93,4.45,9.93,9.93"/>
    <path id="Path_1477" data-name="Path 1477" class="cls-13" d="M1265.63,578.41h350.18c3.33,0,6.02,2.7,6.02,6.02h0v203.08c0,3.33-2.7,6.02-6.02,6.02h-350.18c-.62,0-1.12-.5-1.12-1.12v-212.88c0-.62,.5-1.12,1.12-1.12"/>
    <path id="Path_1478" data-name="Path 1478" class="cls-15" d="M1265.54,578.41h4.94c.57,0,1.02,.46,1.02,1.02v213.08c0,.57-.46,1.03-1.02,1.03h-4.94c-.57,0-1.02-.46-1.02-1.03h0v-213.08c0-.57,.46-1.02,1.02-1.02"/>
    <path id="Path_1479" data-name="Path 1479" class="cls-10" d="M1457.16,667.11c12.51,0,22.65,10.14,22.64,22.64,0,12.51-10.14,22.65-22.65,22.65s-22.64-10.14-22.64-22.65,10.14-22.64,22.65-22.64h0"/>
    <g id="Group_1155" data-name="Group 1155" class="cls-48">
      <g id="Group_1154" data-name="Group 1154">
        <g class="cls-35">
          <g id="Group_1153" data-name="Group 1153">
            <path id="Path_1480" data-name="Path 1480" d="M1475.54,798.68s-6.93,15.19-39.2,15.1v-20.25h39.2v5.15Z"/>
          </g>
        </g>
      </g>
    </g>
    <g id="Group_1158" data-name="Group 1158" class="cls-48">
      <g id="Group_1157" data-name="Group 1157">
        <g class="cls-34">
          <g id="Group_1156" data-name="Group 1156">
            <path id="Path_1481" data-name="Path 1481" d="M1522.11,837.29l-142.28,20.82v-10.88c0-5.48,4.45-9.93,9.93-9.93h132.34Z"/>
          </g>
        </g>
      </g>
    </g>
    <path id="Path_1482" data-name="Path 1482" class="cls-15" d="M772.47,858.11H1823.96c5.55,0,10.05,4.5,10.05,10.05v20.78H763v-21.35c0-5.23,4.24-9.47,9.47-9.47"/>
    <g id="Group_1161" data-name="Group 1161" class="cls-48">
      <g id="Group_1160" data-name="Group 1160">
        <g class="cls-37">
          <g id="Group_1159" data-name="Group 1159">
            <path id="Path_1483" data-name="Path 1483" d="M772.28,858.11h286.24c4.69,0,8.49,3.8,8.49,8.49h0v22.34h-304.01v-21.54c0-5.13,4.16-9.29,9.28-9.29h0"/>
          </g>
        </g>
      </g>
    </g>
    <rect id="Rectangle_814" data-name="Rectangle 814" class="cls-13" x="782.67" y="888.94" width="1031.67" height="105.06"/>
  </g>
</svg>