<svg xmlns="http://www.w3.org/2000/svg" xmlns:xlink="http://www.w3.org/1999/xlink" viewBox="0 0 1920 994">
  <defs>
    <style>
      .cls-1, .cls-2 {
        fill: none;
      }

      .cls-2 {
        stroke: #37424a;
        stroke-linecap: round;
        stroke-linejoin: round;
        stroke-width: 7.44px;
      }

      .cls-3 {
        clip-path: url(#clippath);
      }

      .cls-4 {
        fill: #f9bba4;
      }

      .cls-5 {
        fill: #00549f;
      }

      .cls-6 {
        fill: #00c7b2;
      }

      .cls-7 {
        fill: #0098db;
      }

      .cls-8 {
        fill: #007b69;
      }

      .cls-9 {
        fill: #eaeaea;
      }

      .cls-10 {
        fill: #ef6a56;
      }

      .cls-11 {
        fill: #fff;
      }

      .cls-12 {
        fill: #ffc91d;
      }

      .cls-13 {
        fill: #aa7550;
      }

      .cls-14 {
        fill: #37424a;
      }

      .cls-15 {
        fill: #4a436c;
      }

      .cls-16 {
        clip-path: url(#clippath-1);
      }

      .cls-17 {
        clip-path: url(#clippath-4);
      }

      .cls-18 {
        clip-path: url(#clippath-3);
      }

      .cls-19 {
        clip-path: url(#clippath-2);
      }

      .cls-20 {
        clip-path: url(#clippath-7);
      }

      .cls-21 {
        clip-path: url(#clippath-8);
      }

      .cls-22 {
        clip-path: url(#clippath-6);
      }

      .cls-23 {
        clip-path: url(#clippath-5);
      }

      .cls-24 {
        clip-path: url(#clippath-9);
      }

      .cls-25 {
        clip-path: url(#clippath-13);
      }

      .cls-26 {
        clip-path: url(#clippath-12);
      }

      .cls-27 {
        clip-path: url(#clippath-10);
      }

      .cls-28 {
        clip-path: url(#clippath-11);
      }

      .cls-29 {
        fill: #7f30c4;
        fill-rule: evenodd;
        opacity: .2;
      }

      .cls-30 {
        opacity: .2;
      }
    </style>
    <clipPath id="clippath">
      <rect class="cls-1" x="1467.46" y="251.57" width="32.97" height="65.64"/>
    </clipPath>
    <clipPath id="clippath-1">
      <rect class="cls-1" x="1428.76" y="374.36" width="17.11" height="8.23"/>
    </clipPath>
    <clipPath id="clippath-2">
      <rect class="cls-1" x="1556.18" y="255.9" width="33.39" height="61.31"/>
    </clipPath>
    <clipPath id="clippath-3">
      <rect class="cls-1" x="1359.55" y="295.48" width="29.47" height="13.3"/>
    </clipPath>
    <clipPath id="clippath-4">
      <rect class="cls-1" x="1177.94" y="348.98" width="16.49" height="15.62"/>
    </clipPath>
    <clipPath id="clippath-5">
      <rect class="cls-1" x="1221.13" y="364.72" width="18" height="17.87"/>
    </clipPath>
    <clipPath id="clippath-6">
      <rect class="cls-1" x="1533.74" y="236.53" width="6.58" height="21.32"/>
    </clipPath>
    <clipPath id="clippath-7">
      <rect class="cls-1" x="1518.07" y="238" width="7.2" height="15.25"/>
    </clipPath>
    <clipPath id="clippath-8">
      <rect class="cls-1" x="1514.82" y="180.3" width="29.91" height="26.84"/>
    </clipPath>
    <clipPath id="clippath-9">
      <rect class="cls-1" x="1046.01" y="555.99" width="49.15" height="121.94"/>
    </clipPath>
    <clipPath id="clippath-10">
      <rect class="cls-1" x="1050.8" y="347.85" width="30.11" height="16.76"/>
    </clipPath>
    <clipPath id="clippath-11">
      <rect class="cls-1" x="1087.41" y="419.76" width="38.87" height="134.31"/>
    </clipPath>
    <clipPath id="clippath-12">
      <rect class="cls-1" x="1125.13" y="859.34" width="20.17" height="13.62"/>
    </clipPath>
    <clipPath id="clippath-13">
      <rect class="cls-1" x="1028.49" y="859.34" width="20.17" height="13.62"/>
    </clipPath>
  </defs>
  <g id="Navigate">
    <g id="Group_1477" data-name="Group 1477">
      <g id="Group_1474" data-name="Group 1474">
        <path id="Path_1698" data-name="Path 1698" class="cls-15" d="M-1273.56,871.29H21.02c.54,0,.98,.44,.98,.98h0v3.58c0,.54-.44,.98-.98,.98H-1273.56c-.54,0-.98-.44-.98-.98t0,0v-3.58c0-.54,.44-.98,.98-.98h0"/>
      </g>
    </g>
  </g>
  <g id="Download">
    <g id="Group_797" data-name="Group 797">
      <path id="Path_1126" data-name="Path 1126" class="cls-29" d="M950.88,261.5c108.08,268.24,1.4,296.72-346.01,371.83-94.3,20.39-164.46,46.4-212.57,76.81-45.03,28.48-72.33,78.04-72.32,131.33h0c-.04,32.17,9.94,63.55,28.56,89.78,14.6,20.51,33.29,41.48,55.85,62.76H1920V0H945.92c-27.59,68.29-37.4,156.4,4.96,261.5"/>
    </g>
    <g id="Group_1605" data-name="Group 1605">
      <rect id="Rectangle_941" data-name="Rectangle 941" class="cls-15" x="1460.94" y="722.44" width="133.35" height="7.79"/>
      <path id="Path_1774" data-name="Path 1774" class="cls-15" d="M1506.81,872.89h-18.5l-77.9-345.94h18.5l77.9,345.94Z"/>
      <path id="Path_1775" data-name="Path 1775" class="cls-15" d="M1641.46,872.89h-18.5l-77.9-345.94h18.5l77.9,345.94Z"/>
      <rect id="Rectangle_942" data-name="Rectangle 942" class="cls-15" x="1478.19" y="780.95" width="133.35" height="7.79"/>
      <rect id="Rectangle_943" data-name="Rectangle 943" class="cls-15" x="1490.71" y="833.72" width="133.35" height="7.79"/>
      <g id="Group_1603" data-name="Group 1603">
        <path id="Path_1776" data-name="Path 1776" class="cls-9" d="M1074.8,316.94h559.03c8.65,0,15.66,7.01,15.66,15.66h0v348.54c0,8.65-7.01,15.66-15.66,15.66h-559.03c-8.65,0-15.66-7.01-15.66-15.66h0V332.6c0-8.65,7.01-15.66,15.66-15.66"/>
        <path id="Path_1777" data-name="Path 1777" class="cls-14" d="M1366.97,625.45h-181.61c-11.59,0-20.98-9.39-20.98-20.98h0v-173.62c0-11.59,9.39-20.98,20.98-20.98h181.61c11.59,0,20.98,9.39,20.98,20.98v173.62c0,11.59-9.39,20.98-20.98,20.98"/>
        <path id="Path_1778" data-name="Path 1778" class="cls-7" d="M1522.74,229.11l-7.95,50.5-14.35,15.87h-37.42c5.3-13.07,11.91-28.42,17.94-39.91,12.87-24.48,41.78-26.46,41.78-26.46"/>
        <path id="Path_1779" data-name="Path 1779" class="cls-5" d="M1500.44,295.48l-23.4,21.72h-23.7s3.67-6.97,9.69-21.72h37.41Z"/>
        <g id="Group_1563" data-name="Group 1563" class="cls-30">
          <g id="Group_1562" data-name="Group 1562">
            <g class="cls-3">
              <g id="Group_1561" data-name="Group 1561">
                <path id="Path_1780" data-name="Path 1780" d="M1493.83,251.57c-5.83,9.06-10.67,18.72-14.43,28.81-3.65,10.37-11.93,36.82-11.93,36.82h10.48l22.49-56.58-6.61-9.06Z"/>
              </g>
            </g>
          </g>
        </g>
        <rect id="Rectangle_945" data-name="Rectangle 945" class="cls-5" x="1177.95" y="295.48" width="287.95" height="87.11"/>
        <path id="Path_1781" data-name="Path 1781" class="cls-11" d="M1402.63,322.33v33.39c0,2.98-2.42,5.4-5.4,5.4h-150.64c-2.98,0-5.4-2.42-5.4-5.4v-33.39c0-2.98,2.42-5.4,5.4-5.4h150.64c2.98,0,5.4,2.42,5.4,5.4h0"/>
        <g id="Group_1566" data-name="Group 1566" class="cls-30">
          <g id="Group_1565" data-name="Group 1565">
            <g class="cls-16">
              <g id="Group_1564" data-name="Group 1564">
                <path id="Path_1782" data-name="Path 1782" d="M1443.93,374.36l-15.16,8.23h17.11l-1.95-8.23Z"/>
              </g>
            </g>
          </g>
        </g>
        <path id="Path_1783" data-name="Path 1783" class="cls-7" d="M1544.74,229.11h-21.99s-24.94,2.43-33.1,33.72-12.58,54.38-12.58,54.38h106.16l9.8-12.06-48.29-76.04Z"/>
        <g id="Group_1569" data-name="Group 1569" class="cls-30">
          <g id="Group_1568" data-name="Group 1568">
            <g class="cls-19">
              <g id="Group_1567" data-name="Group 1567">
                <path id="Path_1784" data-name="Path 1784" d="M1556.18,255.9l1.79,61.31h31.6l-33.39-61.31Z"/>
              </g>
            </g>
          </g>
        </g>
        <path id="Path_1785" data-name="Path 1785" class="cls-4" d="M1394.72,297.7c.11,3.18-1.94,5.92-4.72,6.28l-.98,.11-18.81,2.38c-3.12,.38-5.88-2.31-6.01-5.88l-.2-5.05c-.06-1.43,.35-2.84,1.15-4.03,.9-1.35,2.39-2.19,4.01-2.27l19.83-.73c2.96-.11,5.47,2.54,5.61,5.9l.12,3.29Z"/>
        <g id="Group_1572" data-name="Group 1572" class="cls-30">
          <g id="Group_1571" data-name="Group 1571">
            <g class="cls-18">
              <g id="Group_1570" data-name="Group 1570">
                <path id="Path_1786" data-name="Path 1786" d="M1389.02,304.09c-.8,1.18-2.06,1.97-3.47,2.16l-19.78,2.49c-3.12,.38-5.88-2.32-6.01-5.88l-.2-5.03c-.03-.8,.09-1.6,.33-2.36h4.12v.07l.2,5.05c.14,3.56,2.89,6.25,6.01,5.88l18.8-2.38Z"/>
              </g>
            </g>
          </g>
        </g>
        <path id="Path_1787" data-name="Path 1787" class="cls-4" d="M1614.33,354.37c-.14,20.36-133.52,26.82-133.52,26.82,0,0-20.56,11.73-25.95,12.02-5.36,.27-9.59-10.73-10.99-17.52-1.42-6.79,22.03-6.99,22.03-6.99v-9.55s9.97,5.25,13.31,8.66c4.87-.87,63.25-11.31,80.83-15.2,17.8-3.94,25.71-1.83,19.36-30.53h31.2c2.49,13.46,3.76,24.86,3.72,32.29"/>
        <path id="Path_1788" data-name="Path 1788" class="cls-4" d="M1544.73,180.26v48.85h-21.99v-20.52c0-.49-.02-.98-.04-1.45-.56-10.73-7.43-12.08-7.88-12.33,1.76,.34,3.55,.51,5.34,.51,10.36,.01,19.85-5.79,24.55-15.02,0-.02,.02-.02,.02-.04"/>
        <path id="Path_1789" data-name="Path 1789" class="cls-4" d="M1547.71,145.85v21.95c0,15.2-12.32,27.53-27.53,27.53,0,0-.02,0-.02,0-1.79,0-3.58-.17-5.34-.51-12.89-2.56-22.18-13.87-22.19-27.02v-21.95c-.16-15.21,12.04-27.67,27.25-27.83s27.67,12.04,27.83,27.25c0,.19,0,.38,0,.58h0Z"/>
        <path id="Path_1790" data-name="Path 1790" class="cls-4" d="M1544.71,156.82h.07c3.76,0,6.81,3.05,6.81,6.81v9.62c0,3.76-3.05,6.81-6.81,6.81h-.07c-3.76,0-6.81-3.05-6.81-6.81v-9.61c0-3.76,3.05-6.81,6.81-6.81"/>
        <path id="Path_1791" data-name="Path 1791" class="cls-10" d="M1551.58,170.62v-6.99c0-3.76-3.05-6.81-6.81-6.81h-.07c-3.76,0-6.81,3.05-6.81,6.81v6.99l-4.43-16.09-4.65-2.23-3.69-12.6h-31.8l-.57,3.55s-4.9-3.21-7.25-14.31c-3.42-16.14,14.38-28.94,14.38-28.94,0,0-2.03,8.35,2.05,11.88,4.07,3.52,17.25-1.87,30.05,.36s21.57,9.1,19.61,18.92c4.38,1.72,7.87,5.13,9.7,9.46,2.96,7.24-9.7,30-9.7,30"/>
        <path id="Path_1792" data-name="Path 1792" class="cls-4" d="M1522.74,229.1l2.52,8.9,2.26,19.84,6.22-21.32,11-7.42-13.46-7.01-8.54,7.01Z"/>
        <path id="Path_1793" data-name="Path 1793" class="cls-5" d="M1544.84,225.93l-1.04,31.91-10.06-21.32,11.1-10.6Z"/>
        <path id="Path_1794" data-name="Path 1794" class="cls-5" d="M1522.74,226.48l-9.13,24,11.65-12.47-2.52-11.53Z"/>
        <path id="Path_1795" data-name="Path 1795" class="cls-11" d="M1499.16,172.43h28.7s1.46,16.02-15.59,15.27c-13.39-.59-13.11-15.27-13.11-15.27"/>
        <path id="Path_1796" data-name="Path 1796" class="cls-5" d="M1607.65,307.63c-1.47-6.52-3.09-13.22-4.85-19.74h-33.94c2.47,6.81,4.78,13.51,6.68,19.74,1.29,4.16,2.38,8.08,3.23,11.66,.22,.94,.42,1.85,.62,2.72l.02,.07h31.2v-.05c-.85-4.59-1.85-9.42-2.96-14.4"/>
        <g id="Group_1575" data-name="Group 1575" class="cls-30">
          <g id="Group_1574" data-name="Group 1574">
            <g class="cls-17">
              <g id="Group_1573" data-name="Group 1573">
                <path id="Path_1797" data-name="Path 1797" d="M1194.44,348.98l-16.5,15.62v-13.15l16.5-2.47Z"/>
              </g>
            </g>
          </g>
        </g>
        <g id="Group_1578" data-name="Group 1578" class="cls-30">
          <g id="Group_1577" data-name="Group 1577">
            <g class="cls-23">
              <g id="Group_1576" data-name="Group 1576">
                <path id="Path_1798" data-name="Path 1798" d="M1239.13,364.72l-18,17.87h14.26l3.74-17.87Z"/>
              </g>
            </g>
          </g>
        </g>
        <path id="Path_1799" data-name="Path 1799" class="cls-7" d="M1602.8,287.89h-33.94c-10.48-28.69-24.12-58.78-24.12-58.78,0,0,23.48,2.94,35.28,10.19,8.97,5.52,16.72,26.08,22.79,48.59"/>
        <g id="Group_1581" data-name="Group 1581" class="cls-30">
          <g id="Group_1580" data-name="Group 1580">
            <g class="cls-22">
              <g id="Group_1579" data-name="Group 1579">
                <path id="Path_1800" data-name="Path 1800" d="M1533.74,236.53l3.94,21.32,2.64-7.37-6.58-13.94Z"/>
              </g>
            </g>
          </g>
        </g>
        <g id="Group_1584" data-name="Group 1584" class="cls-30">
          <g id="Group_1583" data-name="Group 1583">
            <g class="cls-20">
              <g id="Group_1582" data-name="Group 1582">
                <path id="Path_1801" data-name="Path 1801" d="M1525.26,238l-7.2,15.25,.07-7.63,7.13-7.62Z"/>
              </g>
            </g>
          </g>
        </g>
        <g id="Group_1587" data-name="Group 1587" class="cls-30">
          <g id="Group_1586" data-name="Group 1586">
            <g class="cls-21">
              <g id="Group_1585" data-name="Group 1585">
                <path id="Path_1802" data-name="Path 1802" d="M1544.73,182.46s-5.9,19.54-22.03,24.68c-.56-10.73-7.43-12.09-7.88-12.33,1.76,.34,3.55,.51,5.34,.51,10.36,.01,19.85-5.79,24.55-15.02l.02,2.16Z"/>
              </g>
            </g>
          </g>
        </g>
        <path id="Path_1803" data-name="Path 1803" class="cls-11" d="M1521.68,258.5c1.72,0,3.11,1.39,3.11,3.11s-1.39,3.11-3.11,3.11-3.11-1.39-3.11-3.11,1.39-3.11,3.11-3.11h0"/>
        <path id="Path_1804" data-name="Path 1804" class="cls-11" d="M1520.09,273.81c1.72,0,3.11,1.39,3.11,3.11s-1.39,3.11-3.11,3.11-3.11-1.39-3.11-3.11,1.39-3.11,3.11-3.11h0"/>
        <path id="Path_1805" data-name="Path 1805" class="cls-14" d="M1036.89,826.91h23.17c-6.08,19.34-10.77,32.45-10.77,32.45h-17.1s1.98-13.17,4.7-32.45"/>
        <path id="Path_1806" data-name="Path 1806" class="cls-14" d="M1069.69,794.46c-1.98,7.1-3.96,13.93-5.92,20.34h-25.19c.87-6.41,1.8-13.27,2.74-20.34h28.38Z"/>
        <path id="Path_1807" data-name="Path 1807" class="cls-13" d="M1092.9,696.79c-3.78,25.17-13.82,64.18-23.21,97.68h-28.38c4.54-34.39,9.31-74.28,10.39-97.68h41.19Z"/>
        <path id="Path_1808" data-name="Path 1808" class="cls-8" d="M1095.15,634.84v.02c-.02,17.49-.24,33.47-.56,43.07-.09,2.78-.2,5.03-.29,6.61-.24,3.54-.71,7.68-1.4,12.26h-41.2c.11-2.47,.18-4.74,.22-6.81,.51-34.94-26.22-90.81-36.52-132.96l30.6-1.05,12.95-.42,34.3-1.18c.78,6.23,1.29,19.21,1.56,34.72,.29,14.2,.38,30.53,.33,45.74"/>
        <path id="Path_1809" data-name="Path 1809" class="cls-14" d="M1129.32,826.91h20.92c-2.69,19.18-4.94,32.45-4.94,32.45l-16.98-.02s.65-13.06,1-32.43"/>
        <path id="Path_1810" data-name="Path 1810" class="cls-14" d="M1154.38,794.46c-.8,7.06-1.67,13.91-2.49,20.34h-22.41c.04-6.39,.07-13.24,0-20.34h24.9Z"/>
        <g id="Group_1590" data-name="Group 1590" class="cls-30">
          <g id="Group_1589" data-name="Group 1589">
            <g class="cls-24">
              <g id="Group_1588" data-name="Group 1588">
                <path id="Path_1811" data-name="Path 1811" d="M1095.15,634.84v.02c-.02,17.49-.24,33.47-.56,43.07l-48.59-121.94,48.81,33.12c.29,14.2,.38,30.53,.33,45.74"/>
              </g>
            </g>
          </g>
        </g>
        <path id="Path_1812" data-name="Path 1812" class="cls-13" d="M1164.1,696.79c-1.11,19.89-5.58,61.52-9.71,97.68h-24.92c-.27-32.81-1.63-71.2-5.8-97.68h40.44Z"/>
        <path id="Path_1813" data-name="Path 1813" class="cls-8" d="M1164.37,690.67c-.03,1.72-.1,3.76-.27,6.12h-40.43c-.03-.24-.08-.46-.1-.68-3.4-14.64-15.1-37.9-28.4-61.27-22.28-39.23-49.14-78.85-49.14-78.85l12.95-.43,34.28-1.17,33.03-1.11s38.73,102.71,38.08,137.4"/>
        <path id="Path_1814" data-name="Path 1814" class="cls-13" d="M1270.87,382.4l-27.21,.45s.68-9.75,0-14.51-4.53-3.63-4.53-3.63l-6.13,29.3c-6.54,5.77-59.06,51.55-70.53,44.76-3.29-1.96-6.75-4.14-10.42-6.61l-26.91,16.38c19.13,12.87,40.78,23.47,53.44,13.79,19.47-14.9,55.77-53.76,61.95-60.43,23.82-5.54,30.34-19.51,30.34-19.51"/>
        <path id="Path_1815" data-name="Path 1815" class="cls-13" d="M1187.64,344.62c-3.19,.09-6.38-.19-9.5-.84l-.2-25.26s-10.05,8.68-13.76,28.65l-65.98,67,15.29,13.44,58.46-75.26,22.5-3.37s-.45-4.36-6.8-4.36"/>
        <path id="Path_1816" data-name="Path 1816" class="cls-10" d="M1145.41,859.36l30.7,11.68c.51,.22,.74,.81,.52,1.32-.16,.37-.52,.6-.93,.6h-50.56c-.13,0-.24-.11-.24-.24,0-.02,0-.03,0-.05l3.18-13.13c.03-.11,.12-.19,.24-.19h17s.07,0,.1,.02"/>
        <path id="Path_1817" data-name="Path 1817" class="cls-10" d="M1049.3,859.36l30.7,11.68c.51,.22,.74,.81,.52,1.32-.16,.37-.52,.6-.93,.6h-50.56c-.13,0-.24-.11-.24-.24,0-.02,0-.03,0-.05l3.18-13.13c.02-.11,.12-.19,.24-.19h17s.07,0,.1,.02"/>
        <path id="Path_1818" data-name="Path 1818" class="cls-13" d="M1080.91,352.5s0,.03-.02,.05c-2.24,1.29-4.09,3.17-5.34,5.43l-.02,.02c-1.88,3.31-2.85,7.06-2.83,10.86-.07,4.99-.29,19.96-.29,19.96h-21.97l.36-24.21,.24-16.76c8.14,7.37,19.88,9.2,29.87,4.65"/>
        <path id="Path_1819" data-name="Path 1819" class="cls-13" d="M1080.92,352.49c-13.86,6.29-30.2,.16-36.49-13.7-1.68-3.7-2.52-7.73-2.46-11.79l.34-21.91c0-.85,.07-1.71,.16-2.55,1.66-15.12,15.26-26.03,30.38-24.37,14.12,1.55,24.75,13.58,24.54,27.78l-.34,21.91c-.16,10.64-6.44,20.23-16.12,24.64"/>
        <g id="Group_1593" data-name="Group 1593" class="cls-30">
          <g id="Group_1592" data-name="Group 1592">
            <g class="cls-27">
              <g id="Group_1591" data-name="Group 1591">
                <path id="Path_1820" data-name="Path 1820" d="M1080.91,352.5s0,.03-.02,.05c-2.24,1.29-4.09,3.17-5.34,5.43l-.02,.02c-4.45,3.16-12.17,6.57-24.73,6.61l.24-16.76c8.14,7.37,19.88,9.2,29.87,4.65"/>
              </g>
            </g>
          </g>
        </g>
        <path id="Path_1821" data-name="Path 1821" d="M1097.36,304.87c-3.53,3.83-9.98-6.17-9.76,1.14,.25,7.33-9.46,3.2-5.91,11.16,3.55,7.93-1.42,13.17-1.42,13.17l-.17-5.74c-.08-3.74-3.18-6.7-6.92-6.61-.02,0-.04,0-.06,0h-.05c-3.76,.1-6.72,3.23-6.61,6.99l.25,9.61c.11,3.76,3.24,6.72,7,6.61,0,0,0,0,0,0h.05c.52-.02,1.05-.09,1.56-.21,0,0-1.81,12.02-7.11,15.23-5.3,3.18-6.69-3.49-10.57,0-3.91,3.52-11.15-1.77-11.41-5.74s-1.51-4.69-5.53-5.45c-4.02-.79,.45-9.01-2.78-12.29-3.26-3.25-6.46-8.32-3.45-13.99,2.99-5.64-2.66-7.29-4.1-17.52-1.47-10.26,13.49-14.18,13.49-14.18,.35-15.89,9.33-8.57,21.49-15.28,12.19-6.68,16.1,8.74,21.78,4.38,5.67-4.4,12.67,1.53,10.66,7.47s4.36,6.98,7.04,12.39c2.65,5.41-3.91,5.06-7.47,8.86"/>
        <path id="Path_1822" data-name="Path 1822" class="cls-6" d="M1126.28,553.27l-33.03,1.11-34.28,1.17-43.56,1.47c-.44-1.66-.79-3.29-1.14-4.9-9.06-42.61-4.62-114.71,5.83-138.3,10.42-23.59,31.72-24.7,31.72-24.7h22.01s25.85,.9,32.4,28.79c6.58,27.9,20.05,135.36,20.05,135.36"/>
        <path id="Path_1823" data-name="Path 1823" class="cls-6" d="M1152.05,432.17l-26.91,16.38c-13.11-8.81-25.03-18.64-32.05-23.73-17.9-12.92-16.32-35.7-16.32-35.7,0,0,16.79,1.12,38.09,16.54,15.56,11.26,27.26,19.86,37.19,26.5"/>
        <path id="Path_1824" data-name="Path 1824" class="cls-14" d="M1233,394.02l7.53,7.89-10.56,11.22-8.14-9.55,11.17-9.55Z"/>
        <g id="Group_1596" data-name="Group 1596" class="cls-30">
          <g id="Group_1595" data-name="Group 1595">
            <g class="cls-28">
              <g id="Group_1594" data-name="Group 1594">
                <path id="Path_1825" data-name="Path 1825" d="M1110.01,437.7l-22.6-17.95,15.2,134.32,23.66-.8-16.26-115.57Z"/>
              </g>
            </g>
          </g>
        </g>
        <path id="Path_1826" data-name="Path 1826" class="cls-12" d="M1063.77,814.8c-1.27,4.25-2.52,8.3-3.72,12.11h-23.17c.54-3.81,1.09-7.88,1.69-12.11h25.2Z"/>
        <path id="Path_1827" data-name="Path 1827" class="cls-12" d="M1151.89,814.8c-.56,4.25-1.11,8.3-1.65,12.11h-20.92c.07-3.81,.11-7.86,.15-12.11h22.41Z"/>
        <g id="Group_1599" data-name="Group 1599" class="cls-30">
          <g id="Group_1598" data-name="Group 1598">
            <g class="cls-26">
              <g id="Group_1597" data-name="Group 1597">
                <path id="Path_1828" data-name="Path 1828" d="M1145.31,859.34l-20.17,13.62,3.17-13.62h17Z"/>
              </g>
            </g>
          </g>
        </g>
        <g id="Group_1602" data-name="Group 1602" class="cls-30">
          <g id="Group_1601" data-name="Group 1601">
            <g class="cls-25">
              <g id="Group_1600" data-name="Group 1600">
                <path id="Path_1829" data-name="Path 1829" d="M1048.66,859.34l-20.17,13.62,3.18-13.62h16.99Z"/>
              </g>
            </g>
          </g>
        </g>
        <path id="Path_1830" data-name="Path 1830" class="cls-15" d="M879.78,872.89h919.21c.46,.04,.81,.44,.78,.9v2.14c.03,.46-.32,.86-.78,.9H879.78c-.46-.04-.81-.44-.78-.9v-2.14c-.03-.46,.32-.86,.78-.9"/>
        <line id="Line_179" data-name="Line 179" class="cls-2" x1="1581.41" y1="431.5" x2="1432.21" y2="431.5"/>
        <line id="Line_180" data-name="Line 180" class="cls-2" x1="1581.41" y1="450.55" x2="1432.21" y2="450.55"/>
        <line id="Line_181" data-name="Line 181" class="cls-2" x1="1581.41" y1="469.6" x2="1432.21" y2="469.6"/>
        <line id="Line_182" data-name="Line 182" class="cls-2" x1="1581.41" y1="488.65" x2="1432.21" y2="488.65"/>
      </g>
    </g>
  </g>
</svg>