<?xml version="1.0" encoding="UTF-8"?>
<svg id="org-board" xmlns="http://www.w3.org/2000/svg" xmlns:xlink="http://www.w3.org/1999/xlink" viewBox="0 0 905.21 678.33">
  <defs>
    <style>
      .cls-1, .cls-2, .cls-3 {
        fill: none;
      }

      .cls-4 {
        fill: url(#linear-gradient);
      }

      .cls-5 {
        clip-path: url(#clippath);
      }

      .cls-6 {
        fill: #f9bba4;
      }

      .cls-7 {
        fill: #00549f;
      }

      .cls-8 {
        fill: #00c7b2;
      }

      .cls-9 {
        fill: #0098db;
      }

      .cls-10 {
        fill: #013e6b;
      }

      .cls-11 {
        fill: #fff;
      }

      .cls-12 {
        fill: #ffa02f;
      }

      .cls-13 {
        fill: #ffc91d;
      }

      .cls-14 {
        fill: #fcd900;
      }

      .cls-15 {
        fill: #8131f4;
      }

      .cls-16 {
        fill: #937058;
      }

      .cls-17 {
        fill: #bdb1a6;
      }

      .cls-18 {
        fill: #bfc0c1;
      }

      .cls-19 {
        fill: #d3584a;
      }

      .cls-20 {
        fill: #dad7cb;
      }

      .cls-21 {
        fill: #37424a;
      }

      .cls-22 {
        fill: #1b242a;
      }

      .cls-23 {
        fill: #5359a6;
      }

      .cls-24 {
        fill: #4a436c;
      }

      .cls-25 {
        fill: #3bba96;
      }

      .cls-26 {
        fill: #567dbe;
      }

      .cls-27 {
        fill: #5817bf;
      }

      .cls-28 {
        clip-path: url(#clippath-1);
      }

      .cls-29 {
        clip-path: url(#clippath-4);
      }

      .cls-30 {
        clip-path: url(#clippath-3);
      }

      .cls-31 {
        clip-path: url(#clippath-2);
      }

      .cls-32 {
        clip-path: url(#clippath-7);
      }

      .cls-33 {
        clip-path: url(#clippath-8);
      }

      .cls-34 {
        clip-path: url(#clippath-6);
      }

      .cls-35 {
        clip-path: url(#clippath-5);
      }

      .cls-36 {
        clip-path: url(#clippath-9);
      }

      .cls-37 {
        clip-path: url(#clippath-20);
      }

      .cls-38 {
        clip-path: url(#clippath-21);
      }

      .cls-39 {
        clip-path: url(#clippath-23);
      }

      .cls-40 {
        clip-path: url(#clippath-22);
      }

      .cls-41 {
        clip-path: url(#clippath-14);
      }

      .cls-42 {
        clip-path: url(#clippath-13);
      }

      .cls-43 {
        clip-path: url(#clippath-12);
      }

      .cls-44 {
        clip-path: url(#clippath-10);
      }

      .cls-45 {
        clip-path: url(#clippath-15);
      }

      .cls-46 {
        clip-path: url(#clippath-17);
      }

      .cls-47 {
        clip-path: url(#clippath-16);
      }

      .cls-48 {
        clip-path: url(#clippath-19);
      }

      .cls-49 {
        clip-path: url(#clippath-11);
      }

      .cls-50 {
        clip-path: url(#clippath-18);
      }

      .cls-51 {
        opacity: .2;
      }

      .cls-52 {
        opacity: .3;
      }

      .cls-53 {
        opacity: .5;
      }

      .cls-2 {
        stroke: #567dbe;
        stroke-width: 1.17px;
      }

      .cls-3 {
        stroke: #dbdbdb;
        stroke-linecap: round;
        stroke-linejoin: round;
        stroke-width: 2.33px;
      }
    </style>
    <clipPath id="clippath">
      <rect class="cls-1" width="905.2" height="678.33"/>
    </clipPath>
    <clipPath id="clippath-1">
      <rect class="cls-1" x="235.16" y="111.24" width="223.61" height="223.62"/>
    </clipPath>
    <clipPath id="clippath-2">
      <rect class="cls-1" x="494.44" y="243.08" width="243.75" height="89.84"/>
    </clipPath>
    <clipPath id="clippath-3">
      <rect class="cls-1" x="547.52" y="121.53" width="20.59" height="66.91"/>
    </clipPath>
    <clipPath id="clippath-4">
      <rect class="cls-1" x="594.94" y="121.53" width="20.59" height="66.91"/>
    </clipPath>
    <clipPath id="clippath-5">
      <rect class="cls-1" x="631.93" y="95.79" width="115.94" height="115.94"/>
    </clipPath>
    <clipPath id="clippath-6">
      <rect class="cls-1" x="673.42" y="138.25" width="27.03" height="55.25"/>
    </clipPath>
    <clipPath id="clippath-7">
      <rect class="cls-1" x="551.56" y="172.46" width="15.64" height="29.17"/>
    </clipPath>
    <clipPath id="clippath-8">
      <rect class="cls-1" x="550.17" y="153.64" width="37.35" height="54.34"/>
    </clipPath>
    <clipPath id="clippath-9">
      <rect class="cls-1" x="723.55" y="104.62" width="14.01" height="24.21"/>
    </clipPath>
    <clipPath id="clippath-10">
      <rect class="cls-1" x="746.78" y="180.67" width="24.47" height="11.09"/>
    </clipPath>
    <clipPath id="clippath-11">
      <path class="cls-1" d="M739.56,195.11c-.44,.42-.45,1.12-.03,1.55,.09,.09,8.12,8.87,6.46,28.26,0,.09,.02,.18,.02,.29-2.18,.4-4.37,.86-6.46,1.41-.18,.05-.35,.09-.51,.13-2.13,.56-4.23,1.22-6.29,1.98l-.33,.13c-.33,.11-.62,.24-.93,.35-.42,.2-.82,.35-1.19,.53-.22,.1-.43,.21-.65,.31-1.07,.49-2.03,.96-2.82,1.36-1.46,.75-2.36,1.28-2.36,1.28-1.26,13.85-2.65,28.63-4.01,42.86-1.1,11.58-2.18,22.81-3.13,32.84-1.85,19.3-3.22,34.21-3.42,39.02v.02l-.07,1.61s-1.26,15.33-3.09,36.33c-.33,3.73-.66,7.66-1.01,11.69v.07c-1.63,18.68-3.57,40.04-5.4,58.74h108.63c3.81-49.11,4.36-98.42,1.65-147.6-.71-11.89-1.65-23.51-2.87-34.63-1.63-16.19-4.2-32.26-7.7-48.15,0,0-3.53-.57-9.22-1.15,.03-.07,.04-.15,.02-.22-1.63-17.36-8.76-26.85-9.04-27.22-.35-.48-1.02-.6-1.51-.25-.01,0-.03,.02-.04,.03-.49,.36-.59,1.05-.23,1.54,0,0,0,0,0,0,.07,.09,6.97,9.31,8.6,25.9-11.09-1.04-28.52-1.86-44.47,.7,1.66-20.27-6.71-29.31-7.08-29.69-.42-.44-1.12-.45-1.55-.03"/>
    </clipPath>
    <linearGradient id="linear-gradient" x1="-7.76" y1="756.76" x2="-7.76" y2="756.76" gradientTransform="translate(879.1 197898.9) scale(113.24 -261.08)" gradientUnits="userSpaceOnUse">
      <stop offset="0" stop-color="#ffdb00"/>
      <stop offset="1" stop-color="#ff9e16"/>
    </linearGradient>
    <clipPath id="clippath-12">
      <rect class="cls-1" width="905.2" height="678.33"/>
    </clipPath>
    <clipPath id="clippath-13">
      <rect class="cls-1" x="709.74" y="226.74" width="29.29" height="170.33"/>
    </clipPath>
    <clipPath id="clippath-14">
      <rect class="cls-1" x="761.85" y="455.88" width="51.12" height="10.4"/>
    </clipPath>
    <clipPath id="clippath-15">
      <rect class="cls-1" x="703.39" y="455.88" width="50.24" height="10.4"/>
    </clipPath>
    <clipPath id="clippath-16">
      <rect class="cls-1" x="797.28" y="660.09" width="29.97" height="14.34"/>
    </clipPath>
    <clipPath id="clippath-17">
      <rect class="cls-1" x="671.98" y="660.09" width="29.97" height="14.34"/>
    </clipPath>
    <clipPath id="clippath-18">
      <rect class="cls-1" x="189.86" y="656.42" width="107.07" height="17.99"/>
    </clipPath>
    <clipPath id="clippath-19">
      <rect class="cls-1" x="161.43" y="393.39" width="29.12" height="19.29"/>
    </clipPath>
    <clipPath id="clippath-20">
      <rect class="cls-1" x="186.5" y="450.93" width="41.73" height="148.93"/>
    </clipPath>
    <clipPath id="clippath-21">
      <rect class="cls-1" x="226.81" y="599.38" width="108.17" height="28.93"/>
    </clipPath>
    <clipPath id="clippath-22">
      <rect class="cls-1" x="351.62" y="642.69" width="23.18" height="24.98"/>
    </clipPath>
    <clipPath id="clippath-23">
      <rect class="cls-1" x="363.94" y="638.41" width="20.29" height="36.02"/>
    </clipPath>
  </defs>
  <g id="Group_1196" data-name="Group 1196">
    <g class="cls-5">
      <g id="Group_1195" data-name="Group 1195">
        <path id="Path_1484" data-name="Path 1484" class="cls-11" d="M129.39,.88H872.24c6.84,0,12.38,5.54,12.38,12.38h0V442.58c0,6.84-5.54,12.38-12.38,12.38H129.39c-6.84,0-12.38-5.54-12.38-12.38V13.25c0-6.84,5.54-12.38,12.38-12.38h0"/>
        <path id="Rectangle_817" data-name="Rectangle 817" class="cls-3" d="M133.48,.88H868.15c9.1,0,16.47,7.37,16.47,16.47h0V438.48c0,9.1-7.37,16.47-16.47,16.47H133.48c-9.1,0-16.47-7.37-16.47-16.47h0V17.35c0-9.1,7.37-16.47,16.47-16.47h0Z"/>
        <g id="Group_1167" data-name="Group 1167" class="cls-51">
          <g id="Group_1166" data-name="Group 1166">
            <g class="cls-28">
              <g id="Group_1165" data-name="Group 1165">
                <path id="Path_1485" data-name="Path 1485" d="M246.46,111.24h201.02c6.24,0,11.3,5.06,11.3,11.3v201.02c0,6.24-5.06,11.3-11.3,11.3H246.46c-6.24,0-11.3-5.06-11.3-11.3V122.53c0-6.24,5.06-11.3,11.3-11.3"/>
              </g>
            </g>
          </g>
        </g>
        <g id="Group_1170" data-name="Group 1170" class="cls-51">
          <g id="Group_1169" data-name="Group 1169">
            <g class="cls-31">
              <g id="Group_1168" data-name="Group 1168">
                <path id="Path_1486" data-name="Path 1486" d="M503.9,243.08h224.82c5.23,0,9.46,4.24,9.46,9.46v70.91c0,5.23-4.24,9.46-9.46,9.46h-224.82c-5.23,0-9.46-4.24-9.46-9.46v-70.91c0-5.23,4.24-9.46,9.46-9.46"/>
              </g>
            </g>
          </g>
        </g>
        <g id="Group_1173" data-name="Group 1173" class="cls-51">
          <g id="Group_1172" data-name="Group 1172">
            <g class="cls-30">
              <g id="Group_1171" data-name="Group 1171">
                <path id="Path_1487" data-name="Path 1487" d="M548.99,121.53h17.64c.82,0,1.48,.66,1.48,1.48v63.96c0,.82-.66,1.48-1.48,1.48h-17.64c-.82,0-1.48-.66-1.48-1.48h0v-63.95c0-.82,.66-1.48,1.48-1.48h0"/>
              </g>
            </g>
          </g>
        </g>
        <g id="Group_1176" data-name="Group 1176" class="cls-51">
          <g id="Group_1175" data-name="Group 1175">
            <g class="cls-29">
              <g id="Group_1174" data-name="Group 1174">
                <path id="Path_1488" data-name="Path 1488" d="M596.42,121.53h17.63c.82,0,1.48,.66,1.48,1.48v63.96c0,.82-.66,1.48-1.48,1.48h-17.63c-.82,0-1.48-.66-1.48-1.48v-63.95c0-.82,.66-1.48,1.48-1.48"/>
              </g>
            </g>
          </g>
        </g>
        <g id="Group_1179" data-name="Group 1179" class="cls-51">
          <g id="Group_1178" data-name="Group 1178">
            <g class="cls-35">
              <g id="Group_1177" data-name="Group 1177">
                <path id="Path_1489" data-name="Path 1489" d="M635.67,95.79h108.48c2.06,0,3.73,1.67,3.73,3.73v108.48c0,2.06-1.67,3.73-3.73,3.73h-108.48c-2.06,0-3.73-1.67-3.73-3.73h0V99.53c0-2.06,1.67-3.73,3.73-3.73"/>
              </g>
            </g>
          </g>
        </g>
        <path id="Path_1490" data-name="Path 1490" class="cls-8" d="M253.21,106.09h201.02c6.24,0,11.3,5.06,11.3,11.3v201.02c0,6.24-5.06,11.3-11.3,11.3H253.21c-6.24,0-11.3-5.06-11.3-11.3V117.38c0-6.24,5.06-11.3,11.3-11.3"/>
        <path id="Path_1491" data-name="Path 1491" class="cls-23" d="M509.54,237.93h224.82c5.23,0,9.46,4.24,9.46,9.46v70.91c0,5.23-4.24,9.46-9.46,9.46h-224.82c-5.23,0-9.46-4.24-9.46-9.46v-70.91c0-5.23,4.24-9.46,9.46-9.46"/>
        <path id="Path_1492" data-name="Path 1492" class="cls-14" d="M552.43,119.69h17.63c.82,0,1.48,.66,1.48,1.48v63.96c0,.82-.66,1.48-1.48,1.48h-17.63c-.82,0-1.48-.66-1.48-1.48h0v-63.96c0-.82,.66-1.48,1.48-1.48"/>
        <path id="Path_1493" data-name="Path 1493" class="cls-12" d="M599.85,119.69h17.63c.82,0,1.48,.66,1.48,1.48v63.96c0,.82-.66,1.48-1.48,1.48h-17.63c-.82,0-1.48-.66-1.48-1.48h0v-63.96c0-.82,.66-1.48,1.48-1.48"/>
        <path id="Path_1494" data-name="Path 1494" class="cls-15" d="M641.31,90.65h108.48c2.06,0,3.73,1.67,3.73,3.73v108.48c0,2.06-1.67,3.73-3.73,3.73h-108.48c-2.06,0-3.73-1.67-3.73-3.73V94.38c0-2.06,1.67-3.73,3.73-3.73"/>
        <path id="Path_1495" data-name="Path 1495" class="cls-9" d="M501.56,119.69h17.63c.82,0,1.48,.66,1.48,1.48v63.96c0,.82-.66,1.48-1.48,1.48h-17.63c-.82,0-1.48-.66-1.48-1.48h0v-63.96c0-.82,.66-1.48,1.48-1.48"/>
        <path id="Path_1496" data-name="Path 1496" class="cls-18" d="M158.4,29.95c4.52,0,8.18,3.66,8.18,8.18s-3.66,8.18-8.18,8.18c-4.52,0-8.18-3.66-8.18-8.18,0-4.52,3.66-8.18,8.18-8.18"/>
        <path id="Path_1497" data-name="Path 1497" class="cls-18" d="M194.62,29.95c4.52,0,8.18,3.66,8.18,8.18s-3.66,8.18-8.18,8.18c-4.52,0-8.18-3.66-8.18-8.18,0-4.52,3.66-8.18,8.18-8.18"/>
        <path id="Path_1498" data-name="Path 1498" class="cls-18" d="M230.83,29.95c4.52,0,8.18,3.66,8.18,8.18s-3.66,8.18-8.18,8.18c-4.52,0-8.18-3.66-8.18-8.18,0-4.52,3.66-8.18,8.18-8.18h0"/>
        <path id="Path_1499" data-name="Path 1499" class="cls-21" d="M768.92,29.95h80.04c2.41,0,4.37,1.96,4.37,4.37v7.61c0,2.41-1.96,4.37-4.37,4.37h-80.04c-2.41,0-4.37-1.96-4.37-4.37h0v-7.62c0-2.41,1.96-4.37,4.37-4.37"/>
        <path id="Path_1500" data-name="Path 1500" class="cls-20" d="M600.6,598.61l47,.16c1.1,0,2,.9,1.99,2.01l-.24,71.65c0,1.1-.9,2-2.01,1.99l-47-.16c-1.1,0-2-.9-1.99-2.01l.24-71.65c0-1.1,.9-2,2.01-1.99"/>
        <path id="Path_1501" data-name="Path 1501" class="cls-17" d="M642.49,598.75l5.25,.02c1.03,0,1.86,.84,1.86,1.87l-.24,71.92c0,1.03-.84,1.86-1.87,1.85h0l-5.25-.02c-1.03,0-1.86-.84-1.85-1.87h0s.24-71.92,.24-71.92c0-1.03,.84-1.86,1.87-1.86h0"/>
        <g id="Group_1182" data-name="Group 1182" class="cls-51">
          <g id="Group_1181" data-name="Group 1181">
            <g class="cls-34">
              <g id="Group_1180" data-name="Group 1180">
                <path id="Path_1502" data-name="Path 1502" d="M690.39,138.25l-4.29,19.78-2.73,1.03-9.94,34.44,27.03-29.6-4.9-23.26-5.16-2.4Z"/>
              </g>
            </g>
          </g>
        </g>
        <path id="Path_1503" data-name="Path 1503" class="cls-26" d="M554.63,135.95l32.08,20.1c.75,.47,.98,1.47,.51,2.22h0s-30.65,48.9-30.65,48.9c-.47,.75-1.47,.98-2.22,.51l-32.08-20.1c-.75-.47-.98-1.47-.51-2.22l30.65-48.9c.47-.75,1.47-.98,2.22-.51,0,0,0,0,0,0"/>
        <path id="Path_1504" data-name="Path 1504" class="cls-26" d="M583.23,153.87l3.58,2.24c.7,.44,.91,1.37,.47,2.07l-30.76,49.09c-.44,.7-1.37,.91-2.07,.47,0,0,0,0,0,0l-3.58-2.24c-.7-.44-.91-1.37-.47-2.07l30.76-49.09c.44-.7,1.37-.91,2.07-.47"/>
        <g id="Group_1185" data-name="Group 1185" class="cls-53">
          <g id="Group_1184" data-name="Group 1184">
            <g class="cls-32">
              <g id="Group_1183" data-name="Group 1183">
                <path id="Path_1505" data-name="Path 1505" d="M553.38,172.46s-2.48,6.05-1.65,10.73,6.2,8.21,6.2,8.21l2.12,10.22,7.15-11.41"/>
              </g>
            </g>
          </g>
        </g>
        <g id="Group_1188" data-name="Group 1188" class="cls-52">
          <g id="Group_1187" data-name="Group 1187">
            <g class="cls-33">
              <g id="Group_1186" data-name="Group 1186">
                <path id="Path_1506" data-name="Path 1506" d="M583.23,153.87l3.58,2.24c.7,.44,.91,1.37,.47,2.07l-30.76,49.09c-.44,.7-1.37,.91-2.07,.47,0,0,0,0,0,0l-3.58-2.24c-.7-.44-.91-1.37-.47-2.07l30.76-49.09c.44-.7,1.37-.91,2.07-.47"/>
              </g>
            </g>
          </g>
        </g>
        <path id="Path_1507" data-name="Path 1507" class="cls-6" d="M720.81,205.43l-20.36-41.52,8.84-4.85,34.55,47.54-23.02-1.17Z"/>
        <path id="Path_1508" data-name="Path 1508" class="cls-6" d="M746.1,167.3l8.14,.53c14.82,.96,27.65-9.77,28.66-23.99l2.24-31.54c1.01-14.22-10.19-26.53-25-27.5l-8.14-.53c-14.82-.97-27.65,9.77-28.66,23.99l-2.24,31.54c-1.01,14.22,10.19,26.53,25,27.5"/>
        <path id="Path_1509" data-name="Path 1509" class="cls-6" d="M741.98,152.52l-.06-.41,.8-.12,7.8-5.68,1.62,4.22,13.36-2.06,7.85,50.79-23.59,3.65-3.34-21.59c-1.75-11.32-4.31-15.21-8.78-16.51s-8.85-6.31-8.85-6.31l13.19-5.96Z"/>
        <g id="Group_1191" data-name="Group 1191" class="cls-51">
          <g id="Group_1190" data-name="Group 1190">
            <g class="cls-36">
              <g id="Group_1189" data-name="Group 1189">
                <path id="Path_1510" data-name="Path 1510" d="M723.87,104.62s-3.66,16.22,13.68,24.21l-.02-4.56-13.66-19.65Z"/>
              </g>
            </g>
          </g>
        </g>
        <g id="Group_1194" data-name="Group 1194" class="cls-51">
          <g id="Group_1193" data-name="Group 1193">
            <g class="cls-44">
              <g id="Group_1192" data-name="Group 1192">
                <path id="Path_1511" data-name="Path 1511" d="M771.25,185.62s-12.68-1.8-23.2,6.14l-1.27-8.2,21.77-2.89,2.28,2.2,.42,2.76Z"/>
              </g>
            </g>
          </g>
        </g>
        <path id="Path_1512" data-name="Path 1512" class="cls-25" d="M723.87,104.62s-.12,12.98,13.66,19.65l.26,53.66c.08,3.17,2.71,5.69,5.89,5.62h21.88c12.51-.23,22.54-10,22.59-22,.06-15.59,5.14-33.78,4.94-43.42-.35-17.12-9.45-17.81-9.45-17.81,0,0,.4-14.06-15.79-16.82-10.32-1.75-26.59-1.95-36.51,2.94s-7.46,18.17-7.46,18.17"/>
        <path id="Path_1513" data-name="Path 1513" class="cls-25" d="M829.24,601.83h-25.1c-11.8-30.84-25.7-69.9-35.84-106.78-2.27-13.45-4.43-26.6-6.44-39.17h51.13c-1.06,14.38-1.9,27.59-2.34,37.5-1.02,22.57,9.13,69.97,18.6,108.46"/>
        <path id="Path_1514" data-name="Path 1514" class="cls-6" d="M844.55,659.94h-16.92s-10.45-24.04-23.49-58.1h25.11c7.9,32.16,15.31,58.1,15.31,58.1"/>
        <path id="Path_1515" data-name="Path 1515" class="cls-23" d="M849.06,674.72h-50.49c-.3,0-.59-.1-.82-.29-.56-.46-.64-1.29-.18-1.85,.14-.16,.31-.29,.51-.38l29.16-12.11,17.29-.15,4.53,14.78Z"/>
        <path id="Path_1516" data-name="Path 1516" class="cls-25" d="M753.63,455.88c-3.78,15.83-5.75,21.81-7.83,30.34-4.47,18.31-15.55,72.06-20.42,115.62h-24.31c-.4-40.9-.55-92.31,.75-114.97,.48-8.36,1.39-19.12,2.54-30.99h49.28Z"/>
        <path id="Path_1517" data-name="Path 1517" class="cls-6" d="M725.37,601.84c-3.64,32.18-6.11,58.1-6.11,58.1l-17.47,.22s-.44-26.09-.73-58.32h24.31Z"/>
        <path id="Path_1518" data-name="Path 1518" class="cls-23" d="M672.79,672.21l29-12.05,17.46-.22,4.52,14.79h-50.49c-.72,0-1.31-.59-1.31-1.31,0-.53,.32-1.01,.81-1.21"/>
        <path id="Path_1519" data-name="Path 1519" class="cls-6" d="M700.45,163.91s-12.27-.87-16.13-3.7,5-1.84,8.03-3.07-3.9-17.69-1.42-21.83,11.86-4.55,16.82-2.41,1.53,26.16,1.53,26.16l-8.84,4.85Z"/>
        <path id="Path_1520" data-name="Path 1520" class="cls-6" d="M582.57,188.81s.98-11.88-2.64-18.89l-3.49,5.32s-13.5-7.49-16.37-9.18-6.73,4.29-7.4,9.44,.01,7.41,2.84,8.9,18.36,9.11,18.36,9.11l8.7-4.69Z"/>
        <path id="Path_1521" data-name="Path 1521" class="cls-6" d="M794.92,204.09c-9.93-9.55-32.8-9.75-32.8-9.75l-19.74,1.96s-5.12,.57-15.64,5.43c-2.84,1.3-8.18,4.3-14.65,8.05l-3.95,2.32-4.61,2.69-4.74,2.78-9.62,5.67h-.02c-5.49,3.2-10.76,6.26-15.29,8.8-.02,0-.03,0-.04,.02-2.05,1.12-3.92,2.16-5.58,3.02l-.26,.13c-2.58,1.24-5.22,2.33-7.92,3.27-9.64,3.4-22.87,5.82-34.78,.29-1.97-.89-3.84-1.99-5.58-3.26-22.79-16.54-37.12-46.7-37.12-46.7l-8.89,4.65c5.4,15.35,12.71,29.97,21.75,43.5,14.34,20.96,36.48,32.84,54.42,29.51,.02,0,.05,0,.07-.02,4.12-.19,8.21-.76,12.22-1.72,15.13-3.33,38.91-17.12,56.16-28.06l6.18-3.97c12.4-7.59,31.12-9.57,47.31-9.57,10.81,.02,21.6,.8,32.29,2.36-3.32-11.08-6.56-18.88-9.16-21.4"/>
      </g>
    </g>
  </g>
  <g id="Group_1198" data-name="Group 1198">
    <g class="cls-49">
      <g id="Group_1197" data-name="Group 1197">
        <rect id="Rectangle_829" data-name="Rectangle 829" class="cls-4" x="704.34" y="194.8" width="113.24" height="261.08"/>
      </g>
    </g>
  </g>
  <g id="Group_1233" data-name="Group 1233">
    <g class="cls-43">
      <g id="Group_1232" data-name="Group 1232">
        <line id="Line_178" data-name="Line 178" class="cls-2" x1="701.07" y1="601.84" x2="701.04" y2="601.84"/>
        <path id="Path_1523" data-name="Path 1523" class="cls-12" d="M814.64,308.27c-14.34-2.01-50.03-5.58-97.3,.13,.95-10.04,2.03-21.26,3.13-32.84,0,0,45.53-12.33,91.3-1.92,1.21,11.12,2.16,22.74,2.87,34.63"/>
        <g id="Group_1201" data-name="Group 1201" class="cls-51">
          <g id="Group_1200" data-name="Group 1200">
            <g class="cls-42">
              <g id="Group_1199" data-name="Group 1199">
                <path id="Path_1524" data-name="Path 1524" d="M739.04,226.74l-29.29,170.33c.35-4.03,.68-7.96,1.01-11.69,1.83-21,3.09-36.33,3.09-36.33l.07-1.61v-.02c.2-4.81,1.57-19.73,3.42-39.02,.95-10.04,2.03-21.26,3.13-32.84,1.37-14.23,2.76-29.01,4.01-42.86,0,0,.9-.53,2.36-1.28,1.41-.73,3.4-1.68,5.58-2.56l.33-.13c2.04-.83,4.14-1.49,6.29-1.98"/>
              </g>
            </g>
          </g>
        </g>
        <g id="Group_1204" data-name="Group 1204" class="cls-51">
          <g id="Group_1203" data-name="Group 1203">
            <g class="cls-41">
              <g id="Group_1202" data-name="Group 1202">
                <path id="Path_1525" data-name="Path 1525" d="M812.98,455.88l-49.45,10.4-1.67-10.4h51.12Z"/>
              </g>
            </g>
          </g>
        </g>
        <g id="Group_1207" data-name="Group 1207" class="cls-51">
          <g id="Group_1206" data-name="Group 1206">
            <g class="cls-45">
              <g id="Group_1205" data-name="Group 1205">
                <path id="Path_1526" data-name="Path 1526" d="M753.63,455.88l-50.25,10.4,.96-10.4h49.29Z"/>
              </g>
            </g>
          </g>
        </g>
        <g id="Group_1210" data-name="Group 1210" class="cls-51">
          <g id="Group_1209" data-name="Group 1209">
            <g class="cls-47">
              <g id="Group_1208" data-name="Group 1208">
                <path id="Path_1527" data-name="Path 1527" d="M827.25,660.1l-15.68,14.34h-13.81c-.56-.46-.64-1.29-.18-1.85,.14-.16,.31-.29,.51-.38l29.16-12.11Z"/>
              </g>
            </g>
          </g>
        </g>
        <g id="Group_1213" data-name="Group 1213" class="cls-51">
          <g id="Group_1212" data-name="Group 1212">
            <g class="cls-46">
              <g id="Group_1211" data-name="Group 1211">
                <path id="Path_1528" data-name="Path 1528" d="M701.95,660.1l-15.68,14.33h-13.81c-.56-.46-.64-1.29-.18-1.85,.14-.16,.31-.29,.51-.38l29.17-12.1Z"/>
              </g>
            </g>
          </g>
        </g>
        <path id="Path_1529" data-name="Path 1529" class="cls-24" d="M1.16,674.43H904.04c.6-.04,1.11,.41,1.16,1.01v1.89c-.04,.6-.56,1.05-1.16,1.01H1.16c-.6,.04-1.11-.41-1.16-1.01v-1.89c.04-.6,.56-1.05,1.16-1.01"/>
        <path id="Path_1530" data-name="Path 1530" class="cls-15" d="M575.37,598.61l47,.16c1.1,0,2,.9,1.99,2.01l-.24,71.65c0,1.1-.9,2-2.01,1.99l-47-.16c-1.1,0-2-.9-1.99-2.01l.24-71.65c0-1.1,.9-2,2.01-1.99"/>
        <path id="Path_1531" data-name="Path 1531" class="cls-27" d="M617.26,598.75l5.25,.02c1.03,0,1.86,.84,1.86,1.87l-.24,71.92c0,1.03-.84,1.86-1.87,1.85h0l-5.25-.02c-1.03,0-1.86-.84-1.85-1.87h0s.24-71.92,.24-71.92c0-1.03,.84-1.86,1.87-1.86h0"/>
        <path id="Path_1532" data-name="Path 1532" class="cls-19" d="M296.93,674.41h-107.07l22.61-17.99,57.42,6.35,27.04,11.64Z"/>
        <g id="Group_1216" data-name="Group 1216" class="cls-51">
          <g id="Group_1215" data-name="Group 1215">
            <g class="cls-50">
              <g id="Group_1214" data-name="Group 1214">
                <path id="Path_1533" data-name="Path 1533" d="M296.93,674.41h-107.07l22.61-17.99,57.42,6.35,27.04,11.64Z"/>
              </g>
            </g>
          </g>
        </g>
        <path id="Path_1534" data-name="Path 1534" class="cls-21" d="M300.05,523.03h119.08l-35.55,70.63h-119.07l35.54-70.63Z"/>
        <path id="Path_1535" data-name="Path 1535" class="cls-11" d="M304.73,527.76h103.14l-28.97,57.55h-103.14l28.96-57.55Z"/>
        <path id="Path_1536" data-name="Path 1536" class="cls-13" d="M250.31,670.26s33.77,3.75,46.63,4.15-3.13-8.44-3.13-8.44l-43.5,4.29Z"/>
        <path id="Path_1537" data-name="Path 1537" class="cls-16" d="M219.41,593.66h45.09s-9.74-10.59-16.09-12.07-23.92,2.75-23.92,2.75l-5.08,9.32Z"/>
        <path id="Path_1538" data-name="Path 1538" class="cls-16" d="M165.8,316.18h34.38c8.32,0,15.06,6.74,15.06,15.06h0v55.7c0,8.32-6.74,15.06-15.06,15.06h-34.38c-8.31,0-15.05-6.74-15.05-15.06v-55.7c0-8.32,6.74-15.06,15.06-15.06h0"/>
        <path id="Path_1539" data-name="Path 1539" class="cls-12" d="M250.31,670.26s33.77,3.75,46.63,4.15-3.13-8.44-3.13-8.44l-43.5,4.29Z"/>
        <path id="Path_1540" data-name="Path 1540" class="cls-16" d="M192.62,388.01l-2.07,13.76-4.7,31.32-26.87-4.06,2.45-16.37,2.85-18.92,2.05-13.63,26.3,7.9Z"/>
        <g id="Group_1219" data-name="Group 1219" class="cls-51">
          <g id="Group_1218" data-name="Group 1218">
            <g class="cls-48">
              <g id="Group_1217" data-name="Group 1217">
                <path id="Path_1541" data-name="Path 1541" d="M190.55,401.77s-9.2,11.43-29.12,10.9l2.85-18.92c.29-.22,.44-.35,.44-.35l25.83,8.38Z"/>
              </g>
            </g>
          </g>
        </g>
        <path id="Path_1542" data-name="Path 1542" d="M201.48,356.77c-4.72,3.61,1.12,7.37-2.25,8.18s-1.29,12.03-2.56,15.73c-.58,1.62-.64-.83-1.04-4.06-.35-2.77-.94-6.14-2.27-8.03-.53-.88-1.47-1.44-2.5-1.48h-.02c-.72-.24-1.47-.36-2.23-.37h-1.37c-3.87,0-7,3.13-7.01,6.99v8.24c0,3.87,3.13,7,6.99,7.01h1.38c.35,0,.71-.02,1.06-.08,.01,.02,.02,.05,.02,.08,0,0,1.04,5.01-2.81,6.3s-1.16,9.26-7.95,6.72-6.31,2.25-10.97,.5c-4.66-1.77-10.92-1.12-10.59-7.7s-10.4-4.81-8.51-13.63c1.91-8.84-6.74-8.99-3.37-18.29,3.37-9.32-7.16-15.2-2.83-22.25,4.33-7.07,2.35-16.26,8.78-21.73,3.52-3.2,8.49-4.24,13-2.72,0,0,13.09-13.27,18.57-5.16,7.24,10.71,13.37-4.19,20.82,2.96,5.75,5.52,6.01,9.73,10.18,9.73s7.37,4.81,4.81,9.63c0,0-2.24,2.75-.79,5.65s-.36,6.72-5.63,3.63-5.27,2-9.26,.73,2.89,9.95-1.65,13.42"/>
        <path id="Path_1543" data-name="Path 1543" class="cls-24" d="M314.46,584.36l-5.08,9.3s-6.55-1.96-16.23-5.21l5.64-13.62c6.25,3.66,11.74,6.93,15.68,9.53"/>
        <path id="Path_1544" data-name="Path 1544" class="cls-7" d="M334.98,623.14c0,22.67-17.55,41.46-40.16,43.03,0,0-62.76,9.29-123.97,8.56-35.82-.43-67.01-23.03-67.01-58.85v-17.07l231.14,.58v23.76Z"/>
        <rect id="Rectangle_837" data-name="Rectangle 837" class="cls-22" x="226.81" y="593.66" width="84.74" height="6.19"/>
        <path id="Path_1545" data-name="Path 1545" class="cls-16" d="M309.37,593.66h45.09s-9.74-10.59-16.09-12.07-23.92,2.75-23.92,2.75l-5.08,9.32Z"/>
        <path id="Path_1546" data-name="Path 1546" class="cls-10" d="M149.29,432.09s1.86-8.98,6.03-11.1,27.42-.85,31.67-.85,15.28,13.05,15.28,13.05l-42.79,9.81-10.2-10.92Z"/>
        <path id="Path_1547" data-name="Path 1547" class="cls-9" d="M227.91,591.3H104.06c-2.41-4.54-2.8-11.39-2.37-20.21,1.35-29.62,7.4-84.69,19.26-112.63s36-27.56,36-27.56h35.87l32.29,97.8,2.79,62.6Z"/>
        <path id="Path_1548" data-name="Path 1548" class="cls-10" d="M228.31,600.08l-124.48-.1s0-2.11,.23-8.69h123.85l.41,8.79Z"/>
        <g id="Group_1222" data-name="Group 1222" class="cls-51">
          <g id="Group_1221" data-name="Group 1221">
            <g class="cls-37">
              <g id="Group_1220" data-name="Group 1220">
                <path id="Path_1549" data-name="Path 1549" d="M227.2,575.63s-17.18-26.23-25.06-50.38-9.53-74.33-9.53-74.33h-6.1s-.42,58.98,4.45,96.32c4.96,38.07,10.2,52.61,10.2,52.61h27.07l-1.04-24.22Z"/>
              </g>
            </g>
          </g>
        </g>
        <path id="Path_1550" data-name="Path 1550" class="cls-21" d="M296.4,593.66h87.8v4.36c0,1.01-.82,1.82-1.82,1.82h-83.24c-1.51,0-2.73-1.22-2.73-2.73v-3.46Z"/>
        <path id="Path_1551" data-name="Path 1551" class="cls-9" d="M298.78,574.83l-5.64,13.62c-9.76,4.29-55.3-19.53-71.41-31.32-23.73-17.38-28.81-74.94-33.89-97.39-5.08-22.44,4.98-28.84,4.98-28.84,0,0,24.16,2.16,33.74,24.18,9.56,22.02,10.7,68.06,16.04,79.17,5.8,12.06,53.8,35.35,56.19,40.58"/>
        <g id="Group_1225" data-name="Group 1225" class="cls-51">
          <g id="Group_1224" data-name="Group 1224">
            <g class="cls-38">
              <g id="Group_1223" data-name="Group 1223">
                <path id="Path_1552" data-name="Path 1552" d="M226.81,599.86l108.17,28.45v-28.93l-108.17,.48Z"/>
              </g>
            </g>
          </g>
        </g>
        <path id="Path_1553" data-name="Path 1553" class="cls-26" d="M351.7,648.18l2.96,15.72c.41,2.19,2.32,3.77,4.55,3.77h10.96c2.56,0,4.63-2.07,4.63-4.63v-15.72c0-2.56-2.07-4.63-4.63-4.63h-13.92c-2.56,0-4.63,2.07-4.63,4.63,0,.29,.03,.58,.08,.86m6.9-3.01h11.15c2.05,0,3.71,1.66,3.71,3.71h0v12.59c0,2.05-1.66,3.71-3.71,3.71h-8.77c-1.78,0-3.32-1.27-3.65-3.02l-2.37-12.59c-.38-2.01,.94-3.95,2.96-4.34,.23-.04,.46-.06,.69-.06"/>
        <g id="Group_1228" data-name="Group 1228" class="cls-51">
          <g id="Group_1227" data-name="Group 1227">
            <g class="cls-40">
              <g id="Group_1226" data-name="Group 1226">
                <path id="Path_1554" data-name="Path 1554" d="M351.7,648.18l2.96,15.72c.41,2.19,2.32,3.77,4.55,3.77h10.96c2.56,0,4.63-2.07,4.63-4.63v-15.72c0-2.56-2.07-4.63-4.63-4.63h-13.92c-2.56,0-4.63,2.07-4.63,4.63,0,.29,.03,.58,.08,.86m6.9-3.01h11.15c2.05,0,3.71,1.66,3.71,3.71h0v12.59c0,2.05-1.66,3.71-3.71,3.71h-8.77c-1.78,0-3.32-1.27-3.65-3.02l-2.37-12.59c-.38-2.01,.94-3.95,2.96-4.34,.23-.04,.46-.06,.69-.06"/>
              </g>
            </g>
          </g>
        </g>
        <path id="Path_1555" data-name="Path 1555" class="cls-7" d="M406.91,642.91v13.17c0,10.14-8.22,18.35-18.35,18.35h-6.26c-10.13,0-18.35-8.19-18.36-18.32v-13.2c0-2.48,2-4.49,4.48-4.5h33.99c2.48,0,4.5,2.02,4.5,4.5"/>
        <g id="Group_1231" data-name="Group 1231" class="cls-51">
          <g id="Group_1230" data-name="Group 1230">
            <g class="cls-39">
              <g id="Group_1229" data-name="Group 1229">
                <path id="Path_1556" data-name="Path 1556" d="M384.24,674.43h-1.94c-10.13,.01-18.35-8.19-18.36-18.32v-13.2c0-2.48,2-4.49,4.48-4.5h8.93s-4.5,29.53,6.84,36c.02,0,.02,.02,.04,.02"/>
              </g>
            </g>
          </g>
        </g>
      </g>
    </g>
  </g>
</svg>