<svg id="SD-wave-graphic" xmlns="http://www.w3.org/2000/svg" viewBox="0 0 815.98 1355.29">
  <defs>
    <style>
      .cls-1 {
        stroke: #f4c343;
      }

      .cls-1, .cls-2 {
        fill: none;
        isolation: isolate;
        opacity: .75;
        stroke-linejoin: round;
        stroke-width: 3px;
      }

      .cls-2 {
        stroke: #59c4b2;
      }
    </style>
  </defs>
  <g id="Group_1612" data-name="Group 1612">
    <path id="Path_84" data-name="Path 84" class="cls-2" d="M699.98,595.05c0,369.62-288.07,672.22-652.52,693.07,231.77,124.94,524.74,55.3,675.24-167.81,130.78-194.52,112.7-444.64-29.09-617.34,4.26,30.51,6.39,61.28,6.37,92.08"/>
    <path id="Path_85" data-name="Path 85" class="cls-1" d="M4.09,462.15c161.94,5.46,304.73,107.69,362.08,259.24,17.31,45.43,26.14,93.65,26.04,142.26,0,173-108.76,320.41-261.81,377.38,279.63-61.89,485.86-312.22,485.86-611.3,.11-75.43-13.55-150.25-40.3-220.79C486.44,172.2,258.36,4.15,4.09,4.15V462.15Z"/>
  </g>
</svg>