<?xml version="1.0" encoding="utf-8"?>
<!-- Generator: Adobe Illustrator 25.0.1, SVG Export Plug-In . SVG Version: 6.00 Build 0)  -->
<svg version="1.1" xmlns="http://www.w3.org/2000/svg" xmlns:xlink="http://www.w3.org/1999/xlink" x="0px" y="0px"
	 viewBox="0 0 77.07 61.43" style="enable-background:new 0 0 77.07 61.43;" xml:space="preserve">
<style type="text/css">
	.st0{clip-path:url(#SVGID_2_);fill:#00C4B3;}
	.st1{clip-path:url(#SVGID_2_);fill:#00C3B4;}
	.st2{clip-path:url(#SVGID_2_);fill:#00C2B5;}
	.st3{clip-path:url(#SVGID_2_);fill:#00C1B6;}
	.st4{clip-path:url(#SVGID_2_);fill:#00C0B7;}
	.st5{clip-path:url(#SVGID_2_);fill:#00C0B8;}
	.st6{clip-path:url(#SVGID_2_);fill:#00BFB9;}
	.st7{clip-path:url(#SVGID_2_);fill:#00BEBA;}
	.st8{clip-path:url(#SVGID_2_);fill:#00BDBA;}
	.st9{clip-path:url(#SVGID_2_);fill:#00BCBB;}
	.st10{clip-path:url(#SVGID_2_);fill:#00BBBC;}
	.st11{clip-path:url(#SVGID_2_);fill:#00BABD;}
	.st12{clip-path:url(#SVGID_2_);fill:#00B9BE;}
	.st13{clip-path:url(#SVGID_2_);fill:#00B8BF;}
	.st14{clip-path:url(#SVGID_2_);fill:#00B7C0;}
	.st15{clip-path:url(#SVGID_2_);fill:#00B6C1;}
	.st16{clip-path:url(#SVGID_2_);fill:#00B5C2;}
	.st17{clip-path:url(#SVGID_2_);fill:#00B4C3;}
	.st18{clip-path:url(#SVGID_2_);fill:#00B3C4;}
	.st19{clip-path:url(#SVGID_2_);fill:#00B2C5;}
	.st20{clip-path:url(#SVGID_2_);fill:#00B1C7;}
	.st21{clip-path:url(#SVGID_2_);fill:#00B0C8;}
	.st22{clip-path:url(#SVGID_2_);fill:#00AFC9;}
	.st23{clip-path:url(#SVGID_2_);fill:#00AECA;}
	.st24{clip-path:url(#SVGID_2_);fill:#00ADCB;}
	.st25{clip-path:url(#SVGID_2_);fill:#00ACCC;}
	.st26{clip-path:url(#SVGID_2_);fill:#00ABCD;}
	.st27{clip-path:url(#SVGID_2_);fill:#00AACE;}
	.st28{clip-path:url(#SVGID_2_);fill:#00A9CF;}
	.st29{clip-path:url(#SVGID_2_);fill:#00A8D0;}
	.st30{clip-path:url(#SVGID_2_);fill:#00A7D1;}
	.st31{clip-path:url(#SVGID_2_);fill:#00A6D3;}
	.st32{clip-path:url(#SVGID_2_);fill:#00A5D4;}
	.st33{clip-path:url(#SVGID_2_);fill:#00A4D5;}
	.st34{clip-path:url(#SVGID_2_);fill:#00A3D6;}
	.st35{clip-path:url(#SVGID_2_);fill:#00A2D7;}
	.st36{clip-path:url(#SVGID_2_);fill:#00A1D8;}
	.st37{clip-path:url(#SVGID_2_);fill:#009FD9;}
	.st38{clip-path:url(#SVGID_2_);fill:#009EDB;}
	.st39{clip-path:url(#SVGID_2_);fill:#009DDC;}
	.st40{clip-path:url(#SVGID_2_);fill:#009CDD;}
	.st41{fill:#FFFFFF;}
	.st42{clip-path:url(#SVGID_4_);fill:#FFDB00;}
	.st43{clip-path:url(#SVGID_4_);fill:#FFDA00;}
	.st44{clip-path:url(#SVGID_4_);fill:#FFD901;}
	.st45{clip-path:url(#SVGID_4_);fill:#FFD801;}
	.st46{clip-path:url(#SVGID_4_);fill:#FFD701;}
	.st47{clip-path:url(#SVGID_4_);fill:#FFD602;}
	.st48{clip-path:url(#SVGID_4_);fill:#FFD502;}
	.st49{clip-path:url(#SVGID_4_);fill:#FFD403;}
	.st50{clip-path:url(#SVGID_4_);fill:#FFD303;}
	.st51{clip-path:url(#SVGID_4_);fill:#FFD203;}
	.st52{clip-path:url(#SVGID_4_);fill:#FFD104;}
	.st53{clip-path:url(#SVGID_4_);fill:#FFD004;}
	.st54{clip-path:url(#SVGID_4_);fill:#FFCF04;}
	.st55{clip-path:url(#SVGID_4_);fill:#FFCE05;}
	.st56{clip-path:url(#SVGID_4_);fill:#FFCD05;}
	.st57{clip-path:url(#SVGID_4_);fill:#FFCC05;}
	.st58{clip-path:url(#SVGID_4_);fill:#FFCB06;}
	.st59{clip-path:url(#SVGID_4_);fill:#FFCA06;}
	.st60{clip-path:url(#SVGID_4_);fill:#FFC907;}
	.st61{clip-path:url(#SVGID_4_);fill:#FFC807;}
	.st62{clip-path:url(#SVGID_4_);fill:#FFC707;}
	.st63{clip-path:url(#SVGID_4_);fill:#FFC608;}
	.st64{clip-path:url(#SVGID_4_);fill:#FFC508;}
	.st65{clip-path:url(#SVGID_4_);fill:#FFC408;}
	.st66{clip-path:url(#SVGID_4_);fill:#FFC309;}
	.st67{clip-path:url(#SVGID_4_);fill:#FFC209;}
	.st68{clip-path:url(#SVGID_4_);fill:#FFC10A;}
	.st69{clip-path:url(#SVGID_4_);fill:#FFC00A;}
	.st70{clip-path:url(#SVGID_4_);fill:#FFBF0A;}
	.st71{clip-path:url(#SVGID_4_);fill:#FFBE0B;}
	.st72{clip-path:url(#SVGID_4_);fill:#FFBD0B;}
	.st73{clip-path:url(#SVGID_4_);fill:#FFBC0B;}
	.st74{clip-path:url(#SVGID_4_);fill:#FFBB0C;}
	.st75{clip-path:url(#SVGID_4_);fill:#FFBA0C;}
	.st76{clip-path:url(#SVGID_4_);fill:#FFB80C;}
	.st77{clip-path:url(#SVGID_4_);fill:#FFB70D;}
	.st78{clip-path:url(#SVGID_4_);fill:#FFB60D;}
	.st79{clip-path:url(#SVGID_4_);fill:#FFB50E;}
	.st80{clip-path:url(#SVGID_4_);fill:#FFB40E;}
	.st81{clip-path:url(#SVGID_4_);fill:#FFB30E;}
	.st82{clip-path:url(#SVGID_4_);fill:#FFB20F;}
	.st83{clip-path:url(#SVGID_4_);fill:#FFB10F;}
	.st84{clip-path:url(#SVGID_4_);fill:#FFB00F;}
	.st85{clip-path:url(#SVGID_4_);fill:#FFAF10;}
	.st86{clip-path:url(#SVGID_4_);fill:#FFAE10;}
	.st87{clip-path:url(#SVGID_4_);fill:#FFAD10;}
	.st88{clip-path:url(#SVGID_4_);fill:#FFAC11;}
	.st89{clip-path:url(#SVGID_4_);fill:#FFAB11;}
	.st90{clip-path:url(#SVGID_4_);fill:#FFAA12;}
	.st91{clip-path:url(#SVGID_4_);fill:#FFA912;}
	.st92{clip-path:url(#SVGID_4_);fill:#FFA812;}
	.st93{clip-path:url(#SVGID_4_);fill:#FFA713;}
	.st94{clip-path:url(#SVGID_4_);fill:#FFA613;}
	.st95{clip-path:url(#SVGID_4_);fill:#FFA513;}
	.st96{clip-path:url(#SVGID_4_);fill:#FFA414;}
	.st97{clip-path:url(#SVGID_4_);fill:#FFA314;}
	.st98{clip-path:url(#SVGID_4_);fill:#FFA215;}
	.st99{clip-path:url(#SVGID_4_);fill:#FFA115;}
	.st100{clip-path:url(#SVGID_4_);fill:#FFA015;}
	.st101{fill:#1C9AD6;}
	.st102{fill:#333E48;}
	.st103{clip-path:url(#SVGID_6_);fill:#00C4B3;}
	.st104{clip-path:url(#SVGID_6_);fill:#00C3B4;}
	.st105{clip-path:url(#SVGID_6_);fill:#00C2B5;}
	.st106{clip-path:url(#SVGID_6_);fill:#00C1B6;}
	.st107{clip-path:url(#SVGID_6_);fill:#00C0B7;}
	.st108{clip-path:url(#SVGID_6_);fill:#00C0B8;}
	.st109{clip-path:url(#SVGID_6_);fill:#00BFB9;}
	.st110{clip-path:url(#SVGID_6_);fill:#00BEBA;}
	.st111{clip-path:url(#SVGID_6_);fill:#00BDBA;}
	.st112{clip-path:url(#SVGID_6_);fill:#00BCBB;}
	.st113{clip-path:url(#SVGID_6_);fill:#00BBBC;}
	.st114{clip-path:url(#SVGID_6_);fill:#00BABD;}
	.st115{clip-path:url(#SVGID_6_);fill:#00B9BE;}
	.st116{clip-path:url(#SVGID_6_);fill:#00B8BF;}
	.st117{clip-path:url(#SVGID_6_);fill:#00B7C0;}
	.st118{clip-path:url(#SVGID_6_);fill:#00B6C1;}
	.st119{clip-path:url(#SVGID_6_);fill:#00B5C2;}
	.st120{clip-path:url(#SVGID_6_);fill:#00B4C3;}
	.st121{clip-path:url(#SVGID_6_);fill:#00B3C4;}
	.st122{clip-path:url(#SVGID_6_);fill:#00B2C5;}
	.st123{clip-path:url(#SVGID_6_);fill:#00B1C7;}
	.st124{clip-path:url(#SVGID_6_);fill:#00B0C8;}
	.st125{clip-path:url(#SVGID_6_);fill:#00AFC9;}
	.st126{clip-path:url(#SVGID_6_);fill:#00AECA;}
	.st127{clip-path:url(#SVGID_6_);fill:#00ADCB;}
	.st128{clip-path:url(#SVGID_6_);fill:#00ACCC;}
	.st129{clip-path:url(#SVGID_6_);fill:#00ABCD;}
	.st130{clip-path:url(#SVGID_6_);fill:#00AACE;}
	.st131{clip-path:url(#SVGID_6_);fill:#00A9CF;}
	.st132{clip-path:url(#SVGID_6_);fill:#00A8D0;}
	.st133{clip-path:url(#SVGID_6_);fill:#00A7D1;}
	.st134{clip-path:url(#SVGID_6_);fill:#00A6D3;}
	.st135{clip-path:url(#SVGID_6_);fill:#00A5D4;}
	.st136{clip-path:url(#SVGID_6_);fill:#00A4D5;}
	.st137{clip-path:url(#SVGID_6_);fill:#00A3D6;}
	.st138{clip-path:url(#SVGID_6_);fill:#00A2D7;}
	.st139{clip-path:url(#SVGID_6_);fill:#00A1D8;}
	.st140{clip-path:url(#SVGID_6_);fill:#009FD9;}
	.st141{clip-path:url(#SVGID_6_);fill:#009EDB;}
	.st142{clip-path:url(#SVGID_6_);fill:#009DDC;}
	.st143{clip-path:url(#SVGID_6_);fill:#009CDD;}
	.st144{clip-path:url(#SVGID_8_);fill:#FFDB00;}
	.st145{clip-path:url(#SVGID_8_);fill:#FFDA00;}
	.st146{clip-path:url(#SVGID_8_);fill:#FFD901;}
	.st147{clip-path:url(#SVGID_8_);fill:#FFD801;}
	.st148{clip-path:url(#SVGID_8_);fill:#FFD701;}
	.st149{clip-path:url(#SVGID_8_);fill:#FFD602;}
	.st150{clip-path:url(#SVGID_8_);fill:#FFD502;}
	.st151{clip-path:url(#SVGID_8_);fill:#FFD403;}
	.st152{clip-path:url(#SVGID_8_);fill:#FFD303;}
	.st153{clip-path:url(#SVGID_8_);fill:#FFD203;}
	.st154{clip-path:url(#SVGID_8_);fill:#FFD104;}
	.st155{clip-path:url(#SVGID_8_);fill:#FFD004;}
	.st156{clip-path:url(#SVGID_8_);fill:#FFCF04;}
	.st157{clip-path:url(#SVGID_8_);fill:#FFCE05;}
	.st158{clip-path:url(#SVGID_8_);fill:#FFCD05;}
	.st159{clip-path:url(#SVGID_8_);fill:#FFCC05;}
	.st160{clip-path:url(#SVGID_8_);fill:#FFCB06;}
	.st161{clip-path:url(#SVGID_8_);fill:#FFCA06;}
	.st162{clip-path:url(#SVGID_8_);fill:#FFC907;}
	.st163{clip-path:url(#SVGID_8_);fill:#FFC807;}
	.st164{clip-path:url(#SVGID_8_);fill:#FFC707;}
	.st165{clip-path:url(#SVGID_8_);fill:#FFC608;}
	.st166{clip-path:url(#SVGID_8_);fill:#FFC508;}
	.st167{clip-path:url(#SVGID_8_);fill:#FFC408;}
	.st168{clip-path:url(#SVGID_8_);fill:#FFC309;}
	.st169{clip-path:url(#SVGID_8_);fill:#FFC209;}
	.st170{clip-path:url(#SVGID_8_);fill:#FFC10A;}
	.st171{clip-path:url(#SVGID_8_);fill:#FFC00A;}
	.st172{clip-path:url(#SVGID_8_);fill:#FFBF0A;}
	.st173{clip-path:url(#SVGID_8_);fill:#FFBE0B;}
	.st174{clip-path:url(#SVGID_8_);fill:#FFBD0B;}
	.st175{clip-path:url(#SVGID_8_);fill:#FFBC0B;}
	.st176{clip-path:url(#SVGID_8_);fill:#FFBB0C;}
	.st177{clip-path:url(#SVGID_8_);fill:#FFBA0C;}
	.st178{clip-path:url(#SVGID_8_);fill:#FFB80C;}
	.st179{clip-path:url(#SVGID_8_);fill:#FFB70D;}
	.st180{clip-path:url(#SVGID_8_);fill:#FFB60D;}
	.st181{clip-path:url(#SVGID_8_);fill:#FFB50E;}
	.st182{clip-path:url(#SVGID_8_);fill:#FFB40E;}
	.st183{clip-path:url(#SVGID_8_);fill:#FFB30E;}
	.st184{clip-path:url(#SVGID_8_);fill:#FFB20F;}
	.st185{clip-path:url(#SVGID_8_);fill:#FFB10F;}
	.st186{clip-path:url(#SVGID_8_);fill:#FFB00F;}
	.st187{clip-path:url(#SVGID_8_);fill:#FFAF10;}
	.st188{clip-path:url(#SVGID_8_);fill:#FFAE10;}
	.st189{clip-path:url(#SVGID_8_);fill:#FFAD10;}
	.st190{clip-path:url(#SVGID_8_);fill:#FFAC11;}
	.st191{clip-path:url(#SVGID_8_);fill:#FFAB11;}
	.st192{clip-path:url(#SVGID_8_);fill:#FFAA12;}
	.st193{clip-path:url(#SVGID_8_);fill:#FFA912;}
	.st194{clip-path:url(#SVGID_8_);fill:#FFA812;}
	.st195{clip-path:url(#SVGID_8_);fill:#FFA713;}
	.st196{clip-path:url(#SVGID_8_);fill:#FFA613;}
	.st197{clip-path:url(#SVGID_8_);fill:#FFA513;}
	.st198{clip-path:url(#SVGID_8_);fill:#FFA414;}
	.st199{clip-path:url(#SVGID_8_);fill:#FFA314;}
	.st200{clip-path:url(#SVGID_8_);fill:#FFA215;}
	.st201{clip-path:url(#SVGID_8_);fill:#FFA115;}
	.st202{clip-path:url(#SVGID_8_);fill:#FFA015;}
	.st203{clip-path:url(#SVGID_8_);fill:#FF9F16;}
	.st204{clip-path:url(#SVGID_10_);fill:#FFDB00;}
	.st205{clip-path:url(#SVGID_10_);fill:#FFDA00;}
	.st206{clip-path:url(#SVGID_10_);fill:#FFD901;}
	.st207{clip-path:url(#SVGID_10_);fill:#FFD801;}
	.st208{clip-path:url(#SVGID_10_);fill:#FFD701;}
	.st209{clip-path:url(#SVGID_10_);fill:#FFD602;}
	.st210{clip-path:url(#SVGID_10_);fill:#FFD502;}
	.st211{clip-path:url(#SVGID_10_);fill:#FFD403;}
	.st212{clip-path:url(#SVGID_10_);fill:#FFD303;}
	.st213{clip-path:url(#SVGID_10_);fill:#FFD203;}
	.st214{clip-path:url(#SVGID_10_);fill:#FFD104;}
	.st215{clip-path:url(#SVGID_10_);fill:#FFD004;}
	.st216{clip-path:url(#SVGID_10_);fill:#FFCF04;}
	.st217{clip-path:url(#SVGID_10_);fill:#FFCE05;}
	.st218{clip-path:url(#SVGID_10_);fill:#FFCD05;}
	.st219{clip-path:url(#SVGID_10_);fill:#FFCC05;}
	.st220{clip-path:url(#SVGID_10_);fill:#FFCB06;}
	.st221{clip-path:url(#SVGID_10_);fill:#FFCA06;}
	.st222{clip-path:url(#SVGID_10_);fill:#FFC907;}
	.st223{clip-path:url(#SVGID_10_);fill:#FFC807;}
	.st224{clip-path:url(#SVGID_10_);fill:#FFC707;}
	.st225{clip-path:url(#SVGID_10_);fill:#FFC608;}
	.st226{clip-path:url(#SVGID_10_);fill:#FFC508;}
	.st227{clip-path:url(#SVGID_10_);fill:#FFC408;}
	.st228{clip-path:url(#SVGID_10_);fill:#FFC309;}
	.st229{clip-path:url(#SVGID_10_);fill:#FFC209;}
	.st230{clip-path:url(#SVGID_10_);fill:#FFC10A;}
	.st231{clip-path:url(#SVGID_10_);fill:#FFC00A;}
	.st232{clip-path:url(#SVGID_10_);fill:#FFBF0A;}
	.st233{clip-path:url(#SVGID_10_);fill:#FFBE0B;}
	.st234{clip-path:url(#SVGID_10_);fill:#FFBD0B;}
	.st235{clip-path:url(#SVGID_10_);fill:#FFBC0B;}
	.st236{clip-path:url(#SVGID_10_);fill:#FFBB0C;}
	.st237{clip-path:url(#SVGID_10_);fill:#FFBA0C;}
	.st238{clip-path:url(#SVGID_10_);fill:#FFB80C;}
	.st239{clip-path:url(#SVGID_10_);fill:#FFB70D;}
	.st240{clip-path:url(#SVGID_10_);fill:#FFB60D;}
	.st241{clip-path:url(#SVGID_10_);fill:#FFB50E;}
	.st242{clip-path:url(#SVGID_10_);fill:#FFB40E;}
	.st243{clip-path:url(#SVGID_10_);fill:#FFB30E;}
	.st244{clip-path:url(#SVGID_10_);fill:#FFB20F;}
	.st245{clip-path:url(#SVGID_10_);fill:#FFB10F;}
	.st246{clip-path:url(#SVGID_10_);fill:#FFB00F;}
	.st247{clip-path:url(#SVGID_10_);fill:#FFAF10;}
	.st248{clip-path:url(#SVGID_10_);fill:#FFAE10;}
	.st249{clip-path:url(#SVGID_10_);fill:#FFAD10;}
	.st250{clip-path:url(#SVGID_10_);fill:#FFAC11;}
	.st251{clip-path:url(#SVGID_10_);fill:#FFAB11;}
	.st252{clip-path:url(#SVGID_10_);fill:#FFAA12;}
	.st253{clip-path:url(#SVGID_10_);fill:#FFA912;}
	.st254{clip-path:url(#SVGID_10_);fill:#FFA812;}
	.st255{clip-path:url(#SVGID_10_);fill:#FFA713;}
	.st256{clip-path:url(#SVGID_10_);fill:#FFA613;}
	.st257{clip-path:url(#SVGID_10_);fill:#FFA513;}
	.st258{clip-path:url(#SVGID_10_);fill:#FFA414;}
	.st259{clip-path:url(#SVGID_10_);fill:#FFA314;}
	.st260{clip-path:url(#SVGID_10_);fill:#FFA215;}
	.st261{clip-path:url(#SVGID_10_);fill:#FFA115;}
	.st262{clip-path:url(#SVGID_10_);fill:#FFA015;}
	.st263{clip-path:url(#SVGID_10_);fill:#FF9F16;}
	.st264{clip-path:url(#SVGID_12_);fill:#00C4B3;}
	.st265{clip-path:url(#SVGID_12_);fill:#00C3B4;}
	.st266{clip-path:url(#SVGID_12_);fill:#00C2B5;}
	.st267{clip-path:url(#SVGID_12_);fill:#00C1B6;}
	.st268{clip-path:url(#SVGID_12_);fill:#00C0B7;}
	.st269{clip-path:url(#SVGID_12_);fill:#00C0B8;}
	.st270{clip-path:url(#SVGID_12_);fill:#00BFB9;}
	.st271{clip-path:url(#SVGID_12_);fill:#00BEBA;}
	.st272{clip-path:url(#SVGID_12_);fill:#00BDBA;}
	.st273{clip-path:url(#SVGID_12_);fill:#00BCBB;}
	.st274{clip-path:url(#SVGID_12_);fill:#00BBBC;}
	.st275{clip-path:url(#SVGID_12_);fill:#00BABD;}
	.st276{clip-path:url(#SVGID_12_);fill:#00B9BE;}
	.st277{clip-path:url(#SVGID_12_);fill:#00B8BF;}
	.st278{clip-path:url(#SVGID_12_);fill:#00B7C0;}
	.st279{clip-path:url(#SVGID_12_);fill:#00B6C1;}
	.st280{clip-path:url(#SVGID_12_);fill:#00B5C2;}
	.st281{clip-path:url(#SVGID_12_);fill:#00B4C3;}
	.st282{clip-path:url(#SVGID_12_);fill:#00B3C4;}
	.st283{clip-path:url(#SVGID_12_);fill:#00B2C5;}
	.st284{clip-path:url(#SVGID_12_);fill:#00B1C7;}
	.st285{clip-path:url(#SVGID_12_);fill:#00B0C8;}
	.st286{clip-path:url(#SVGID_12_);fill:#00AFC9;}
	.st287{clip-path:url(#SVGID_12_);fill:#00AECA;}
	.st288{clip-path:url(#SVGID_12_);fill:#00ADCB;}
	.st289{clip-path:url(#SVGID_12_);fill:#00ACCC;}
	.st290{clip-path:url(#SVGID_12_);fill:#00ABCD;}
	.st291{clip-path:url(#SVGID_12_);fill:#00AACE;}
	.st292{clip-path:url(#SVGID_12_);fill:#00A9CF;}
	.st293{clip-path:url(#SVGID_12_);fill:#00A8D0;}
	.st294{clip-path:url(#SVGID_12_);fill:#00A7D1;}
	.st295{clip-path:url(#SVGID_12_);fill:#00A6D3;}
	.st296{clip-path:url(#SVGID_14_);fill:url(#SVGID_15_);}
	.st297{clip-path:url(#SVGID_14_);fill:#FFDB00;}
	.st298{clip-path:url(#SVGID_14_);fill:#FFDA00;}
	.st299{clip-path:url(#SVGID_14_);fill:#FFD901;}
	.st300{clip-path:url(#SVGID_14_);fill:#FFD801;}
	.st301{clip-path:url(#SVGID_14_);fill:#FFD701;}
	.st302{clip-path:url(#SVGID_14_);fill:#FFD602;}
	.st303{clip-path:url(#SVGID_14_);fill:#FFD502;}
	.st304{clip-path:url(#SVGID_14_);fill:#FFD403;}
	.st305{clip-path:url(#SVGID_14_);fill:#FFD303;}
	.st306{clip-path:url(#SVGID_14_);fill:#FFD203;}
	.st307{clip-path:url(#SVGID_14_);fill:#FFD104;}
	.st308{clip-path:url(#SVGID_14_);fill:#FFD004;}
	.st309{clip-path:url(#SVGID_14_);fill:#FFCF04;}
	.st310{clip-path:url(#SVGID_14_);fill:#FFCE05;}
	.st311{clip-path:url(#SVGID_14_);fill:#FFCD05;}
	.st312{clip-path:url(#SVGID_14_);fill:#FFCC05;}
	.st313{clip-path:url(#SVGID_14_);fill:#FFCB06;}
	.st314{clip-path:url(#SVGID_14_);fill:#FFCA06;}
	.st315{clip-path:url(#SVGID_14_);fill:#FFC907;}
	.st316{clip-path:url(#SVGID_14_);fill:#FFC807;}
	.st317{clip-path:url(#SVGID_14_);fill:#FFC707;}
	.st318{clip-path:url(#SVGID_14_);fill:#FFC608;}
	.st319{clip-path:url(#SVGID_14_);fill:#FFC508;}
	.st320{clip-path:url(#SVGID_14_);fill:#FFC408;}
	.st321{clip-path:url(#SVGID_14_);fill:#FFC309;}
	.st322{clip-path:url(#SVGID_14_);fill:#FFC209;}
	.st323{clip-path:url(#SVGID_14_);fill:#FFC10A;}
	.st324{clip-path:url(#SVGID_14_);fill:#FFC00A;}
	.st325{clip-path:url(#SVGID_14_);fill:#FFBF0A;}
	.st326{clip-path:url(#SVGID_14_);fill:#FFBE0B;}
	.st327{clip-path:url(#SVGID_14_);fill:#FFBD0B;}
	.st328{clip-path:url(#SVGID_14_);fill:#FFBC0B;}
	.st329{clip-path:url(#SVGID_14_);fill:#FFBB0C;}
	.st330{clip-path:url(#SVGID_14_);fill:#FFBA0C;}
	.st331{clip-path:url(#SVGID_14_);fill:#FFB80C;}
	.st332{clip-path:url(#SVGID_14_);fill:#FFB70D;}
	.st333{clip-path:url(#SVGID_14_);fill:#FFB60D;}
	.st334{clip-path:url(#SVGID_14_);fill:#FFB50E;}
	.st335{clip-path:url(#SVGID_14_);fill:#FFB40E;}
	.st336{clip-path:url(#SVGID_14_);fill:#FFB30E;}
	.st337{clip-path:url(#SVGID_14_);fill:#FFB20F;}
	.st338{clip-path:url(#SVGID_14_);fill:#FFB10F;}
	.st339{clip-path:url(#SVGID_14_);fill:#FFB00F;}
	.st340{clip-path:url(#SVGID_14_);fill:#FFAF10;}
	.st341{clip-path:url(#SVGID_14_);fill:#FFAE10;}
	.st342{clip-path:url(#SVGID_14_);fill:#FFAD10;}
	.st343{clip-path:url(#SVGID_14_);fill:#FFAC11;}
	.st344{clip-path:url(#SVGID_14_);fill:#FFAB11;}
	.st345{clip-path:url(#SVGID_14_);fill:#FFAA12;}
	.st346{clip-path:url(#SVGID_14_);fill:#FFA912;}
	.st347{clip-path:url(#SVGID_14_);fill:#FFA812;}
	.st348{clip-path:url(#SVGID_14_);fill:#FFA713;}
	.st349{clip-path:url(#SVGID_14_);fill:#FFA613;}
	.st350{clip-path:url(#SVGID_14_);fill:#FFA513;}
	.st351{clip-path:url(#SVGID_14_);fill:#FFA414;}
	.st352{clip-path:url(#SVGID_14_);fill:#FFA314;}
	.st353{clip-path:url(#SVGID_14_);fill:#FFA215;}
	.st354{clip-path:url(#SVGID_14_);fill:#FFA115;}
	.st355{clip-path:url(#SVGID_14_);fill:#FFA015;}
	.st356{clip-path:url(#SVGID_14_);fill:#FF9F16;}
	.st357{clip-path:url(#SVGID_17_);fill:#00C4B3;}
	.st358{clip-path:url(#SVGID_17_);fill:#00C3B4;}
	.st359{clip-path:url(#SVGID_17_);fill:#00C2B5;}
	.st360{clip-path:url(#SVGID_17_);fill:#00C1B6;}
	.st361{clip-path:url(#SVGID_17_);fill:#00C0B7;}
	.st362{clip-path:url(#SVGID_17_);fill:#00C0B8;}
	.st363{clip-path:url(#SVGID_17_);fill:#00BFB9;}
	.st364{clip-path:url(#SVGID_17_);fill:#00BEBA;}
	.st365{clip-path:url(#SVGID_17_);fill:#00BDBA;}
	.st366{clip-path:url(#SVGID_17_);fill:#00BCBB;}
	.st367{clip-path:url(#SVGID_17_);fill:#00BBBC;}
	.st368{clip-path:url(#SVGID_17_);fill:#00BABD;}
	.st369{clip-path:url(#SVGID_17_);fill:#00B9BE;}
	.st370{clip-path:url(#SVGID_17_);fill:#00B8BF;}
	.st371{clip-path:url(#SVGID_17_);fill:#00B7C0;}
	.st372{clip-path:url(#SVGID_17_);fill:#00B6C1;}
	.st373{clip-path:url(#SVGID_17_);fill:#00B5C2;}
	.st374{clip-path:url(#SVGID_17_);fill:#00B4C3;}
	.st375{clip-path:url(#SVGID_17_);fill:#00B3C4;}
	.st376{clip-path:url(#SVGID_17_);fill:#00B2C5;}
	.st377{clip-path:url(#SVGID_17_);fill:#00B1C7;}
	.st378{clip-path:url(#SVGID_17_);fill:#00B0C8;}
	.st379{clip-path:url(#SVGID_17_);fill:#00AFC9;}
	.st380{clip-path:url(#SVGID_17_);fill:#00AECA;}
	.st381{clip-path:url(#SVGID_17_);fill:#00ADCB;}
	.st382{clip-path:url(#SVGID_17_);fill:#00ACCC;}
	.st383{clip-path:url(#SVGID_17_);fill:#00ABCD;}
	.st384{clip-path:url(#SVGID_17_);fill:#00AACE;}
	.st385{clip-path:url(#SVGID_17_);fill:#00A9CF;}
	.st386{clip-path:url(#SVGID_17_);fill:#00A8D0;}
	.st387{clip-path:url(#SVGID_17_);fill:#00A7D1;}
	.st388{clip-path:url(#SVGID_17_);fill:#00A6D3;}
</style>
<g id="primary-full-color">
</g>
<g id="primary-white">
</g>
<g id="stacked-full-color">
</g>
<g id="stacked-white">
</g>
<g id="initials-full-color">
	<g>
		<defs>
			<path id="SVGID_11_" d="M-25.07,26.99c0,16.87-13.15,30.68-29.78,31.63c10.58,5.7,23.95,2.53,30.82-7.66
				c5.97-8.88,5.14-20.29-1.33-28.17C-25.17,24.16-25.07,25.57-25.07,26.99"/>
		</defs>
		<clipPath id="SVGID_2_">
			<use xlink:href="#SVGID_11_"  style="overflow:visible;"/>
		</clipPath>
		<polygon class="st0" points="2.68,50.1 -45.18,4.42 2.68,4.42 		"/>
		<polygon class="st0" points="2.68,62.47 -58.14,4.42 -45.18,4.42 2.68,50.1 		"/>
		<polygon class="st0" points="2.68,64.74 -60.52,4.42 -58.14,4.42 2.68,62.47 		"/>
		<polygon class="st1" points="2.68,67 -62.89,4.42 -60.52,4.42 2.68,64.74 		"/>
		<polygon class="st1" points="2.68,69.27 -65.26,4.42 -62.89,4.42 2.68,67 		"/>
		<polygon class="st2" points="2.68,71.54 -67.64,4.42 -65.26,4.42 2.68,69.27 		"/>
		<polygon class="st3" points="2.68,73.8 -70.01,4.42 -67.64,4.42 2.68,71.53 		"/>
		<polygon class="st4" points="2.68,76.07 -72.39,4.42 -70.01,4.42 2.68,73.8 		"/>
		<polygon class="st5" points="2.68,78.33 -74.76,4.42 -72.39,4.42 2.68,76.07 		"/>
		<polygon class="st6" points="2.68,80.6 -75.59,5.89 -75.59,4.42 -74.76,4.42 2.68,78.33 		"/>
		<polygon class="st7" points="2.5,82.69 -75.59,8.15 -75.59,5.89 2.68,80.6 2.68,82.69 		"/>
		<polygon class="st8" points="0.12,82.69 -75.59,10.42 -75.59,8.15 2.5,82.69 		"/>
		<polygon class="st9" points="-2.25,82.69 -75.59,12.68 -75.59,10.42 0.12,82.69 		"/>
	</g>
</g>
<g id="initials-white-color-sails">
	<g>
		<defs>
			<path id="SVGID_13_" d="M40.57,0.01v20.92c7.44,0.41,13.68,5.19,16.18,11.81c0.77,2.02,1.19,4.21,1.19,6.49
				c0,9-6.44,16.49-14.98,18.07c14.4-1.5,25.39-13.93,25.39-28.75c0-3.62-0.68-7.08-1.89-10.26C62.37,7.59,52.12,0,40.57,0.01
				L40.57,0.01z"/>
		</defs>
		<clipPath id="SVGID_4_">
			<use xlink:href="#SVGID_13_"  style="overflow:visible;"/>
		</clipPath>
		<linearGradient id="SVGID_6_" gradientUnits="userSpaceOnUse" x1="54.459" y1="61.3264" x2="54.459" y2="0.1056">
			<stop  offset="0" style="stop-color:#FFDB00"/>
			<stop  offset="1" style="stop-color:#FFA613"/>
		</linearGradient>
		<rect x="40.57" y="0.11" style="clip-path:url(#SVGID_4_);fill:url(#SVGID_6_);" width="27.78" height="61.22"/>
		<polygon class="st42" points="35.55,40.7 73.37,44.03 73.37,59.74 35.55,59.74 		"/>
		<polygon class="st42" points="35.55,39.92 73.37,43.25 73.37,44.03 35.55,40.7 		"/>
		<polygon class="st43" points="35.55,39.14 73.37,42.47 73.37,43.25 35.55,39.92 		"/>
		<polygon class="st44" points="35.55,38.36 73.37,41.69 73.37,42.47 35.55,39.14 		"/>
		<polygon class="st45" points="35.55,37.58 73.37,40.91 73.37,41.69 35.55,38.36 		"/>
		<polygon class="st46" points="35.55,36.8 73.37,40.13 73.37,40.91 35.55,37.58 		"/>
		<polygon class="st47" points="35.55,36.02 73.37,39.35 73.37,40.13 35.55,36.8 		"/>
		<polygon class="st48" points="35.55,35.24 73.37,38.57 73.37,39.35 35.55,36.02 		"/>
		<polygon class="st49" points="35.55,34.46 73.37,37.79 73.37,38.57 35.55,35.24 		"/>
		<polygon class="st50" points="35.55,33.68 73.37,37.01 73.37,37.79 35.55,34.46 		"/>
		<polygon class="st51" points="35.55,32.89 73.37,36.23 73.37,37.01 35.55,33.67 		"/>
		<polygon class="st52" points="35.55,32.11 73.37,35.45 73.37,36.23 35.55,32.89 		"/>
		<polygon class="st53" points="35.55,31.33 73.37,34.67 73.37,35.45 35.55,32.11 		"/>
		<polygon class="st54" points="35.55,30.55 73.37,33.89 73.37,34.67 35.55,31.33 		"/>
		<polygon class="st55" points="35.55,29.77 73.37,33.11 73.37,33.89 35.55,30.55 		"/>
		<polygon class="st56" points="35.55,28.99 73.37,32.33 73.37,33.11 35.55,29.77 		"/>
		<polygon class="st57" points="35.55,28.21 73.37,31.55 73.37,32.33 35.55,28.99 		"/>
		<polygon class="st58" points="35.55,27.43 73.37,30.77 73.37,31.55 35.55,28.21 		"/>
		<polygon class="st59" points="35.55,26.65 73.37,29.99 73.37,30.77 35.55,27.43 		"/>
		<polygon class="st60" points="35.55,25.87 73.37,29.21 73.37,29.99 35.55,26.65 		"/>
		<polygon class="st61" points="35.55,25.09 73.37,28.43 73.37,29.21 35.55,25.87 		"/>
		<polygon class="st62" points="35.55,24.31 73.37,27.65 73.37,28.43 35.55,25.09 		"/>
		<polygon class="st63" points="35.55,23.53 73.37,26.87 73.37,27.65 35.55,24.31 		"/>
		<polygon class="st64" points="35.55,22.75 73.37,26.09 73.37,26.87 35.55,23.53 		"/>
		<polygon class="st65" points="35.55,21.97 73.37,25.31 73.37,26.09 35.55,22.75 		"/>
		<polygon class="st66" points="35.55,21.19 73.37,24.53 73.37,25.31 35.55,21.97 		"/>
		<polygon class="st67" points="35.55,20.41 73.37,23.75 73.37,24.53 35.55,21.19 		"/>
		<polygon class="st68" points="35.55,19.63 73.37,22.97 73.37,23.75 35.55,20.41 		"/>
		<polygon class="st69" points="35.55,18.85 73.37,22.19 73.37,22.97 35.55,19.63 		"/>
		<polygon class="st70" points="35.55,18.07 73.37,21.41 73.37,22.19 35.55,18.85 		"/>
		<polygon class="st71" points="35.55,17.29 73.37,20.63 73.37,21.41 35.55,18.07 		"/>
		<polygon class="st72" points="35.55,16.51 73.37,19.85 73.37,20.63 35.55,17.29 		"/>
		<polygon class="st73" points="35.55,15.73 73.37,19.06 73.37,19.84 35.55,16.51 		"/>
		<polygon class="st74" points="35.55,14.95 73.37,18.28 73.37,19.06 35.55,15.73 		"/>
		<polygon class="st75" points="35.55,14.17 73.37,17.5 73.37,18.28 35.55,14.95 		"/>
		<polygon class="st76" points="35.55,13.39 73.37,16.72 73.37,17.5 35.55,14.17 		"/>
		<polygon class="st77" points="35.55,12.61 73.37,15.94 73.37,16.72 35.55,13.39 		"/>
		<polygon class="st78" points="35.55,11.83 73.37,15.16 73.37,15.94 35.55,12.61 		"/>
		<polygon class="st79" points="35.55,11.05 73.37,14.38 73.37,15.16 35.55,11.83 		"/>
		<polygon class="st80" points="35.55,10.27 73.37,13.6 73.37,14.38 35.55,11.05 		"/>
		<polygon class="st81" points="35.55,9.49 73.37,12.82 73.37,13.6 35.55,10.27 		"/>
		<polygon class="st82" points="35.55,8.71 73.37,12.04 73.37,12.82 35.55,9.49 		"/>
		<polygon class="st83" points="35.55,7.93 73.37,11.26 73.37,12.04 35.55,8.71 		"/>
		<polygon class="st84" points="35.55,7.15 73.37,10.48 73.37,11.26 35.55,7.93 		"/>
		<polygon class="st85" points="35.55,6.37 73.37,9.7 73.37,10.48 35.55,7.15 		"/>
		<polygon class="st86" points="35.55,5.59 73.37,8.92 73.37,9.7 35.55,6.37 		"/>
		<polygon class="st87" points="35.55,4.8 73.37,8.14 73.37,8.92 35.55,5.58 		"/>
		<polygon class="st88" points="35.55,4.02 73.37,7.36 73.37,8.14 35.55,4.8 		"/>
		<polygon class="st89" points="35.55,3.24 73.37,6.58 73.37,7.36 35.55,4.02 		"/>
		<polygon class="st90" points="35.55,2.46 73.37,5.8 73.37,6.58 35.55,3.24 		"/>
		<polygon class="st91" points="35.55,1.68 73.37,5.02 73.37,5.8 35.55,2.46 		"/>
		<polygon class="st92" points="35.55,0.9 73.37,4.24 73.37,5.02 35.55,1.68 		"/>
		<polygon class="st93" points="35.55,0.12 73.37,3.46 73.37,4.24 35.55,0.9 		"/>
		<polygon class="st94" points="35.55,-0.66 73.37,2.68 73.37,3.46 35.55,0.12 		"/>
		<polygon class="st95" points="35.55,-1.44 73.37,1.9 73.37,2.68 35.55,-0.66 		"/>
		<polygon class="st96" points="35.55,-2.22 73.37,1.12 73.37,1.9 35.55,-1.44 		"/>
		<polygon class="st97" points="41.96,-2.43 73.37,0.34 73.37,1.12 35.55,-2.22 35.55,-2.43 		"/>
		<polygon class="st98" points="50.8,-2.43 73.37,-0.44 73.37,0.34 41.96,-2.43 		"/>
	</g>
	<g>
		<path class="st41" d="M11.11,35.76c-3.36-0.21-4.43-1.53-4.43-2.97c0-1.74,1.2-2.81,2.94-2.81c1.1,0,2.51,0.69,3.36,1.57l5.2-3.79
			c-2.43-2.89-5.4-4.09-8.56-4.09c-4.39,0-9.33,3.79-9.33,9.16c0,4.98,3.58,8.43,9.07,9.06c3.07,0.34,4.77,1.93,4.77,4.47
			c0,2.04-1.7,3.8-3.87,3.8c-1.87,0-3.37-0.47-4.81-2.3l-5.45,4c3.02,3.32,6.63,4.64,10.26,4.64c5.57,0,10.73-4.43,10.73-10.6
			C20.99,39.76,16.52,36.1,11.11,35.76"/>
		<path class="st41" d="M38.5,24.22H25.64v31.73h12.9c9.12,0,16.56-6.77,16.56-15.89C55.1,31.04,47.66,24.22,38.5,24.22
			 M38.54,49.99h-6.3V30.18h6.26c5.53,0,9.83,4.13,9.83,9.88C48.33,45.77,44.03,49.99,38.54,49.99"/>
	</g>
	<g>
		<defs>
			<path id="SVGID_16_" d="M72,26.99c0,16.87-13.15,30.68-29.78,31.63c10.58,5.7,23.95,2.53,30.82-7.66
				c5.97-8.88,5.14-20.29-1.33-28.17C71.9,24.16,72,25.57,72,26.99"/>
		</defs>
		<clipPath id="SVGID_8_">
			<use xlink:href="#SVGID_16_"  style="overflow:visible;"/>
		</clipPath>
		<polygon style="clip-path:url(#SVGID_8_);fill:#00C4B3;" points="99.75,50.1 51.89,4.42 99.75,4.42 		"/>
		<polygon style="clip-path:url(#SVGID_8_);fill:#00C4B3;" points="99.75,62.47 38.93,4.42 51.89,4.42 99.75,50.1 		"/>
		<polygon style="clip-path:url(#SVGID_8_);fill:#00C4B3;" points="99.75,64.74 36.56,4.42 38.93,4.42 99.75,62.47 		"/>
		<polygon style="clip-path:url(#SVGID_8_);fill:#00C3B4;" points="99.75,67 34.18,4.42 36.56,4.42 99.75,64.74 		"/>
		<polygon style="clip-path:url(#SVGID_8_);fill:#00C3B4;" points="99.75,69.27 31.81,4.42 34.18,4.42 99.75,67 		"/>
		<polygon style="clip-path:url(#SVGID_8_);fill:#00C2B5;" points="99.75,71.54 29.43,4.42 31.81,4.42 99.75,69.27 		"/>
		<polygon style="clip-path:url(#SVGID_8_);fill:#00C1B6;" points="99.75,73.8 27.06,4.42 29.43,4.42 99.75,71.53 		"/>
		<polygon style="clip-path:url(#SVGID_8_);fill:#00C0B7;" points="99.75,76.07 24.69,4.42 27.06,4.42 99.75,73.8 		"/>
		<polygon style="clip-path:url(#SVGID_8_);fill:#00C0B8;" points="99.75,78.33 22.31,4.42 24.69,4.42 99.75,76.07 		"/>
		<polygon style="clip-path:url(#SVGID_8_);fill:#00BFB9;" points="99.75,80.6 21.48,5.89 21.48,4.42 22.31,4.42 99.75,78.33 		"/>
		<polygon style="clip-path:url(#SVGID_8_);fill:#00BEBA;" points="99.57,82.69 21.48,8.15 21.48,5.89 99.75,80.6 99.75,82.69 		"/>
		<polygon style="clip-path:url(#SVGID_8_);fill:#00BDBA;" points="97.19,82.69 21.48,10.42 21.48,8.15 99.57,82.69 		"/>
		<polygon style="clip-path:url(#SVGID_8_);fill:#00BCBB;" points="94.82,82.69 21.48,12.68 21.48,10.42 97.19,82.69 		"/>
		<polygon style="clip-path:url(#SVGID_8_);fill:#00BBBC;" points="92.45,82.69 21.48,14.95 21.48,12.68 94.82,82.69 		"/>
		<polygon style="clip-path:url(#SVGID_8_);fill:#00BABD;" points="90.07,82.69 21.48,17.22 21.48,14.95 92.45,82.69 		"/>
		<polygon style="clip-path:url(#SVGID_8_);fill:#00B9BE;" points="87.7,82.69 21.48,19.48 21.48,17.22 90.07,82.69 		"/>
		<polygon style="clip-path:url(#SVGID_8_);fill:#00B8BF;" points="85.32,82.69 21.48,21.75 21.48,19.48 87.7,82.69 		"/>
		<polygon style="clip-path:url(#SVGID_8_);fill:#00B7C0;" points="82.95,82.69 21.48,24.01 21.48,21.75 85.32,82.69 		"/>
		<polygon style="clip-path:url(#SVGID_8_);fill:#00B6C1;" points="80.58,82.69 21.48,26.28 21.48,24.01 82.95,82.69 		"/>
		<polygon style="clip-path:url(#SVGID_8_);fill:#00B5C2;" points="78.2,82.69 21.48,28.55 21.48,26.28 80.58,82.69 		"/>
		<polygon style="clip-path:url(#SVGID_8_);fill:#00B4C3;" points="75.83,82.69 21.48,30.81 21.48,28.55 78.2,82.69 		"/>
		<polygon style="clip-path:url(#SVGID_8_);fill:#00B3C4;" points="73.46,82.69 21.48,33.08 21.48,30.81 75.83,82.69 		"/>
		<polygon style="clip-path:url(#SVGID_8_);fill:#00B2C5;" points="71.08,82.69 21.48,35.34 21.48,33.08 73.46,82.69 		"/>
		<polygon style="clip-path:url(#SVGID_8_);fill:#00B1C7;" points="68.71,82.69 21.48,37.61 21.48,35.34 71.08,82.69 		"/>
		<polygon style="clip-path:url(#SVGID_8_);fill:#00B0C8;" points="66.33,82.69 21.48,39.88 21.48,37.61 68.71,82.69 		"/>
		<polygon style="clip-path:url(#SVGID_8_);fill:#00AFC9;" points="63.96,82.69 21.48,42.14 21.48,39.88 66.33,82.69 		"/>
		<polygon style="clip-path:url(#SVGID_8_);fill:#00AECA;" points="61.59,82.69 21.48,44.41 21.48,42.14 63.96,82.69 		"/>
		<polygon style="clip-path:url(#SVGID_8_);fill:#00ADCB;" points="59.21,82.69 21.48,46.67 21.48,44.41 61.59,82.69 		"/>
		<polygon style="clip-path:url(#SVGID_8_);fill:#00ACCC;" points="56.84,82.69 21.48,48.94 21.48,46.67 59.21,82.69 		"/>
		<polygon style="clip-path:url(#SVGID_8_);fill:#00ABCD;" points="54.46,82.69 21.48,51.21 21.48,48.94 56.84,82.69 		"/>
		<polygon style="clip-path:url(#SVGID_8_);fill:#00AACE;" points="52.09,82.69 21.48,53.47 21.48,51.21 54.46,82.69 		"/>
		<polygon style="clip-path:url(#SVGID_8_);fill:#00A9CF;" points="49.72,82.69 21.48,55.74 21.48,53.47 52.09,82.69 		"/>
		<polygon style="clip-path:url(#SVGID_8_);fill:#00A8D0;" points="47.34,82.69 21.48,58 21.48,55.74 49.72,82.69 		"/>
		<polygon style="clip-path:url(#SVGID_8_);fill:#00A7D1;" points="44.97,82.69 21.48,60.27 21.48,58 47.34,82.69 		"/>
		<polygon style="clip-path:url(#SVGID_8_);fill:#00A6D3;" points="42.6,82.69 21.48,62.54 21.48,60.27 44.97,82.69 		"/>
	</g>
</g>
<g id="initials-white">
</g>
<g id="initials-black">
</g>
</svg>
