<svg xmlns="http://www.w3.org/2000/svg" xmlns:xlink="http://www.w3.org/1999/xlink" version="1.1" x="0px" y="0px" viewBox="0 0 512 640" enable-background="new 0 0 512 512" xml:space="preserve"><g><path fill="#000000" d="M2,2v475.2h32.8V510h47.4l8.2-32.8h331.3l8.2,32.8h47.4v-32.8H510V2H2z M69.3,493.6H51.2v-16.4h22.3   L69.3,493.6z M460.8,493.6h-18.2l-4.1-16.4h22.3V493.6z M493.6,460.8H18.4v-213h475.2V460.8z M493.6,231.4H18.4v-213h475.2V231.4z"/><path fill="#000000" d="M477.2,34.8H34.8V215h442.5V34.8z M460.8,198.6H51.2V51.2h409.7V198.6z"/><path fill="#000000" d="M477.2,264.2H34.8v180.3h442.5V264.2z M460.8,428.1H51.2V280.6h409.7V428.1z"/><path fill="#000000" d="M321.5,92.1H190.5v65.6h131.1V92.1z M305.2,141.3h-98.3v-32.8h98.3V141.3z"/><path fill="#000000" d="M321.5,321.5H190.5v65.5h131.1V321.5z M305.2,370.7h-98.3v-32.8h98.3V370.7z"/></g><text x="0" y="527" fill="#000000" font-size="5px" font-weight="bold" font-family="'Helvetica Neue', Helvetica, Arial-Unicode, Arial, Sans-serif">Created by Icon Fair</text><text x="0" y="532" fill="#000000" font-size="5px" font-weight="bold" font-family="'Helvetica Neue', Helvetica, Arial-Unicode, Arial, Sans-serif">from the Noun Project</text></svg>